<svg id="svg" version="1.1" xmlns="http://www.w3.org/2000/svg" xmlns:xlink="http://www.w3.org/1999/xlink" width="400" height="400" viewBox="0, 0, 400,400"><g id="svgg"><path id="path0" d="M193.300 0.275 C 193.025 0.380,192.800 0.752,192.800 1.100 C 192.800 1.448,192.691 1.624,192.558 1.491 C 192.229 1.162,190.400 3.030,190.400 3.694 C 190.400 3.985,190.040 4.483,189.600 4.800 C 189.160 5.117,188.800 5.631,188.800 5.941 C 188.800 6.252,188.484 6.797,188.097 7.153 C 187.711 7.509,187.140 8.295,186.830 8.900 C 186.519 9.505,186.115 10.000,185.932 10.000 C 185.750 10.000,185.600 10.236,185.600 10.525 C 185.600 10.813,185.285 11.398,184.900 11.825 C 184.515 12.251,183.931 13.140,183.603 13.800 C 183.274 14.460,182.689 15.291,182.303 15.647 C 181.916 16.003,181.600 16.588,181.600 16.947 C 181.600 17.306,181.420 17.600,181.200 17.600 C 180.980 17.600,180.800 17.836,180.800 18.125 C 180.800 18.413,180.440 19.036,180.000 19.508 C 179.560 19.980,179.200 20.557,179.200 20.789 C 179.200 21.295,178.395 22.757,177.700 23.513 C 177.425 23.812,177.200 24.292,177.200 24.580 C 177.200 24.867,176.941 25.317,176.624 25.580 C 176.307 25.843,176.137 26.292,176.247 26.578 C 176.356 26.863,176.154 27.209,175.798 27.346 C 175.441 27.482,175.261 27.776,175.398 27.997 C 175.535 28.219,175.457 28.400,175.224 28.400 C 174.991 28.400,174.800 28.670,174.800 29.000 C 174.800 29.330,174.620 29.600,174.400 29.600 C 174.180 29.600,174.000 29.971,174.000 30.424 C 174.000 30.877,173.820 31.136,173.600 31.000 C 173.380 30.864,173.200 31.123,173.200 31.576 C 173.200 32.029,173.020 32.400,172.800 32.400 C 172.580 32.400,172.400 32.760,172.400 33.200 C 172.400 33.640,172.220 34.000,172.000 34.000 C 171.780 34.000,171.600 34.360,171.600 34.800 C 171.600 35.240,171.420 35.600,171.200 35.600 C 170.980 35.600,170.800 35.960,170.800 36.400 C 170.800 36.840,170.620 37.200,170.400 37.200 C 170.180 37.200,170.000 37.549,170.000 37.976 C 170.000 38.403,169.820 38.864,169.600 39.000 C 169.380 39.136,169.200 39.687,169.200 40.224 C 169.200 40.761,169.020 41.200,168.800 41.200 C 168.580 41.200,168.400 41.560,168.400 42.000 C 168.400 42.440,168.220 42.800,168.000 42.800 C 167.780 42.800,167.600 43.126,167.600 43.525 C 167.600 43.924,167.240 44.995,166.800 45.906 C 166.360 46.816,166.000 47.829,166.000 48.157 C 166.000 48.485,165.820 48.864,165.600 49.000 C 165.380 49.136,165.200 49.867,165.200 50.624 C 165.200 51.381,165.020 52.000,164.800 52.000 C 164.580 52.000,164.400 52.889,164.400 53.976 C 164.400 55.063,164.220 56.064,164.000 56.200 C 163.780 56.336,163.600 57.776,163.600 59.400 C 163.600 61.024,163.780 62.464,164.000 62.600 C 164.220 62.736,164.400 63.726,164.400 64.800 C 164.400 65.874,164.580 66.864,164.800 67.000 C 165.020 67.136,165.200 67.867,165.200 68.624 C 165.200 69.381,165.380 70.000,165.600 70.000 C 165.820 70.000,166.000 70.343,166.000 70.762 C 166.000 71.578,167.601 74.912,168.100 75.133 C 168.265 75.207,168.400 75.572,168.400 75.945 C 168.400 76.318,168.760 76.883,169.200 77.200 C 169.640 77.517,170.000 77.999,170.000 78.271 C 170.000 79.137,176.689 85.716,177.230 85.381 C 177.515 85.205,177.622 85.241,177.482 85.467 C 177.211 85.906,178.074 86.722,179.706 87.568 C 180.308 87.880,180.800 88.285,180.800 88.468 C 180.800 88.650,181.115 88.801,181.500 88.801 C 181.885 88.802,182.789 89.162,183.510 89.601 C 184.230 90.041,185.139 90.400,185.530 90.400 C 185.920 90.400,186.428 90.588,186.658 90.818 C 186.888 91.048,188.364 91.344,189.938 91.476 C 191.512 91.608,192.800 91.870,192.800 92.058 C 192.800 92.513,201.895 92.501,202.067 92.046 C 202.140 91.851,203.436 91.568,204.946 91.416 C 206.457 91.265,208.167 90.949,208.746 90.715 C 212.098 89.360,214.015 88.347,213.820 88.033 C 213.698 87.836,213.959 87.769,214.399 87.884 C 214.847 88.001,215.200 87.896,215.200 87.647 C 215.200 87.401,215.443 87.200,215.741 87.200 C 216.038 87.200,216.846 86.660,217.537 86.000 C 218.228 85.340,218.929 84.799,219.096 84.798 C 219.735 84.794,222.001 82.325,221.745 81.911 C 221.596 81.670,221.660 81.590,221.888 81.731 C 222.114 81.871,222.637 81.524,223.050 80.960 C 223.462 80.396,224.115 79.562,224.500 79.106 C 224.885 78.651,225.200 78.011,225.200 77.686 C 225.200 77.360,225.515 76.803,225.900 76.447 C 226.830 75.588,228.400 72.520,228.400 71.562 C 228.400 71.143,228.580 70.800,228.800 70.800 C 229.020 70.800,229.200 70.361,229.200 69.824 C 229.200 69.287,229.380 68.736,229.600 68.600 C 229.820 68.464,230.000 67.643,230.000 66.776 C 230.000 65.909,230.180 65.200,230.400 65.200 C 230.648 65.200,230.800 63.000,230.800 59.400 C 230.800 55.800,230.648 53.600,230.400 53.600 C 230.180 53.600,230.000 52.880,230.000 52.000 C 230.000 51.120,229.820 50.400,229.600 50.400 C 229.380 50.400,229.200 49.860,229.200 49.200 C 229.200 48.540,229.020 48.000,228.800 48.000 C 228.580 48.000,228.400 47.561,228.400 47.024 C 228.400 46.487,228.220 45.936,228.000 45.800 C 227.780 45.664,227.600 45.113,227.600 44.576 C 227.600 44.039,227.420 43.600,227.200 43.600 C 226.980 43.600,226.800 43.240,226.800 42.800 C 226.800 42.360,226.620 42.000,226.400 42.000 C 226.180 42.000,226.000 41.640,226.000 41.200 C 226.000 40.760,225.820 40.400,225.600 40.400 C 225.380 40.400,225.200 39.982,225.200 39.471 C 225.200 38.485,220.917 29.493,220.340 29.267 C 220.153 29.193,220.000 28.788,220.000 28.367 C 220.000 27.945,219.864 27.600,219.698 27.600 C 219.531 27.600,219.136 27.015,218.820 26.300 C 218.503 25.585,217.920 24.651,217.522 24.225 C 217.125 23.798,216.800 23.213,216.800 22.925 C 216.800 22.636,216.620 22.400,216.400 22.400 C 216.180 22.400,216.000 22.040,216.000 21.600 C 216.000 21.160,215.820 20.800,215.600 20.800 C 215.380 20.800,215.200 20.564,215.200 20.275 C 215.200 19.987,214.840 19.364,214.400 18.892 C 213.960 18.420,213.600 17.756,213.600 17.417 C 213.600 17.078,213.420 16.800,213.200 16.800 C 212.980 16.800,212.800 16.530,212.800 16.200 C 212.800 15.870,212.620 15.600,212.400 15.600 C 212.180 15.600,212.000 15.330,212.000 15.000 C 212.000 14.670,211.820 14.400,211.600 14.400 C 211.380 14.400,211.200 14.080,211.200 13.688 C 211.200 13.297,210.840 12.717,210.400 12.400 C 209.960 12.083,209.600 11.503,209.600 11.112 C 209.600 10.720,209.432 10.400,209.227 10.400 C 209.022 10.400,208.734 10.022,208.587 9.561 C 208.441 9.099,207.979 8.379,207.561 7.961 C 207.142 7.542,206.800 6.930,206.800 6.600 C 206.800 6.270,206.650 6.000,206.468 6.000 C 206.285 6.000,205.880 5.508,205.568 4.906 C 205.006 3.822,204.615 3.279,202.935 1.246 C 202.097 0.232,195.218 -0.462,193.300 0.275 M84.241 12.334 C 84.117 12.533,83.518 12.797,82.908 12.921 C 81.569 13.191,79.405 15.236,78.403 17.179 C 78.000 17.960,77.287 19.005,76.819 19.500 C 76.352 19.995,76.111 20.403,76.284 20.406 C 76.458 20.409,76.389 20.546,76.132 20.710 C 75.875 20.874,75.605 21.269,75.532 21.588 C 75.459 21.907,75.091 22.518,74.714 22.945 C 74.336 23.372,74.123 23.875,74.239 24.063 C 74.356 24.252,74.169 24.514,73.825 24.646 C 73.481 24.778,73.200 25.108,73.200 25.381 C 73.200 25.653,72.840 26.202,72.400 26.600 C 71.960 26.998,71.600 27.566,71.600 27.862 C 71.600 28.158,71.420 28.400,71.200 28.400 C 70.980 28.400,70.800 28.636,70.800 28.925 C 70.800 29.213,70.440 29.836,70.000 30.308 C 69.560 30.780,69.200 31.362,69.200 31.600 C 69.200 31.838,68.840 32.420,68.400 32.892 C 67.960 33.364,67.600 33.987,67.600 34.275 C 67.600 34.564,67.420 34.800,67.200 34.800 C 66.980 34.800,66.800 35.160,66.800 35.600 C 66.800 36.040,66.620 36.400,66.400 36.400 C 66.180 36.400,66.000 36.720,66.000 37.112 C 66.000 37.503,65.640 38.083,65.200 38.400 C 64.760 38.717,64.400 39.297,64.400 39.688 C 64.400 40.080,64.220 40.400,64.000 40.400 C 63.780 40.400,63.600 40.760,63.600 41.200 C 63.600 41.640,63.420 42.000,63.200 42.000 C 62.980 42.000,62.800 42.360,62.800 42.800 C 62.800 43.240,62.620 43.600,62.400 43.600 C 62.180 43.600,62.000 43.870,62.000 44.200 C 62.000 44.530,61.820 44.800,61.600 44.800 C 61.380 44.800,61.200 45.160,61.200 45.600 C 61.200 46.040,61.020 46.400,60.800 46.400 C 60.580 46.400,60.400 46.760,60.400 47.200 C 60.400 47.640,60.190 48.000,59.933 48.000 C 59.677 48.000,59.580 48.114,59.719 48.253 C 59.858 48.392,59.760 48.887,59.500 49.353 C 59.241 49.819,59.022 50.320,59.014 50.467 C 59.006 50.613,58.865 50.868,58.700 51.033 C 58.535 51.198,58.400 51.663,58.400 52.067 C 58.400 52.470,58.220 52.800,58.000 52.800 C 57.780 52.800,57.600 53.160,57.600 53.600 C 57.600 54.040,57.420 54.400,57.200 54.400 C 56.980 54.400,56.800 54.749,56.800 55.176 C 56.800 55.603,56.620 56.064,56.400 56.200 C 56.180 56.336,56.000 56.887,56.000 57.424 C 56.000 57.961,55.820 58.400,55.600 58.400 C 55.380 58.400,55.200 58.850,55.200 59.400 C 55.200 59.950,55.020 60.400,54.800 60.400 C 54.580 60.400,54.400 60.929,54.400 61.576 C 54.400 62.223,54.220 62.864,54.000 63.000 C 53.780 63.136,53.600 63.867,53.600 64.624 C 53.600 65.381,53.434 66.000,53.231 66.000 C 52.709 66.000,52.668 79.071,53.189 79.393 C 53.415 79.533,53.600 80.267,53.600 81.024 C 53.600 81.781,53.780 82.400,54.000 82.400 C 54.220 82.400,54.400 82.940,54.400 83.600 C 54.400 84.260,54.580 84.800,54.800 84.800 C 55.020 84.800,55.200 85.160,55.200 85.600 C 55.200 86.040,55.380 86.400,55.600 86.400 C 55.820 86.400,56.000 86.760,56.000 87.200 C 56.000 87.640,56.180 88.000,56.400 88.000 C 56.620 88.000,56.800 88.360,56.800 88.800 C 56.800 89.240,56.980 89.600,57.200 89.600 C 57.420 89.600,57.600 89.830,57.600 90.112 C 57.600 90.393,57.950 90.876,58.379 91.185 C 58.807 91.493,59.078 91.874,58.981 92.031 C 58.884 92.188,59.074 92.419,59.402 92.546 C 59.731 92.672,60.000 93.006,60.000 93.288 C 60.000 93.941,62.960 97.200,63.554 97.200 C 63.799 97.200,64.000 97.380,64.000 97.600 C 64.000 97.820,64.198 98.000,64.440 98.000 C 64.681 98.000,65.383 98.540,66.000 99.200 C 66.617 99.860,67.409 100.400,67.760 100.400 C 68.112 100.400,68.400 100.580,68.400 100.800 C 68.400 101.020,68.760 101.200,69.200 101.200 C 69.640 101.200,70.000 101.380,70.000 101.600 C 70.000 101.820,70.360 102.000,70.800 102.000 C 71.240 102.000,71.600 102.180,71.600 102.400 C 71.600 102.620,71.960 102.800,72.400 102.800 C 72.840 102.800,73.200 102.980,73.200 103.200 C 73.200 103.420,73.740 103.600,74.400 103.600 C 75.060 103.600,75.600 103.780,75.600 104.000 C 75.600 104.220,76.140 104.400,76.800 104.400 C 77.460 104.400,78.000 104.594,78.000 104.830 C 78.000 105.112,79.092 105.216,81.168 105.130 C 82.910 105.059,84.305 105.158,84.268 105.351 C 84.154 105.939,86.494 106.093,86.857 105.522 C 87.124 105.100,87.189 105.105,87.194 105.549 C 87.198 105.950,87.338 105.983,87.712 105.673 C 87.994 105.439,89.441 105.209,90.928 105.160 C 92.415 105.112,93.725 104.922,93.839 104.736 C 93.954 104.551,94.577 104.400,95.224 104.400 C 95.871 104.400,96.400 104.220,96.400 104.000 C 96.400 103.780,96.940 103.600,97.600 103.600 C 98.260 103.600,98.800 103.420,98.800 103.200 C 98.800 102.980,99.160 102.800,99.600 102.800 C 100.040 102.800,100.400 102.620,100.400 102.400 C 100.400 102.180,100.760 102.000,101.200 102.000 C 101.640 102.000,102.000 101.820,102.000 101.600 C 102.000 101.380,102.360 101.200,102.800 101.200 C 103.240 101.200,103.600 101.020,103.600 100.800 C 103.600 100.580,103.843 100.400,104.141 100.400 C 104.438 100.400,105.246 99.860,105.937 99.200 C 106.628 98.540,107.288 98.000,107.405 98.000 C 107.823 98.000,112.000 93.608,112.000 93.169 C 112.000 92.923,112.540 92.217,113.200 91.600 C 113.860 90.983,114.400 90.281,114.400 90.040 C 114.400 89.798,114.580 89.600,114.800 89.600 C 115.020 89.600,115.200 89.240,115.200 88.800 C 115.200 88.360,115.380 88.000,115.600 88.000 C 115.820 88.000,116.000 87.640,116.000 87.200 C 116.000 86.760,116.180 86.400,116.400 86.400 C 116.620 86.400,116.800 86.040,116.800 85.600 C 116.800 85.160,116.980 84.800,117.200 84.800 C 117.420 84.800,117.600 84.260,117.600 83.600 C 117.600 82.940,117.780 82.400,118.000 82.400 C 118.220 82.400,118.400 81.680,118.400 80.800 C 118.400 79.920,118.580 79.200,118.800 79.200 C 119.050 79.200,119.200 76.808,119.200 72.824 C 119.200 69.004,119.040 66.348,118.800 66.200 C 118.580 66.064,118.400 65.243,118.400 64.376 C 118.400 63.509,118.220 62.800,118.000 62.800 C 117.780 62.800,117.600 62.260,117.600 61.600 C 117.600 60.940,117.420 60.400,117.200 60.400 C 116.980 60.400,116.800 59.950,116.800 59.400 C 116.800 58.850,116.620 58.400,116.400 58.400 C 116.180 58.400,116.000 57.961,116.000 57.424 C 116.000 56.887,115.820 56.336,115.600 56.200 C 115.380 56.064,115.200 55.603,115.200 55.176 C 115.200 54.749,115.020 54.400,114.800 54.400 C 114.580 54.400,114.400 54.040,114.400 53.600 C 114.400 53.160,114.220 52.800,114.000 52.800 C 113.780 52.800,113.600 52.440,113.600 52.000 C 113.600 51.560,113.420 51.200,113.200 51.200 C 112.980 51.200,112.800 50.840,112.800 50.400 C 112.800 49.960,112.620 49.600,112.400 49.600 C 112.180 49.600,112.000 49.366,112.000 49.080 C 112.000 48.344,111.059 46.407,110.700 46.403 C 110.535 46.401,110.400 46.040,110.400 45.600 C 110.400 45.160,110.262 44.800,110.094 44.800 C 109.853 44.800,108.444 42.122,108.200 41.200 C 107.985 40.384,106.588 38.000,106.326 38.000 C 106.147 38.000,106.000 37.655,106.000 37.233 C 106.000 36.812,105.865 36.407,105.700 36.333 C 105.324 36.166,104.025 34.036,103.729 33.100 C 103.607 32.715,103.348 32.400,103.153 32.400 C 102.959 32.400,102.800 32.122,102.800 31.783 C 102.800 31.444,102.464 30.806,102.054 30.366 C 101.643 29.925,100.898 28.768,100.397 27.794 C 99.896 26.820,99.332 26.119,99.143 26.235 C 98.954 26.352,98.800 26.077,98.800 25.624 C 98.800 25.171,98.620 24.800,98.400 24.800 C 98.180 24.800,98.000 24.564,98.000 24.275 C 98.000 23.987,97.685 23.402,97.300 22.975 C 96.915 22.549,96.345 21.705,96.032 21.100 C 95.720 20.495,95.315 20.000,95.132 20.000 C 94.950 20.000,94.800 19.680,94.800 19.288 C 94.800 18.897,94.440 18.317,94.000 18.000 C 93.560 17.683,93.200 17.222,93.200 16.975 C 93.200 16.168,89.701 12.800,88.863 12.800 C 88.414 12.800,87.958 12.656,87.849 12.480 C 87.567 12.023,84.509 11.900,84.241 12.334 M307.600 12.400 C 307.270 12.613,306.672 12.791,306.271 12.794 C 305.871 12.797,305.271 13.072,304.939 13.404 C 304.607 13.736,304.197 13.922,304.028 13.817 C 303.859 13.713,303.470 14.116,303.163 14.714 C 302.856 15.311,302.289 16.091,301.903 16.447 C 301.516 16.803,301.200 17.388,301.200 17.747 C 301.200 18.106,301.009 18.400,300.776 18.400 C 300.543 18.400,300.464 18.580,300.600 18.800 C 300.736 19.020,300.567 19.200,300.224 19.200 C 299.815 19.200,299.600 19.567,299.600 20.267 C 299.600 20.853,299.489 21.222,299.352 21.086 C 299.019 20.753,298.000 21.806,298.000 22.483 C 298.000 22.780,297.640 23.283,297.200 23.600 C 296.760 23.917,296.400 24.414,296.400 24.705 C 296.400 24.996,296.069 25.589,295.664 26.023 C 295.259 26.458,294.674 27.305,294.365 27.907 C 294.055 28.508,293.687 29.090,293.547 29.200 C 293.407 29.310,292.800 30.390,292.198 31.600 C 291.596 32.810,290.900 34.204,290.651 34.697 C 290.403 35.190,290.065 35.595,289.900 35.597 C 289.735 35.599,289.600 35.878,289.600 36.217 C 289.600 36.556,289.240 37.220,288.800 37.692 C 288.360 38.164,288.000 38.787,288.000 39.075 C 288.000 39.364,287.820 39.600,287.600 39.600 C 287.380 39.600,287.200 39.960,287.200 40.400 C 287.200 40.840,287.054 41.200,286.875 41.200 C 286.696 41.200,286.302 41.830,286.000 42.600 C 285.698 43.370,285.304 44.000,285.125 44.000 C 284.946 44.000,284.800 44.360,284.800 44.800 C 284.800 45.240,284.620 45.600,284.400 45.600 C 284.180 45.600,283.996 45.915,283.991 46.300 C 283.986 46.685,283.630 47.450,283.200 48.000 C 282.770 48.550,282.414 49.315,282.409 49.700 C 282.404 50.085,282.220 50.400,282.000 50.400 C 281.780 50.400,281.600 50.760,281.600 51.200 C 281.600 51.640,281.420 52.000,281.200 52.000 C 280.980 52.000,280.800 52.360,280.800 52.800 C 280.800 53.240,280.620 53.600,280.400 53.600 C 280.180 53.600,280.000 53.949,280.000 54.376 C 280.000 54.803,279.804 55.274,279.565 55.422 C 279.326 55.569,279.222 56.041,279.334 56.470 C 279.454 56.928,279.304 57.339,278.969 57.467 C 278.656 57.587,278.400 58.016,278.400 58.419 C 278.400 58.823,278.220 59.264,278.000 59.400 C 277.780 59.536,277.600 60.076,277.600 60.600 C 277.600 61.124,277.444 61.649,277.254 61.767 C 276.946 61.957,276.653 63.268,276.218 66.400 C 276.142 66.950,276.039 67.445,275.990 67.500 C 275.940 67.555,275.855 67.780,275.800 68.000 C 275.745 68.220,275.659 68.445,275.608 68.500 C 275.287 68.850,275.415 75.949,275.755 76.600 C 275.984 77.040,276.201 77.895,276.236 78.500 C 276.363 80.688,276.406 80.843,276.815 80.591 C 277.071 80.433,277.220 80.844,277.204 81.667 C 277.169 83.503,277.618 85.600,278.045 85.600 C 278.240 85.600,278.400 85.960,278.400 86.400 C 278.400 86.840,278.580 87.200,278.800 87.200 C 279.020 87.200,279.200 87.560,279.200 88.000 C 279.200 88.440,279.380 88.800,279.600 88.800 C 279.820 88.800,280.000 89.070,280.000 89.400 C 280.000 89.730,280.150 90.000,280.332 90.000 C 280.515 90.000,280.920 90.492,281.232 91.094 C 281.944 92.465,285.819 96.400,286.458 96.400 C 286.719 96.400,286.825 96.508,286.693 96.640 C 286.328 97.005,289.155 99.675,289.609 99.394 C 289.827 99.260,290.118 99.441,290.254 99.798 C 290.391 100.154,290.759 100.348,291.072 100.228 C 291.407 100.099,291.534 100.183,291.381 100.432 C 291.237 100.664,291.498 100.953,291.960 101.074 C 292.422 101.194,292.800 101.408,292.800 101.549 C 292.800 101.690,293.385 102.044,294.100 102.336 C 296.850 103.459,297.422 103.704,298.095 104.047 C 298.477 104.241,299.332 104.400,299.995 104.400 C 300.658 104.400,301.200 104.580,301.200 104.800 C 301.200 105.028,302.392 105.200,303.976 105.200 C 305.503 105.200,306.858 105.370,306.986 105.577 C 307.114 105.785,308.070 105.860,309.110 105.745 C 310.149 105.629,312.260 105.443,313.799 105.330 C 315.339 105.218,316.699 104.964,316.822 104.765 C 316.945 104.566,317.575 104.343,318.223 104.270 C 319.459 104.130,320.535 103.790,321.695 103.171 C 322.077 102.967,322.662 102.800,322.995 102.800 C 323.328 102.800,323.600 102.620,323.600 102.400 C 323.600 102.180,323.960 102.000,324.400 102.000 C 324.840 102.000,325.200 101.820,325.200 101.600 C 325.200 101.380,325.436 101.200,325.725 101.200 C 326.013 101.200,326.636 100.840,327.108 100.400 C 327.580 99.960,328.139 99.600,328.350 99.600 C 328.879 99.600,336.400 92.146,336.400 91.623 C 336.400 91.390,336.580 91.200,336.800 91.200 C 337.020 91.200,337.200 90.930,337.200 90.600 C 337.200 90.270,337.401 90.000,337.647 90.000 C 337.896 90.000,338.001 89.647,337.884 89.199 C 337.763 88.736,337.839 88.500,338.064 88.640 C 338.279 88.772,338.553 88.502,338.674 88.040 C 338.794 87.578,339.052 87.200,339.247 87.200 C 339.441 87.200,339.600 86.928,339.600 86.595 C 339.600 86.006,339.770 85.576,340.743 83.697 C 341.000 83.200,341.325 81.445,341.464 79.797 C 341.603 78.149,341.871 76.800,342.059 76.800 C 342.246 76.800,342.400 74.730,342.400 72.200 C 342.400 69.670,342.243 67.600,342.051 67.600 C 341.859 67.600,341.618 66.745,341.515 65.700 C 341.304 63.551,339.611 57.870,339.121 57.667 C 338.945 57.593,338.800 57.109,338.800 56.590 C 338.800 56.072,338.620 55.536,338.400 55.400 C 338.180 55.264,338.000 54.803,338.000 54.376 C 338.000 53.949,337.820 53.600,337.600 53.600 C 337.380 53.600,337.200 53.240,337.200 52.800 C 337.200 52.360,337.020 52.000,336.800 52.000 C 336.580 52.000,336.400 51.640,336.400 51.200 C 336.400 50.760,336.220 50.400,336.000 50.400 C 335.780 50.400,335.600 50.040,335.600 49.600 C 335.600 49.160,335.420 48.800,335.200 48.800 C 334.980 48.800,334.800 48.440,334.800 48.000 C 334.800 47.560,334.620 47.200,334.400 47.200 C 334.180 47.200,334.000 46.840,334.000 46.400 C 334.000 45.960,333.820 45.600,333.600 45.600 C 333.380 45.600,333.200 45.240,333.200 44.800 C 333.200 44.360,333.054 44.000,332.875 44.000 C 332.696 44.000,332.302 43.370,332.000 42.600 C 331.698 41.830,331.304 41.200,331.125 41.200 C 330.946 41.200,330.800 40.840,330.800 40.400 C 330.800 39.960,330.620 39.600,330.400 39.600 C 330.180 39.600,330.000 39.364,330.000 39.075 C 330.000 38.787,329.640 38.164,329.200 37.692 C 328.760 37.220,328.400 36.556,328.400 36.217 C 328.400 35.878,328.220 35.600,328.000 35.600 C 327.780 35.600,327.600 35.317,327.600 34.971 C 327.600 34.226,326.603 33.131,326.248 33.486 C 326.111 33.622,326.000 33.253,326.000 32.667 C 326.000 32.080,325.820 31.600,325.600 31.600 C 325.380 31.600,325.200 31.322,325.200 30.983 C 325.200 30.644,324.846 29.987,324.414 29.523 C 323.981 29.059,323.722 28.526,323.837 28.339 C 323.953 28.153,323.857 28.000,323.624 28.000 C 323.391 28.000,323.200 27.764,323.200 27.475 C 323.200 27.187,322.840 26.564,322.400 26.092 C 321.960 25.620,321.600 24.996,321.600 24.705 C 321.600 24.414,321.240 23.917,320.800 23.600 C 320.360 23.283,320.000 22.743,320.000 22.400 C 320.000 22.057,319.640 21.517,319.200 21.200 C 318.760 20.883,318.400 20.380,318.400 20.083 C 318.400 19.406,317.381 18.353,317.048 18.686 C 316.911 18.822,316.800 18.519,316.800 18.014 C 316.800 17.508,316.485 16.800,316.100 16.441 C 315.715 16.082,315.205 15.431,314.967 14.994 C 314.729 14.557,314.144 14.022,313.667 13.805 C 313.190 13.588,312.800 13.273,312.800 13.105 C 312.800 12.937,312.271 12.800,311.624 12.800 C 310.977 12.800,310.336 12.620,310.200 12.400 C 309.886 11.893,308.385 11.893,307.600 12.400 M198.366 21.600 C 198.496 21.710,198.855 22.292,199.165 22.893 C 199.474 23.495,200.059 24.342,200.464 24.777 C 200.869 25.211,201.200 25.844,201.200 26.183 C 201.200 26.522,201.380 26.800,201.600 26.800 C 201.820 26.800,202.000 27.036,202.000 27.325 C 202.000 27.613,202.360 28.236,202.800 28.708 C 203.240 29.180,203.600 29.844,203.600 30.183 C 203.600 30.522,203.780 30.800,204.000 30.800 C 204.220 30.800,204.400 31.120,204.400 31.512 C 204.400 31.903,204.760 32.483,205.200 32.800 C 205.640 33.117,206.000 33.697,206.000 34.088 C 206.000 34.480,206.180 34.800,206.400 34.800 C 206.620 34.800,206.800 35.160,206.800 35.600 C 206.800 36.040,206.980 36.400,207.200 36.400 C 207.420 36.400,207.600 36.760,207.600 37.200 C 207.600 37.640,207.735 38.001,207.900 38.001 C 208.065 38.002,208.820 39.352,209.577 41.001 C 210.335 42.651,211.110 44.000,211.301 44.000 C 211.491 44.000,211.539 44.175,211.407 44.389 C 211.275 44.602,211.445 45.202,211.785 45.721 C 212.125 46.239,212.282 46.784,212.135 46.932 C 211.987 47.079,212.077 47.200,212.333 47.200 C 212.590 47.200,212.800 47.560,212.800 48.000 C 212.800 48.440,212.980 48.800,213.200 48.800 C 213.420 48.800,213.600 49.256,213.600 49.813 C 213.600 50.369,213.859 50.924,214.175 51.046 C 214.493 51.168,214.646 51.537,214.516 51.873 C 214.388 52.207,214.499 52.614,214.762 52.776 C 215.025 52.939,215.267 53.506,215.301 54.036 C 215.334 54.566,215.526 55.113,215.727 55.252 C 216.213 55.588,216.083 63.363,215.588 63.533 C 215.375 63.607,215.200 64.192,215.200 64.833 C 215.200 65.475,215.020 66.000,214.800 66.000 C 214.580 66.000,214.400 66.360,214.400 66.800 C 214.400 67.240,214.254 67.600,214.075 67.600 C 213.896 67.600,213.503 68.228,213.201 68.996 C 212.900 69.764,212.319 70.499,211.910 70.629 C 211.393 70.793,211.241 71.099,211.410 71.632 C 211.552 72.079,211.466 72.400,211.203 72.400 C 210.956 72.400,210.870 72.175,211.013 71.900 C 211.157 71.625,210.531 72.165,209.622 73.100 C 208.714 74.035,207.708 74.800,207.386 74.800 C 207.063 74.800,206.800 74.991,206.800 75.224 C 206.800 75.457,206.635 75.545,206.432 75.420 C 206.230 75.295,205.790 75.468,205.454 75.803 C 205.118 76.139,204.698 76.382,204.521 76.343 C 204.345 76.303,203.690 76.481,203.066 76.738 C 202.443 76.995,201.768 77.104,201.566 76.979 C 201.365 76.855,201.200 76.943,201.200 77.176 C 201.200 77.693,194.150 77.766,193.833 77.254 C 193.715 77.063,193.186 76.990,192.656 77.091 C 192.127 77.193,191.572 77.078,191.423 76.838 C 191.275 76.597,190.825 76.400,190.425 76.400 C 190.025 76.400,189.476 76.132,189.204 75.804 C 188.932 75.477,188.583 75.287,188.428 75.383 C 188.273 75.479,187.893 75.207,187.585 74.779 C 187.276 74.350,186.788 74.000,186.501 74.000 C 185.822 74.000,182.400 70.578,182.400 69.899 C 182.400 69.612,182.040 69.117,181.600 68.800 C 181.160 68.483,180.800 67.903,180.800 67.512 C 180.800 67.120,180.620 66.800,180.400 66.800 C 180.180 66.800,180.000 66.361,180.000 65.824 C 180.000 65.287,179.820 64.736,179.600 64.600 C 179.380 64.464,179.200 63.823,179.200 63.176 C 179.200 62.529,179.020 62.000,178.800 62.000 C 178.575 62.000,178.400 60.875,178.400 59.424 C 178.400 58.007,178.580 56.736,178.800 56.600 C 179.020 56.464,179.200 55.823,179.200 55.176 C 179.200 54.529,179.380 54.000,179.600 54.000 C 179.820 54.000,180.000 53.550,180.000 53.000 C 180.000 52.450,180.180 52.000,180.400 52.000 C 180.620 52.000,180.800 51.460,180.800 50.800 C 180.800 50.140,180.980 49.600,181.200 49.600 C 181.420 49.600,181.600 49.240,181.600 48.800 C 181.600 48.360,181.780 48.000,182.000 48.000 C 182.220 48.000,182.400 47.640,182.400 47.200 C 182.400 46.760,182.580 46.400,182.800 46.400 C 183.020 46.400,183.200 46.040,183.200 45.600 C 183.200 45.160,183.380 44.800,183.600 44.800 C 183.820 44.800,184.000 44.564,184.000 44.275 C 184.000 43.704,185.548 40.325,185.958 40.000 C 186.097 39.890,186.658 38.900,187.205 37.800 C 187.752 36.700,188.335 35.740,188.500 35.667 C 188.665 35.593,188.800 35.188,188.800 34.767 C 188.800 34.345,188.959 34.000,189.153 34.000 C 189.462 34.000,190.041 32.586,189.865 32.262 C 189.829 32.197,190.115 31.828,190.499 31.443 C 190.884 31.059,191.318 30.262,191.463 29.672 C 191.609 29.082,192.087 28.285,192.525 27.900 C 193.021 27.464,193.125 27.200,192.800 27.200 C 192.491 27.200,192.630 26.895,193.139 26.453 C 193.612 26.042,194.000 25.502,194.000 25.253 C 194.000 25.004,194.180 24.800,194.400 24.800 C 194.620 24.800,194.800 24.530,194.800 24.200 C 194.800 23.870,194.980 23.600,195.200 23.600 C 195.420 23.600,195.600 23.330,195.600 23.000 C 195.600 22.670,195.736 22.400,195.902 22.400 C 196.069 22.400,196.454 21.837,196.758 21.150 C 197.263 20.008,197.347 19.965,197.722 20.650 C 197.947 21.062,198.237 21.490,198.366 21.600 M309.696 34.000 C 309.937 34.000,310.019 34.115,309.878 34.255 C 309.738 34.395,309.978 35.008,310.412 35.617 C 310.845 36.225,311.200 36.887,311.200 37.086 C 311.200 37.286,311.515 37.798,311.900 38.225 C 312.285 38.651,312.869 39.540,313.197 40.200 C 313.526 40.860,314.111 41.691,314.497 42.047 C 314.884 42.403,315.200 42.988,315.200 43.347 C 315.200 43.706,315.380 44.000,315.600 44.000 C 315.820 44.000,316.000 44.360,316.000 44.800 C 316.000 45.240,316.180 45.600,316.400 45.600 C 316.620 45.600,316.800 45.878,316.800 46.217 C 316.800 46.556,317.160 47.220,317.600 47.692 C 318.040 48.164,318.400 48.787,318.400 49.075 C 318.400 49.364,318.580 49.600,318.800 49.600 C 319.020 49.600,319.200 49.971,319.200 50.424 C 319.200 50.877,319.380 51.136,319.600 51.000 C 319.827 50.860,320.000 51.196,320.000 51.776 C 320.000 52.339,320.180 52.800,320.400 52.800 C 320.620 52.800,320.800 53.160,320.800 53.600 C 320.800 54.040,320.980 54.400,321.200 54.400 C 321.420 54.400,321.600 54.760,321.600 55.200 C 321.600 55.640,321.746 56.000,321.925 56.000 C 322.104 56.000,322.498 56.630,322.800 57.400 C 323.102 58.170,323.496 58.800,323.675 58.800 C 323.854 58.800,324.000 59.160,324.000 59.600 C 324.000 60.040,324.180 60.400,324.400 60.400 C 324.620 60.400,324.800 60.940,324.800 61.600 C 324.800 62.260,325.010 62.800,325.267 62.800 C 325.523 62.800,325.613 62.921,325.465 63.068 C 325.318 63.216,325.475 63.761,325.815 64.279 C 326.155 64.798,326.334 65.383,326.213 65.579 C 326.092 65.775,326.276 66.219,326.622 66.565 C 326.968 66.911,327.199 67.510,327.136 67.897 C 327.072 68.284,327.169 68.838,327.352 69.130 C 327.819 69.874,327.767 75.010,327.280 76.316 C 327.057 76.912,326.740 77.760,326.574 78.200 C 326.408 78.640,326.305 79.145,326.344 79.321 C 326.382 79.498,326.139 79.918,325.803 80.254 C 325.468 80.590,325.275 80.997,325.375 81.159 C 325.475 81.322,325.207 81.707,324.779 82.015 C 324.350 82.324,324.000 82.812,324.000 83.099 C 324.000 83.778,320.578 87.200,319.899 87.200 C 319.612 87.200,319.117 87.560,318.800 88.000 C 318.483 88.440,317.903 88.800,317.512 88.800 C 317.120 88.800,316.800 88.980,316.800 89.200 C 316.800 89.420,316.260 89.600,315.600 89.600 C 314.940 89.600,314.400 89.780,314.400 90.000 C 314.400 90.220,313.781 90.400,313.024 90.400 C 312.267 90.400,311.536 90.580,311.400 90.800 C 311.088 91.306,306.400 91.331,306.400 90.827 C 306.400 90.621,305.824 90.470,305.121 90.490 C 304.418 90.510,303.773 90.318,303.688 90.063 C 303.603 89.808,303.008 89.600,302.367 89.600 C 301.725 89.600,301.200 89.420,301.200 89.200 C 301.200 88.980,300.880 88.800,300.488 88.800 C 300.097 88.800,299.517 88.440,299.200 88.000 C 298.883 87.560,298.388 87.200,298.101 87.200 C 297.422 87.200,294.000 83.778,294.000 83.099 C 294.000 82.812,293.640 82.317,293.200 82.000 C 292.760 81.683,292.400 81.103,292.400 80.712 C 292.400 80.320,292.243 80.000,292.050 80.000 C 291.757 80.000,291.298 78.698,290.994 77.000 C 290.955 76.780,290.791 76.298,290.630 75.930 C 289.980 74.441,291.248 64.400,292.086 64.400 C 292.259 64.400,292.400 64.040,292.400 63.600 C 292.400 63.160,292.580 62.800,292.800 62.800 C 293.020 62.800,293.200 62.260,293.200 61.600 C 293.200 60.940,293.380 60.400,293.600 60.400 C 293.820 60.400,294.000 60.040,294.000 59.600 C 294.000 59.160,294.135 58.799,294.300 58.797 C 294.665 58.793,295.600 56.851,295.600 56.097 C 295.600 55.787,295.799 55.676,296.063 55.839 C 296.380 56.035,296.455 55.854,296.300 55.263 C 296.148 54.681,296.258 54.400,296.637 54.400 C 296.947 54.400,297.200 54.040,297.200 53.600 C 297.200 53.160,297.380 52.800,297.600 52.800 C 297.820 52.800,298.000 52.440,298.000 52.000 C 298.000 51.560,298.180 51.200,298.400 51.200 C 298.620 51.200,298.800 50.840,298.800 50.400 C 298.800 49.960,298.980 49.600,299.200 49.600 C 299.420 49.600,299.600 49.364,299.600 49.075 C 299.600 48.787,299.960 48.164,300.400 47.692 C 300.840 47.220,301.200 46.556,301.200 46.217 C 301.200 45.878,301.380 45.600,301.600 45.600 C 301.820 45.600,302.000 45.240,302.000 44.800 C 302.000 44.360,302.180 44.000,302.400 44.000 C 302.620 44.000,302.800 43.706,302.800 43.347 C 302.800 42.988,303.116 42.403,303.503 42.047 C 303.889 41.691,304.474 40.860,304.802 40.200 C 305.130 39.540,305.498 38.910,305.619 38.800 C 306.095 38.367,308.172 34.582,308.089 34.300 C 308.040 34.135,308.180 34.000,308.400 34.000 C 308.620 34.000,308.821 33.685,308.846 33.300 C 308.891 32.633,308.902 32.633,309.076 33.300 C 309.176 33.685,309.455 34.000,309.696 34.000 M86.400 33.912 C 86.400 34.303,86.760 34.883,87.200 35.200 C 87.640 35.517,88.000 36.097,88.000 36.488 C 88.000 36.880,88.180 37.200,88.400 37.200 C 88.620 37.200,88.800 37.470,88.800 37.800 C 88.800 38.130,88.980 38.400,89.200 38.400 C 89.420 38.400,89.600 38.670,89.600 39.000 C 89.600 39.330,89.736 39.600,89.902 39.600 C 90.069 39.600,90.460 40.185,90.772 40.900 C 91.084 41.615,91.640 42.470,92.007 42.800 C 92.374 43.130,92.598 43.625,92.504 43.900 C 92.410 44.175,92.617 44.509,92.964 44.642 C 93.311 44.775,93.504 45.031,93.393 45.211 C 93.216 45.498,94.592 48.258,95.182 48.800 C 95.589 49.174,96.400 50.787,96.400 51.223 C 96.400 51.462,96.672 51.929,97.004 52.261 C 97.336 52.593,97.505 53.030,97.380 53.232 C 97.255 53.435,97.322 53.600,97.530 53.600 C 97.737 53.600,98.006 53.978,98.126 54.440 C 98.266 54.975,98.524 55.171,98.835 54.978 C 99.159 54.778,99.221 54.843,99.017 55.173 C 98.721 55.652,100.277 59.257,100.900 59.533 C 101.065 59.607,101.200 60.012,101.200 60.433 C 101.200 60.855,101.380 61.200,101.600 61.200 C 101.820 61.200,102.000 61.740,102.000 62.400 C 102.000 63.060,102.180 63.600,102.400 63.600 C 102.620 63.600,102.800 63.960,102.800 64.400 C 102.800 64.840,102.980 65.200,103.200 65.200 C 103.420 65.200,103.600 65.740,103.600 66.400 C 103.600 67.060,103.780 67.600,104.000 67.600 C 104.220 67.600,104.400 68.320,104.400 69.200 C 104.400 70.080,104.580 70.800,104.800 70.800 C 105.020 70.800,105.200 71.520,105.200 72.400 C 105.200 73.280,105.020 74.000,104.800 74.000 C 104.580 74.000,104.400 74.720,104.400 75.600 C 104.400 76.480,104.220 77.200,104.000 77.200 C 103.780 77.200,103.600 77.650,103.600 78.200 C 103.600 78.750,103.420 79.200,103.200 79.200 C 102.980 79.200,102.800 79.560,102.800 80.000 C 102.800 80.440,102.620 80.800,102.400 80.800 C 102.180 80.800,102.000 81.160,102.000 81.600 C 102.000 82.040,101.801 82.400,101.557 82.400 C 101.314 82.400,101.216 82.664,101.340 82.987 C 101.464 83.310,101.365 83.698,101.121 83.849 C 100.852 84.015,100.789 83.941,100.962 83.662 C 101.630 82.580,100.596 83.362,98.400 85.600 C 97.104 86.920,95.754 88.000,95.399 88.000 C 95.043 88.000,94.864 88.180,95.000 88.400 C 95.136 88.620,95.002 88.800,94.703 88.800 C 93.949 88.800,92.007 89.735,92.003 90.100 C 92.001 90.265,91.280 90.400,90.400 90.400 C 89.520 90.400,88.800 90.580,88.800 90.800 C 88.800 91.029,87.600 91.200,86.000 91.200 C 84.400 91.200,83.200 91.029,83.200 90.800 C 83.200 90.580,82.480 90.400,81.600 90.400 C 80.720 90.400,80.000 90.220,80.000 90.000 C 80.000 89.780,79.640 89.600,79.200 89.600 C 78.760 89.600,78.400 89.420,78.400 89.200 C 78.400 88.980,78.040 88.800,77.600 88.800 C 77.160 88.800,76.800 88.620,76.800 88.400 C 76.800 88.180,76.537 88.000,76.215 88.000 C 75.294 88.000,70.000 82.367,70.000 81.387 C 70.000 81.064,69.820 80.800,69.600 80.800 C 69.380 80.800,69.200 80.440,69.200 80.000 C 69.200 79.560,69.020 79.200,68.800 79.200 C 68.580 79.200,68.400 78.840,68.400 78.400 C 68.400 77.960,68.220 77.600,68.000 77.600 C 67.780 77.600,67.600 76.790,67.600 75.800 C 67.600 74.810,67.420 74.000,67.200 74.000 C 66.980 74.000,66.800 73.280,66.800 72.400 C 66.800 71.520,66.980 70.800,67.200 70.800 C 67.420 70.800,67.600 70.080,67.600 69.200 C 67.600 68.320,67.780 67.600,68.000 67.600 C 68.220 67.600,68.400 67.060,68.400 66.400 C 68.400 65.740,68.580 65.200,68.800 65.200 C 69.020 65.200,69.200 64.840,69.200 64.400 C 69.200 63.960,69.380 63.600,69.600 63.600 C 69.820 63.600,70.000 63.060,70.000 62.400 C 70.000 61.740,70.180 61.200,70.400 61.200 C 70.620 61.200,70.800 60.855,70.800 60.433 C 70.800 60.012,70.944 59.607,71.121 59.533 C 71.443 59.399,74.520 53.349,74.648 52.600 C 74.836 51.494,75.332 50.400,75.647 50.400 C 75.841 50.400,76.000 50.122,76.000 49.783 C 76.000 49.444,76.360 48.780,76.800 48.308 C 77.240 47.836,77.600 47.213,77.600 46.925 C 77.600 46.636,77.780 46.400,78.000 46.400 C 78.220 46.400,78.400 46.040,78.400 45.600 C 78.400 45.160,78.580 44.800,78.800 44.800 C 79.020 44.800,79.200 44.522,79.200 44.183 C 79.200 43.844,79.560 43.180,80.000 42.708 C 80.440 42.236,81.024 41.344,81.297 40.725 C 81.571 40.106,81.931 39.600,82.098 39.600 C 82.264 39.600,82.400 39.364,82.400 39.075 C 82.400 38.787,82.760 38.164,83.200 37.692 C 83.640 37.220,84.000 36.638,84.000 36.400 C 84.000 36.162,84.360 35.580,84.800 35.108 C 85.240 34.636,85.600 34.013,85.600 33.725 C 85.600 33.436,85.780 33.200,86.000 33.200 C 86.220 33.200,86.400 33.520,86.400 33.912 M174.224 104.924 C 172.876 105.751,171.600 107.140,171.600 107.782 C 171.600 108.122,171.420 108.400,171.200 108.400 C 170.936 108.400,170.800 122.200,170.800 149.000 L 170.800 189.600 141.800 189.600 L 112.800 189.600 112.800 155.600 C 112.800 133.200,112.664 121.600,112.400 121.600 C 112.180 121.600,112.000 121.317,112.000 120.971 C 112.000 120.226,111.003 119.131,110.648 119.486 C 110.511 119.622,110.400 119.498,110.400 119.211 C 110.400 118.385,109.118 117.627,107.700 117.613 C 106.985 117.606,106.400 117.420,106.400 117.200 C 106.400 116.939,99.267 116.800,85.800 116.800 C 72.333 116.800,65.200 116.939,65.200 117.200 C 65.200 117.420,64.647 117.600,63.971 117.600 C 62.695 117.600,61.430 118.473,61.919 119.017 C 62.074 119.188,61.990 119.208,61.732 119.060 C 61.127 118.714,60.000 119.843,60.000 120.795 C 60.000 121.201,59.797 121.601,59.549 121.684 C 58.890 121.903,58.906 121.069,58.851 156.700 L 58.800 189.600 43.000 189.600 C 32.733 189.600,27.200 189.740,27.200 190.000 C 27.200 190.220,26.480 190.400,25.600 190.400 C 24.720 190.400,24.000 190.580,24.000 190.800 C 24.000 191.020,23.595 191.203,23.100 191.206 C 21.594 191.216,15.200 193.862,15.200 194.475 C 15.200 194.654,14.930 194.800,14.600 194.800 C 14.270 194.800,14.000 194.980,14.000 195.200 C 14.000 195.420,13.842 195.600,13.649 195.600 C 13.457 195.600,12.534 196.320,11.600 197.200 C 10.666 198.080,9.743 198.800,9.551 198.800 C 9.358 198.800,9.200 199.070,9.200 199.400 C 9.200 199.730,9.020 200.000,8.800 200.000 C 8.580 200.000,8.400 200.180,8.400 200.400 C 8.400 200.619,7.680 201.541,6.800 202.448 C 5.920 203.355,5.200 204.345,5.200 204.648 C 5.200 204.952,5.020 205.200,4.800 205.200 C 4.580 205.200,4.400 205.560,4.400 206.000 C 4.400 206.440,4.220 206.800,4.000 206.800 C 3.780 206.800,3.600 207.280,3.600 207.867 C 3.600 208.453,3.483 208.816,3.339 208.673 C 3.007 208.340,2.000 210.257,2.000 211.222 C 2.000 211.624,1.820 212.064,1.600 212.200 C 1.380 212.336,1.200 212.851,1.200 213.344 C 1.200 213.837,0.975 214.465,0.700 214.740 C -0.032 215.472,-0.032 290.128,0.700 290.860 C 0.975 291.135,1.200 291.954,1.200 292.680 C 1.200 293.406,1.380 294.000,1.600 294.000 C 1.820 294.000,2.000 294.540,2.000 295.200 C 2.000 295.860,2.180 296.400,2.400 296.400 C 2.620 296.400,2.800 296.839,2.800 297.376 C 2.800 297.913,2.980 298.464,3.200 298.600 C 3.420 298.736,3.600 299.197,3.600 299.624 C 3.600 300.051,3.780 300.400,4.000 300.400 C 4.220 300.400,4.400 300.720,4.400 301.112 C 4.400 301.503,4.760 302.083,5.200 302.400 C 5.640 302.717,6.000 303.257,6.000 303.600 C 6.000 303.943,6.360 304.483,6.800 304.800 C 7.240 305.117,7.600 305.588,7.600 305.846 C 7.600 306.500,14.356 313.274,15.700 313.968 C 16.305 314.280,16.800 314.685,16.800 314.868 C 16.800 315.050,17.025 315.200,17.300 315.200 C 17.575 315.201,18.295 315.627,18.900 316.147 L 20.000 317.093 20.000 351.747 L 20.000 386.400 11.989 386.400 L 3.979 386.400 2.112 388.266 L 0.246 390.133 0.223 393.533 C 0.207 395.915,0.350 396.983,0.700 397.100 C 0.975 397.192,1.200 397.507,1.200 397.801 C 1.200 398.094,1.806 398.709,2.547 399.167 L 3.894 400.000 197.705 400.000 L 391.515 400.000 392.758 398.840 C 393.441 398.201,394.000 397.391,394.000 397.040 C 394.000 396.688,394.180 396.400,394.400 396.400 C 394.631 396.400,394.800 395.133,394.800 393.400 C 394.800 391.667,394.631 390.400,394.400 390.400 C 394.180 390.400,394.000 390.122,394.000 389.782 C 394.000 389.108,392.665 387.692,391.283 386.900 C 390.669 386.548,388.158 386.400,382.805 386.400 L 375.200 386.400 375.200 351.363 C 375.200 316.662,375.208 316.323,376.000 316.116 C 376.440 316.001,376.800 315.748,376.800 315.553 C 376.800 315.359,377.048 315.200,377.352 315.200 C 377.655 315.200,378.645 314.480,379.552 313.600 C 380.459 312.720,381.336 312.000,381.500 312.000 C 382.205 311.998,384.056 310.014,383.775 309.560 C 383.605 309.285,383.644 309.180,383.866 309.317 C 384.080 309.449,384.872 308.828,385.627 307.935 C 386.382 307.043,387.225 306.076,387.500 305.785 C 387.775 305.495,388.000 305.141,388.000 305.000 C 388.000 304.859,388.280 304.463,388.623 304.120 C 388.966 303.777,389.148 303.241,389.028 302.928 C 388.889 302.567,388.979 302.463,389.273 302.645 C 389.585 302.838,389.650 302.707,389.473 302.245 C 389.325 301.860,389.373 301.660,389.582 301.789 C 389.962 302.024,391.600 298.745,391.600 297.749 C 391.600 297.447,391.780 297.200,392.000 297.200 C 392.220 297.200,392.400 296.660,392.400 296.000 C 392.400 295.340,392.580 294.800,392.800 294.800 C 393.020 294.800,393.200 294.260,393.200 293.600 C 393.200 292.940,393.380 292.400,393.600 292.400 C 393.820 292.400,394.000 291.601,394.000 290.624 C 394.000 289.647,394.180 288.736,394.400 288.600 C 394.662 288.438,394.800 275.996,394.800 252.576 C 394.800 228.992,394.664 216.800,394.400 216.800 C 394.180 216.800,394.000 215.990,394.000 215.000 C 394.000 214.010,393.820 213.200,393.600 213.200 C 393.380 213.200,393.200 212.660,393.200 212.000 C 393.200 211.340,393.020 210.800,392.800 210.800 C 392.580 210.800,392.400 210.451,392.400 210.024 C 392.400 209.597,392.240 209.148,392.044 209.027 C 391.849 208.906,391.571 208.340,391.428 207.769 C 390.786 205.209,383.452 196.000,382.056 196.000 C 381.874 196.000,381.201 195.550,380.562 195.000 C 379.923 194.451,379.175 194.001,378.900 194.000 C 378.625 194.000,378.400 193.809,378.400 193.576 C 378.400 193.343,378.235 193.255,378.032 193.380 C 377.830 193.505,377.421 193.381,377.123 193.104 C 376.620 192.636,376.101 192.431,374.940 192.240 C 374.688 192.199,374.200 191.932,373.858 191.648 C 373.515 191.364,373.074 191.231,372.876 191.353 C 372.679 191.475,372.176 191.316,371.759 191.000 C 371.342 190.684,370.235 190.420,369.300 190.413 C 368.365 190.406,367.600 190.220,367.600 190.000 C 367.600 189.740,362.135 189.600,352.005 189.600 L 336.409 189.600 336.274 156.700 C 336.151 126.781,335.997 121.415,335.245 120.800 C 335.110 120.690,334.808 120.252,334.573 119.827 C 334.339 119.401,333.799 118.861,333.373 118.627 C 332.948 118.392,332.510 118.090,332.400 117.955 C 331.500 116.854,290.590 116.317,287.955 117.371 C 287.150 117.694,286.370 117.837,286.224 117.690 C 286.077 117.543,285.831 117.598,285.678 117.812 C 285.525 118.025,285.046 118.396,284.613 118.635 C 283.629 119.180,282.468 121.116,282.429 122.276 C 282.413 122.758,282.220 123.264,282.000 123.400 C 281.739 123.562,281.600 135.071,281.600 156.624 L 281.600 189.600 253.200 189.600 L 224.800 189.600 224.750 150.400 C 224.695 107.369,224.722 109.788,224.300 109.367 C 224.135 109.202,224.000 108.814,224.000 108.505 C 224.000 108.196,223.775 107.708,223.500 107.420 C 223.225 107.133,222.735 106.516,222.412 106.049 C 222.088 105.582,221.593 105.200,221.312 105.200 C 221.030 105.200,220.800 105.020,220.800 104.800 C 220.800 104.183,175.233 104.304,174.224 104.924 M209.600 154.000 L 209.600 189.600 197.200 189.600 L 184.800 189.600 184.800 154.000 L 184.800 118.400 197.200 118.400 L 209.600 118.400 209.600 154.000 M98.000 160.600 L 98.000 189.600 86.000 189.600 L 74.000 189.600 74.000 160.600 L 74.000 131.600 86.000 131.600 L 98.000 131.600 98.000 160.600 M321.600 160.600 L 321.600 189.600 309.000 189.600 L 296.400 189.600 296.400 160.600 L 296.400 131.600 309.000 131.600 L 321.600 131.600 321.600 160.600 M366.200 204.800 C 366.336 205.020,366.887 205.200,367.424 205.200 C 367.961 205.200,368.400 205.380,368.400 205.600 C 368.400 205.820,368.672 206.000,369.005 206.000 C 369.625 206.000,371.238 206.787,371.604 207.268 C 371.716 207.415,372.072 207.595,372.394 207.668 C 372.717 207.741,373.188 207.980,373.441 208.200 C 373.695 208.420,374.274 208.858,374.730 209.173 C 375.185 209.488,375.473 209.882,375.370 210.048 C 375.267 210.215,375.502 210.536,375.892 210.763 C 376.281 210.990,376.431 211.181,376.225 211.188 C 376.018 211.195,376.243 211.567,376.725 212.016 C 377.206 212.464,377.600 213.184,377.600 213.616 C 377.600 214.047,377.780 214.400,378.000 214.400 C 378.220 214.400,378.400 214.760,378.400 215.200 C 378.400 215.640,378.580 216.000,378.800 216.000 C 379.020 216.000,379.200 216.525,379.200 217.167 C 379.200 217.808,379.384 218.395,379.609 218.470 C 380.166 218.655,380.153 286.946,379.596 287.133 C 379.378 287.207,379.200 287.644,379.200 288.105 C 379.200 288.998,378.359 291.666,377.973 292.000 C 377.580 292.340,377.070 293.774,377.154 294.300 C 377.199 294.575,377.052 294.800,376.828 294.800 C 376.393 294.800,374.980 297.197,375.118 297.700 C 375.163 297.865,375.010 298.000,374.778 298.000 C 374.546 298.000,373.296 299.080,372.000 300.400 C 370.704 301.720,369.354 302.800,368.999 302.800 C 368.643 302.800,368.464 302.980,368.600 303.200 C 368.736 303.420,368.567 303.600,368.224 303.600 C 367.881 303.600,367.600 303.780,367.600 304.000 C 367.600 304.220,367.240 304.400,366.800 304.400 C 366.360 304.400,366.000 304.580,366.000 304.800 C 366.000 305.020,365.640 305.200,365.200 305.200 C 364.760 305.200,364.400 305.380,364.400 305.600 C 364.400 305.820,363.860 306.000,363.200 306.000 C 362.540 306.000,362.000 306.180,362.000 306.400 C 362.000 306.620,361.190 306.800,360.200 306.800 C 359.210 306.800,358.400 306.980,358.400 307.200 C 358.400 307.433,357.067 307.600,355.200 307.600 C 353.333 307.600,352.000 307.433,352.000 307.200 C 352.000 306.980,351.100 306.800,350.000 306.800 C 348.854 306.800,348.000 306.618,348.000 306.375 C 348.000 306.141,347.685 305.982,347.300 306.021 C 345.918 306.162,345.157 305.993,345.400 305.600 C 345.536 305.380,345.277 305.200,344.824 305.200 C 344.371 305.200,344.000 305.020,344.000 304.800 C 344.000 304.580,343.640 304.400,343.200 304.400 C 342.760 304.400,342.400 304.220,342.400 304.000 C 342.400 303.780,342.207 303.600,341.971 303.600 C 341.736 303.600,341.306 303.375,341.016 303.100 C 340.000 302.135,338.789 301.200,338.556 301.200 C 338.139 301.200,334.800 297.488,334.800 297.025 C 334.800 296.778,334.440 296.317,334.000 296.000 C 333.560 295.683,333.200 295.103,333.200 294.712 C 333.200 294.320,333.054 294.000,332.875 294.000 C 332.696 294.000,332.302 293.370,332.000 292.600 C 331.698 291.830,331.304 291.200,331.125 291.200 C 330.946 291.200,330.800 290.660,330.800 290.000 C 330.800 289.340,330.620 288.800,330.400 288.800 C 330.180 288.800,330.000 287.915,330.000 286.833 C 330.000 285.752,329.823 284.807,329.606 284.733 C 329.357 284.649,329.205 278.268,329.191 267.300 C 329.177 256.513,329.024 250.000,328.785 250.000 C 328.573 250.000,328.400 249.370,328.400 248.600 C 328.400 247.830,328.220 247.200,328.000 247.200 C 327.780 247.200,327.600 246.761,327.600 246.224 C 327.600 245.687,327.420 245.136,327.200 245.000 C 326.980 244.864,326.800 244.393,326.800 243.953 C 326.800 243.513,326.620 243.264,326.400 243.400 C 326.180 243.536,326.000 243.277,326.000 242.824 C 326.000 242.371,325.820 242.000,325.600 242.000 C 325.380 242.000,325.200 241.640,325.200 241.200 C 325.200 240.760,324.990 240.400,324.733 240.400 C 324.477 240.400,324.368 240.299,324.491 240.176 C 324.614 240.052,324.329 239.556,323.858 239.072 C 323.386 238.589,322.550 237.612,322.000 236.900 C 321.450 236.189,320.847 235.606,320.660 235.604 C 320.474 235.602,319.817 235.060,319.200 234.400 C 318.583 233.740,317.791 233.200,317.440 233.200 C 317.088 233.200,316.800 233.053,316.800 232.874 C 316.800 232.408,313.669 230.800,312.762 230.800 C 312.343 230.800,312.000 230.620,312.000 230.400 C 312.000 230.180,311.460 230.000,310.800 230.000 C 310.140 230.000,309.600 229.837,309.600 229.639 C 309.600 228.545,296.439 228.494,295.000 229.581 C 294.780 229.748,293.733 230.133,292.673 230.437 C 291.613 230.741,290.406 231.308,289.990 231.695 C 289.574 232.083,288.956 232.400,288.617 232.400 C 288.278 232.400,288.000 232.580,288.000 232.800 C 288.000 233.020,287.717 233.200,287.371 233.200 C 286.643 233.200,285.869 233.899,285.490 234.900 C 285.344 235.285,284.989 235.600,284.701 235.600 C 284.160 235.600,280.000 239.798,280.000 240.343 C 280.000 240.511,279.679 240.998,279.287 241.425 C 278.469 242.314,277.106 245.072,277.034 245.984 C 277.007 246.323,276.797 246.960,276.568 247.400 C 276.339 247.840,276.174 248.740,276.200 249.400 C 276.227 250.060,276.077 250.716,275.868 250.859 C 275.638 251.015,275.518 255.433,275.567 261.959 C 275.622 269.378,275.514 272.800,275.224 272.800 C 274.987 272.800,274.800 273.606,274.800 274.624 C 274.800 275.737,274.644 276.351,274.400 276.200 C 274.173 276.060,274.000 276.396,274.000 276.976 C 274.000 277.539,273.820 278.000,273.600 278.000 C 273.380 278.000,273.200 278.450,273.200 279.000 C 273.200 279.550,273.020 280.000,272.800 280.000 C 272.580 280.000,272.400 280.270,272.400 280.600 C 272.400 280.930,272.220 281.200,272.000 281.200 C 271.780 281.200,271.600 281.470,271.600 281.800 C 271.600 282.130,271.420 282.400,271.200 282.400 C 270.980 282.400,270.800 282.670,270.800 283.000 C 270.800 283.330,270.620 283.600,270.400 283.600 C 270.180 283.600,270.000 283.784,270.000 284.009 C 270.000 285.093,264.235 289.997,261.100 291.580 C 260.495 291.885,260.000 292.255,260.000 292.401 C 260.000 292.547,259.595 292.631,259.100 292.588 C 258.605 292.545,257.950 292.708,257.644 292.950 C 256.276 294.035,245.087 294.161,242.545 293.120 C 241.635 292.748,240.780 292.553,240.645 292.688 C 240.510 292.823,240.400 292.723,240.400 292.467 C 240.400 292.210,240.040 292.000,239.600 292.000 C 239.160 292.000,238.800 291.820,238.800 291.600 C 238.800 291.380,238.480 291.200,238.088 291.200 C 237.697 291.200,237.117 290.840,236.800 290.400 C 236.483 289.960,235.990 289.600,235.705 289.600 C 234.977 289.600,229.200 283.744,229.200 283.006 C 229.200 282.673,228.919 282.400,228.576 282.400 C 228.233 282.400,228.064 282.220,228.200 282.000 C 228.336 281.780,228.257 281.600,228.024 281.600 C 227.791 281.600,227.600 281.240,227.600 280.800 C 227.600 280.360,227.420 280.000,227.200 280.000 C 226.980 280.000,226.800 279.640,226.800 279.200 C 226.800 278.760,226.620 278.400,226.400 278.400 C 226.180 278.400,226.000 277.950,226.000 277.400 C 226.000 276.850,225.843 276.400,225.652 276.400 C 225.073 276.400,224.816 272.305,224.753 262.090 C 224.719 256.750,224.536 252.284,224.346 252.167 C 224.156 252.049,224.000 251.164,224.000 250.200 C 224.000 249.236,223.820 248.336,223.600 248.200 C 223.380 248.064,223.200 247.524,223.200 247.000 C 223.200 246.476,223.020 245.936,222.800 245.800 C 222.580 245.664,222.400 245.203,222.400 244.776 C 222.400 244.349,222.220 244.000,222.000 244.000 C 221.780 244.000,221.600 243.730,221.600 243.400 C 221.600 243.070,221.420 242.800,221.200 242.800 C 220.980 242.800,220.800 242.440,220.800 242.000 C 220.800 241.560,220.620 241.200,220.400 241.200 C 220.180 241.200,220.000 240.948,220.000 240.641 C 220.000 239.921,214.541 234.376,213.100 233.632 C 212.495 233.320,212.000 232.915,212.000 232.732 C 212.000 232.550,211.640 232.400,211.200 232.400 C 210.760 232.400,210.400 232.220,210.400 232.000 C 210.400 231.780,210.040 231.600,209.600 231.600 C 209.160 231.600,208.800 231.420,208.800 231.200 C 208.800 230.980,208.440 230.800,208.000 230.800 C 207.560 230.800,207.200 230.620,207.200 230.400 C 207.200 230.180,206.761 230.000,206.224 230.000 C 205.687 230.000,205.128 229.808,204.983 229.572 C 204.838 229.337,204.019 229.195,203.164 229.257 C 202.309 229.319,201.391 229.151,201.125 228.885 C 200.494 228.254,195.121 228.239,194.495 228.865 C 194.239 229.121,193.213 229.300,192.215 229.262 C 191.216 229.224,190.400 229.375,190.400 229.597 C 190.400 229.819,189.792 230.000,189.049 230.000 C 188.306 230.000,187.476 230.268,187.204 230.596 C 186.932 230.923,186.562 231.100,186.382 230.989 C 186.202 230.878,185.942 230.970,185.804 231.193 C 185.666 231.417,185.203 231.600,184.776 231.600 C 184.349 231.600,184.000 231.859,184.000 232.176 C 184.000 232.493,183.792 232.881,183.538 233.038 C 183.242 233.221,183.185 233.147,183.380 232.832 C 183.799 232.154,182.028 233.164,181.157 234.100 C 180.799 234.485,180.316 234.800,180.084 234.800 C 179.497 234.800,176.472 237.943,176.183 238.853 C 176.053 239.264,175.768 239.600,175.549 239.600 C 175.331 239.600,175.264 239.780,175.400 240.000 C 175.536 240.220,175.457 240.400,175.224 240.400 C 174.991 240.400,174.800 240.670,174.800 241.000 C 174.800 241.330,174.620 241.600,174.400 241.600 C 174.180 241.600,174.000 241.870,174.000 242.200 C 174.000 242.530,173.820 242.800,173.600 242.800 C 173.380 242.800,173.200 243.072,173.200 243.405 C 173.200 243.738,172.992 244.413,172.738 244.905 C 171.728 246.859,171.600 247.225,171.600 248.171 C 171.600 248.711,171.420 249.264,171.200 249.400 C 170.941 249.560,170.800 257.930,170.800 273.200 C 170.800 288.470,170.659 296.840,170.400 297.000 C 170.180 297.136,170.000 298.137,170.000 299.224 C 170.000 300.412,169.822 301.200,169.553 301.200 C 169.302 301.200,169.199 301.553,169.318 302.007 C 169.434 302.451,169.275 303.068,168.964 303.378 C 168.654 303.689,168.400 304.119,168.400 304.334 C 168.400 304.859,166.691 308.134,166.249 308.455 C 166.056 308.596,166.021 308.911,166.172 309.155 C 166.324 309.400,166.244 309.600,165.995 309.600 C 165.527 309.600,164.400 310.569,164.400 310.972 C 164.400 311.287,161.167 314.400,160.840 314.400 C 160.695 314.400,160.317 314.760,160.000 315.200 C 159.683 315.640,159.193 316.000,158.912 316.000 C 158.630 316.000,158.400 316.159,158.400 316.354 C 158.400 316.549,157.778 317.004,157.017 317.365 C 156.256 317.726,155.531 318.189,155.404 318.393 C 155.278 318.598,154.928 318.671,154.628 318.555 C 154.327 318.440,153.962 318.538,153.817 318.773 C 153.672 319.008,153.023 319.200,152.376 319.200 C 151.729 319.200,151.200 319.380,151.200 319.600 C 151.200 319.820,150.401 320.000,149.424 320.000 C 148.447 320.000,147.536 320.180,147.400 320.400 C 147.264 320.620,146.083 320.800,144.776 320.800 C 143.459 320.800,142.400 320.622,142.400 320.400 C 142.400 320.180,141.601 320.000,140.624 320.000 C 139.647 320.000,138.736 319.820,138.600 319.600 C 138.464 319.380,137.913 319.200,137.376 319.200 C 136.839 319.200,136.400 319.020,136.400 318.800 C 136.400 318.580,136.147 318.400,135.838 318.400 C 135.172 318.400,131.859 316.732,131.667 316.300 C 131.593 316.135,131.286 316.000,130.983 316.000 C 130.371 316.000,124.400 310.224,124.400 309.632 C 124.400 309.426,124.175 309.012,123.900 308.713 C 123.118 307.863,122.400 306.470,122.400 305.805 C 122.400 305.472,122.220 305.200,122.000 305.200 C 121.780 305.200,121.600 304.840,121.600 304.400 C 121.600 303.960,121.420 303.600,121.200 303.600 C 120.980 303.600,120.800 303.071,120.800 302.424 C 120.800 301.777,120.620 301.136,120.400 301.000 C 120.180 300.864,120.000 299.503,120.000 297.976 C 120.000 296.392,119.828 295.200,119.600 295.200 C 119.338 295.200,119.200 287.275,119.200 272.224 C 119.200 257.337,119.059 249.160,118.800 249.000 C 118.580 248.864,118.400 248.223,118.400 247.576 C 118.400 246.929,118.220 246.400,118.000 246.400 C 117.780 246.400,117.600 246.076,117.600 245.680 C 117.600 244.786,116.706 242.807,116.300 242.803 C 116.135 242.801,116.000 242.575,115.999 242.300 C 115.999 242.025,115.459 241.170,114.800 240.400 C 114.141 239.630,113.601 238.849,113.601 238.665 C 113.600 238.199,109.182 234.000,108.693 234.000 C 108.474 234.000,108.003 233.671,107.647 233.270 C 107.291 232.868,106.415 232.284,105.700 231.972 C 104.985 231.660,104.400 231.269,104.400 231.102 C 104.400 230.936,103.961 230.800,103.424 230.800 C 102.887 230.800,102.325 230.603,102.177 230.362 C 102.028 230.122,101.486 230.005,100.973 230.103 C 100.420 230.209,99.956 230.061,99.833 229.741 C 99.697 229.387,98.938 229.200,97.636 229.200 C 96.542 229.200,95.536 229.020,95.400 228.800 C 95.264 228.580,93.723 228.400,91.976 228.400 C 90.125 228.400,88.800 228.567,88.800 228.800 C 88.800 229.020,87.900 229.200,86.800 229.200 C 85.700 229.200,84.800 229.380,84.800 229.600 C 84.800 229.820,84.260 230.000,83.600 230.000 C 82.940 230.000,82.400 230.180,82.400 230.400 C 82.400 230.620,82.040 230.800,81.600 230.800 C 81.160 230.800,80.800 230.980,80.800 231.200 C 80.800 231.420,80.440 231.600,80.000 231.600 C 79.560 231.600,79.200 231.780,79.200 232.000 C 79.200 232.220,78.932 232.400,78.605 232.400 C 77.962 232.400,77.173 232.988,74.774 235.251 C 73.928 236.050,73.348 236.815,73.485 236.951 C 73.621 237.088,73.503 237.200,73.221 237.200 C 72.573 237.200,70.000 239.979,70.000 240.678 C 70.000 240.965,69.820 241.200,69.600 241.200 C 69.380 241.200,69.200 241.571,69.200 242.024 C 69.200 242.477,69.020 242.736,68.800 242.600 C 68.573 242.460,68.400 242.796,68.400 243.376 C 68.400 243.939,68.212 244.400,67.982 244.400 C 67.753 244.400,67.618 244.715,67.682 245.100 C 67.748 245.491,67.579 245.756,67.300 245.700 C 66.991 245.638,66.800 246.049,66.800 246.776 C 66.800 247.423,66.620 248.064,66.400 248.200 C 66.180 248.336,66.000 249.326,66.000 250.400 C 66.000 251.474,65.820 252.464,65.600 252.600 C 65.343 252.759,65.200 259.004,65.200 270.024 C 65.200 281.208,65.060 287.200,64.800 287.200 C 64.580 287.200,64.400 287.729,64.400 288.376 C 64.400 289.023,64.220 289.664,64.000 289.800 C 63.780 289.936,63.600 290.487,63.600 291.024 C 63.600 291.561,63.456 292.000,63.280 292.000 C 63.105 292.000,62.733 292.630,62.454 293.400 C 62.176 294.170,61.780 294.800,61.574 294.800 C 61.368 294.800,61.200 295.036,61.200 295.325 C 61.200 295.613,60.833 296.243,60.384 296.725 C 59.936 297.206,59.650 297.600,59.750 297.600 C 60.195 297.600,55.682 301.860,54.699 302.368 C 54.094 302.680,53.600 303.085,53.600 303.268 C 53.600 303.450,53.306 303.600,52.947 303.600 C 52.588 303.600,52.003 303.915,51.647 304.300 C 51.291 304.685,50.550 305.062,50.000 305.138 C 49.450 305.214,48.940 305.439,48.867 305.638 C 48.793 305.837,48.309 306.000,47.790 306.000 C 47.272 306.000,46.736 306.180,46.600 306.400 C 46.464 306.620,45.733 306.800,44.976 306.800 C 44.219 306.800,43.600 306.980,43.600 307.200 C 43.600 307.433,42.267 307.600,40.400 307.600 C 38.533 307.600,37.200 307.433,37.200 307.200 C 37.200 306.980,36.300 306.800,35.200 306.800 C 34.100 306.800,33.200 306.620,33.200 306.400 C 33.200 306.180,32.660 306.000,32.000 306.000 C 31.340 306.000,30.800 305.820,30.800 305.600 C 30.800 305.380,30.440 305.200,30.000 305.200 C 29.560 305.200,29.200 305.020,29.200 304.800 C 29.200 304.580,28.840 304.400,28.400 304.400 C 27.960 304.400,27.600 304.220,27.600 304.000 C 27.600 303.780,27.280 303.600,26.888 303.600 C 26.497 303.600,25.917 303.240,25.600 302.800 C 25.283 302.360,24.887 302.000,24.721 302.000 C 24.261 302.000,20.000 297.778,20.000 297.322 C 20.000 297.103,19.675 296.630,19.278 296.271 C 18.881 295.911,18.307 294.983,18.003 294.209 C 17.699 293.434,17.304 292.800,17.125 292.800 C 16.946 292.800,16.800 292.440,16.800 292.000 C 16.800 291.560,16.620 291.200,16.400 291.200 C 16.180 291.200,16.000 290.660,16.000 290.000 C 16.000 289.340,15.820 288.800,15.600 288.800 C 15.380 288.800,15.200 288.091,15.200 287.224 C 15.200 286.357,15.020 285.536,14.800 285.400 C 14.539 285.238,14.400 273.863,14.400 252.576 C 14.400 231.125,14.537 220.000,14.800 220.000 C 15.020 220.000,15.200 219.280,15.200 218.400 C 15.200 217.520,15.380 216.800,15.600 216.800 C 15.820 216.800,16.000 216.440,16.000 216.000 C 16.000 215.560,16.180 215.200,16.400 215.200 C 16.620 215.200,16.800 214.739,16.800 214.176 C 16.800 213.596,16.973 213.260,17.200 213.400 C 17.420 213.536,17.600 213.385,17.600 213.064 C 17.600 211.585,23.615 206.579,26.600 205.575 C 27.480 205.279,28.371 204.893,28.580 204.718 C 29.159 204.233,365.900 204.314,366.200 204.800 M380.700 267.300 C 380.639 275.495,380.590 268.790,380.590 252.400 C 380.590 236.010,380.639 229.305,380.700 237.500 C 380.760 245.695,380.760 259.105,380.700 267.300 M95.000 243.600 C 94.860 243.827,95.196 244.000,95.776 244.000 C 96.339 244.000,96.800 244.180,96.800 244.400 C 96.800 244.620,97.070 244.800,97.400 244.800 C 97.730 244.800,98.000 244.980,98.000 245.200 C 98.000 245.420,98.288 245.600,98.640 245.600 C 99.396 245.600,102.800 249.088,102.800 249.864 C 102.800 250.159,102.980 250.400,103.200 250.400 C 103.420 250.400,103.600 250.749,103.600 251.176 C 103.600 251.603,103.780 252.064,104.000 252.200 C 104.220 252.336,104.400 253.067,104.400 253.824 C 104.400 254.581,104.580 255.200,104.800 255.200 C 105.062 255.200,105.200 263.325,105.200 278.776 C 105.200 294.063,105.341 302.440,105.600 302.600 C 105.820 302.736,106.000 303.557,106.000 304.424 C 106.000 305.291,106.180 306.000,106.400 306.000 C 106.620 306.000,106.800 306.540,106.800 307.200 C 106.800 307.860,106.980 308.400,107.200 308.400 C 107.420 308.400,107.600 308.850,107.600 309.400 C 107.600 309.950,107.780 310.400,108.000 310.400 C 108.220 310.400,108.400 310.760,108.400 311.200 C 108.400 311.640,108.601 312.000,108.847 312.000 C 109.092 312.000,109.210 312.320,109.107 312.712 C 109.005 313.103,109.168 313.654,109.469 313.936 C 109.771 314.217,109.913 314.617,109.785 314.824 C 109.657 315.031,109.743 315.200,109.976 315.200 C 110.209 315.200,110.400 315.436,110.400 315.725 C 110.400 316.013,110.736 316.609,111.146 317.050 C 111.556 317.490,112.107 318.253,112.370 318.745 C 113.214 320.320,117.808 325.200,118.448 325.200 C 118.641 325.200,119.541 325.920,120.448 326.800 C 121.355 327.680,122.345 328.400,122.648 328.400 C 122.952 328.400,123.200 328.580,123.200 328.800 C 123.200 329.020,123.520 329.200,123.912 329.200 C 124.303 329.200,124.883 329.560,125.200 330.000 C 125.517 330.440,126.001 330.800,126.276 330.800 C 126.551 330.800,127.417 331.160,128.200 331.600 C 128.983 332.040,129.889 332.400,130.212 332.400 C 130.535 332.400,130.800 332.580,130.800 332.800 C 130.800 333.020,131.329 333.200,131.976 333.200 C 132.623 333.200,133.264 333.380,133.400 333.600 C 133.536 333.820,134.267 334.000,135.024 334.000 C 135.781 334.000,136.400 334.180,136.400 334.400 C 136.400 334.653,139.333 334.800,144.400 334.800 C 150.530 334.800,152.401 334.683,152.406 334.300 C 152.411 333.932,152.503 333.943,152.756 334.343 C 152.996 334.721,153.183 334.751,153.374 334.443 C 153.524 334.199,154.256 334.000,155.000 334.000 C 155.744 334.000,156.464 333.820,156.600 333.600 C 156.736 333.380,157.287 333.200,157.824 333.200 C 158.361 333.200,158.800 333.020,158.800 332.800 C 158.800 332.580,159.266 332.400,159.836 332.400 C 160.408 332.400,161.227 331.997,161.666 331.500 C 162.103 331.005,162.347 330.825,162.207 331.100 C 162.067 331.375,162.143 331.600,162.376 331.600 C 162.609 331.600,162.800 331.420,162.800 331.200 C 162.800 330.980,163.078 330.800,163.417 330.800 C 163.756 330.800,164.420 330.440,164.892 330.000 C 165.364 329.560,165.987 329.200,166.275 329.200 C 166.564 329.200,166.800 329.020,166.800 328.800 C 166.800 328.580,167.088 328.400,167.440 328.400 C 167.791 328.400,168.583 327.860,169.200 327.200 C 169.817 326.540,170.427 326.000,170.556 326.000 C 171.251 326.000,176.000 321.251,176.000 320.556 C 176.000 320.427,176.540 319.817,177.200 319.200 C 177.860 318.583,178.400 317.791,178.400 317.440 C 178.400 317.088,178.580 316.800,178.800 316.800 C 179.020 316.800,179.200 316.480,179.200 316.088 C 179.200 315.697,179.560 315.117,180.000 314.800 C 180.440 314.483,180.800 313.903,180.800 313.512 C 180.800 313.120,180.980 312.800,181.200 312.800 C 181.420 312.800,181.600 312.451,181.600 312.024 C 181.600 311.597,181.780 311.136,182.000 311.000 C 182.220 310.864,182.400 310.313,182.400 309.776 C 182.400 309.239,182.580 308.800,182.800 308.800 C 183.020 308.800,183.200 308.260,183.200 307.600 C 183.200 306.940,183.380 306.400,183.600 306.400 C 183.820 306.400,184.000 305.691,184.000 304.824 C 184.000 303.957,184.180 303.136,184.400 303.000 C 184.659 302.840,184.800 294.404,184.800 279.000 C 184.800 263.596,184.941 255.160,185.200 255.000 C 185.420 254.864,185.600 254.257,185.600 253.652 C 185.600 251.310,190.210 244.840,191.900 244.809 C 192.175 244.804,192.400 244.620,192.400 244.400 C 192.400 244.180,192.940 244.000,193.600 244.000 C 194.260 244.000,194.800 243.820,194.800 243.600 C 194.800 243.378,195.859 243.200,197.176 243.200 C 198.483 243.200,199.664 243.380,199.800 243.600 C 199.936 243.820,200.487 244.000,201.024 244.000 C 201.561 244.000,202.000 244.180,202.000 244.400 C 202.000 244.620,202.284 244.800,202.631 244.800 C 202.979 244.800,203.954 245.520,204.800 246.400 C 205.646 247.280,206.542 248.000,206.792 248.000 C 207.042 248.000,207.148 248.161,207.026 248.358 C 206.904 248.555,207.071 248.818,207.396 248.943 C 207.731 249.072,207.885 249.435,207.750 249.785 C 207.621 250.123,207.693 250.400,207.911 250.400 C 208.263 250.400,208.799 251.501,208.981 252.600 C 209.018 252.820,209.187 253.413,209.357 253.919 C 209.527 254.424,209.669 258.788,209.674 263.617 C 209.679 269.356,209.820 272.311,210.081 272.150 C 210.344 271.988,210.348 272.159,210.094 272.652 C 209.649 273.515,209.915 274.784,210.383 274.028 C 210.540 273.773,210.584 274.583,210.481 275.826 C 210.362 277.267,210.458 278.188,210.746 278.366 C 210.994 278.520,211.262 279.195,211.340 279.865 C 211.418 280.536,211.639 281.336,211.830 281.642 C 212.022 281.949,212.198 282.380,212.222 282.600 C 212.362 283.883,212.950 285.600,213.250 285.600 C 213.443 285.600,213.600 285.960,213.600 286.400 C 213.600 286.840,213.780 287.200,214.000 287.200 C 214.220 287.200,214.400 287.560,214.400 288.000 C 214.400 288.440,214.580 288.800,214.800 288.800 C 215.020 288.800,215.200 289.070,215.200 289.400 C 215.200 289.730,215.350 290.000,215.532 290.000 C 215.715 290.000,216.120 290.495,216.432 291.100 C 216.745 291.705,217.495 292.677,218.100 293.260 C 218.705 293.844,219.200 294.487,219.200 294.690 C 219.200 295.209,223.543 299.600,224.056 299.600 C 224.289 299.600,224.983 300.140,225.600 300.800 C 226.217 301.460,226.836 302.000,226.977 302.000 C 227.118 302.000,227.620 302.360,228.092 302.800 C 228.564 303.240,229.187 303.600,229.475 303.600 C 229.764 303.600,230.000 303.780,230.000 304.000 C 230.000 304.220,230.360 304.400,230.800 304.400 C 231.240 304.400,231.600 304.580,231.600 304.800 C 231.600 305.020,231.945 305.200,232.367 305.200 C 232.788 305.200,233.193 305.345,233.267 305.521 C 233.421 305.892,238.695 307.600,239.688 307.600 C 240.053 307.600,240.451 307.759,240.571 307.953 C 241.078 308.773,255.971 308.861,259.000 308.062 C 260.100 307.772,261.765 307.330,262.700 307.080 C 263.635 306.830,264.400 306.485,264.400 306.313 C 264.400 306.141,264.861 306.000,265.424 306.000 C 266.095 306.000,266.349 305.841,266.162 305.538 C 266.003 305.281,266.050 305.184,266.269 305.319 C 266.485 305.452,267.457 305.154,268.431 304.657 C 271.954 302.855,272.866 302.217,275.522 299.700 C 276.509 298.765,277.483 298.000,277.687 298.000 C 278.160 298.000,279.200 296.969,279.200 296.499 C 279.200 296.303,280.069 295.211,281.130 294.075 C 282.192 292.938,283.309 291.511,283.613 290.904 C 283.917 290.297,284.418 289.494,284.728 289.119 C 285.628 288.028,287.200 284.730,287.200 283.932 C 287.200 283.529,287.380 283.200,287.600 283.200 C 287.820 283.200,288.000 282.660,288.000 282.000 C 288.000 281.340,288.210 280.800,288.467 280.800 C 288.723 280.800,288.830 280.696,288.703 280.570 C 288.577 280.443,288.659 279.768,288.886 279.070 C 289.735 276.458,290.022 272.732,290.110 263.200 C 290.174 256.210,290.344 253.148,290.703 252.521 C 290.979 252.038,291.243 251.187,291.289 250.631 C 291.335 250.074,291.604 249.531,291.886 249.422 C 292.169 249.314,292.400 248.949,292.400 248.613 C 292.400 248.276,292.580 248.000,292.800 248.000 C 293.020 248.000,293.200 247.719,293.200 247.376 C 293.200 247.033,293.347 246.844,293.527 246.955 C 293.707 247.066,294.107 246.807,294.415 246.379 C 294.724 245.950,295.297 245.600,295.688 245.600 C 296.080 245.600,296.400 245.420,296.400 245.200 C 296.400 244.980,296.760 244.800,297.200 244.800 C 297.640 244.800,298.000 244.620,298.000 244.400 C 298.000 244.180,298.540 244.000,299.200 244.000 C 299.860 244.000,300.400 243.820,300.400 243.600 C 300.400 243.378,301.467 243.200,302.800 243.200 C 304.133 243.200,305.200 243.378,305.200 243.600 C 305.200 243.820,305.560 244.000,306.000 244.000 C 306.440 244.000,306.800 244.180,306.800 244.400 C 306.800 244.620,307.120 244.800,307.512 244.800 C 307.903 244.800,308.483 245.160,308.800 245.600 C 309.117 246.040,309.541 246.400,309.741 246.400 C 310.163 246.400,311.600 247.972,311.600 248.433 C 311.600 248.603,311.825 248.988,312.100 249.287 C 312.882 250.137,313.600 251.530,313.600 252.195 C 313.600 252.528,313.780 252.800,314.000 252.800 C 314.260 252.800,314.400 258.192,314.400 268.176 C 314.400 277.996,314.545 283.642,314.800 283.800 C 315.020 283.936,315.200 285.366,315.200 286.978 C 315.200 288.756,315.428 290.348,315.780 291.026 C 316.098 291.640,316.257 292.308,316.132 292.509 C 315.928 292.841,316.220 293.676,317.247 295.695 C 317.441 296.077,317.600 296.752,317.600 297.195 C 317.600 297.638,317.780 298.000,318.000 298.000 C 318.220 298.000,318.400 298.360,318.400 298.800 C 318.400 299.240,318.580 299.600,318.800 299.600 C 319.020 299.600,319.200 299.960,319.200 300.400 C 319.200 300.840,319.380 301.200,319.600 301.200 C 319.820 301.200,320.000 301.560,320.000 302.000 C 320.000 302.440,320.180 302.800,320.400 302.800 C 320.620 302.800,320.800 303.036,320.800 303.325 C 320.800 303.613,321.124 304.198,321.520 304.625 C 321.916 305.051,322.726 306.117,323.320 306.993 C 323.914 307.869,324.400 308.456,324.400 308.296 C 324.400 308.015,325.128 308.735,328.008 311.868 C 328.783 312.711,329.908 313.655,330.508 313.968 C 331.109 314.280,331.600 314.685,331.600 314.868 C 331.600 315.050,331.920 315.200,332.312 315.200 C 332.703 315.200,333.283 315.560,333.600 316.000 C 333.917 316.440,334.497 316.800,334.888 316.800 C 335.280 316.800,335.600 316.980,335.600 317.200 C 335.600 317.420,335.960 317.600,336.400 317.600 C 336.840 317.600,337.200 317.780,337.200 318.000 C 337.200 318.220,337.560 318.400,338.000 318.400 C 338.440 318.400,338.800 318.580,338.800 318.800 C 338.800 319.020,339.239 319.200,339.776 319.200 C 340.313 319.200,340.864 319.380,341.000 319.600 C 341.136 319.820,341.777 320.000,342.424 320.000 C 343.071 320.000,343.600 320.180,343.600 320.400 C 343.600 320.620,344.230 320.800,345.000 320.800 C 345.770 320.800,346.400 320.980,346.400 321.200 C 346.400 321.428,347.592 321.600,349.176 321.600 C 350.703 321.600,352.064 321.780,352.200 322.000 C 352.561 322.584,356.342 322.478,358.199 321.832 C 359.078 321.525,359.933 321.359,360.099 321.461 C 360.265 321.563,360.400 336.217,360.400 354.024 L 360.400 386.400 197.200 386.400 L 34.000 386.400 34.000 354.000 L 34.000 321.600 35.600 321.600 C 36.480 321.600,37.200 321.780,37.200 322.000 C 37.200 322.220,38.190 322.400,39.400 322.400 C 40.890 322.400,41.602 322.239,41.606 321.900 C 41.610 321.566,41.738 321.598,41.989 321.997 C 42.290 322.472,42.468 322.492,42.863 322.097 C 43.163 321.797,44.456 321.600,46.123 321.600 C 48.169 321.600,48.836 321.470,48.694 321.100 C 48.553 320.735,48.973 320.638,50.251 320.740 C 51.342 320.828,52.000 320.715,52.000 320.440 C 52.000 320.198,52.362 320.000,52.805 320.000 C 53.248 320.000,53.968 319.820,54.405 319.600 C 54.842 319.380,55.558 319.020,55.995 318.800 C 56.432 318.580,57.062 318.400,57.395 318.400 C 57.728 318.400,58.000 318.220,58.000 318.000 C 58.000 317.780,58.320 317.600,58.712 317.600 C 59.103 317.600,59.683 317.240,60.000 316.800 C 60.317 316.360,60.897 316.000,61.288 316.000 C 61.680 316.000,62.000 315.820,62.000 315.600 C 62.000 315.380,62.232 315.200,62.516 315.200 C 62.800 315.200,63.828 314.480,64.800 313.600 C 65.772 312.720,66.715 312.000,66.895 312.000 C 67.356 312.000,70.422 308.869,71.595 307.200 C 72.136 306.430,72.869 305.483,73.224 305.094 C 74.140 304.093,76.804 298.737,76.802 297.900 C 76.801 297.515,76.980 297.200,77.200 297.200 C 77.420 297.200,77.600 296.761,77.600 296.224 C 77.600 295.687,77.780 295.136,78.000 295.000 C 78.220 294.864,78.400 294.223,78.400 293.576 C 78.400 292.929,78.580 292.400,78.800 292.400 C 79.020 292.400,79.200 291.590,79.200 290.600 C 79.200 289.610,79.373 288.800,79.584 288.800 C 79.824 288.800,79.977 282.210,79.992 271.319 C 80.008 258.828,80.143 253.759,80.465 253.560 C 80.712 253.407,80.813 252.892,80.688 252.416 C 80.546 251.870,80.672 251.471,81.031 251.333 C 81.344 251.213,81.600 250.774,81.600 250.357 C 81.600 249.941,81.780 249.600,82.000 249.600 C 82.220 249.600,82.400 249.375,82.400 249.100 C 82.401 248.437,84.171 246.400,84.747 246.400 C 84.996 246.400,85.200 246.220,85.200 246.000 C 85.200 245.780,85.470 245.600,85.800 245.600 C 86.130 245.600,86.400 245.420,86.400 245.200 C 86.400 244.980,86.760 244.800,87.200 244.800 C 87.640 244.800,88.000 244.620,88.000 244.400 C 88.000 244.180,88.439 244.000,88.976 244.000 C 89.513 244.000,90.064 243.820,90.200 243.600 C 90.336 243.380,91.527 243.200,92.847 243.200 C 94.345 243.200,95.154 243.350,95.000 243.600 " stroke="none" fill="#74b404" fill-rule="evenodd"></path><path id="path1" d="M275.314 72.200 C 275.317 73.300,275.395 73.703,275.487 73.095 C 275.579 72.486,275.577 71.586,275.482 71.095 C 275.387 70.603,275.311 71.100,275.314 72.200 M380.590 252.400 C 380.590 268.790,380.639 275.495,380.700 267.300 C 380.760 259.105,380.760 245.695,380.700 237.500 C 380.639 229.305,380.590 236.010,380.590 252.400 M275.373 263.200 C 275.373 268.590,275.430 270.795,275.499 268.100 C 275.568 265.405,275.568 260.995,275.499 258.300 C 275.430 255.605,275.373 257.810,275.373 263.200 M290.163 262.000 C 290.163 265.630,290.223 267.115,290.298 265.300 C 290.372 263.485,290.372 260.515,290.298 258.700 C 290.223 256.885,290.163 258.370,290.163 262.000 " stroke="none" fill="#73b100" fill-rule="evenodd"></path><path id="path2" d="M275.314 72.200 C 275.317 73.300,275.395 73.703,275.487 73.095 C 275.579 72.486,275.577 71.586,275.482 71.095 C 275.387 70.603,275.311 71.100,275.314 72.200 M380.590 252.400 C 380.590 268.790,380.639 275.495,380.700 267.300 C 380.760 259.105,380.760 245.695,380.700 237.500 C 380.639 229.305,380.590 236.010,380.590 252.400 M275.373 263.200 C 275.373 268.590,275.430 270.795,275.499 268.100 C 275.568 265.405,275.568 260.995,275.499 258.300 C 275.430 255.605,275.373 257.810,275.373 263.200 M290.163 262.000 C 290.163 265.630,290.223 267.115,290.298 265.300 C 290.372 263.485,290.372 260.515,290.298 258.700 C 290.223 256.885,290.163 258.370,290.163 262.000 " stroke="none" fill="#73b100" fill-rule="evenodd"></path><path id="path3" d="M275.314 72.200 C 275.317 73.300,275.395 73.703,275.487 73.095 C 275.579 72.486,275.577 71.586,275.482 71.095 C 275.387 70.603,275.311 71.100,275.314 72.200 M380.590 252.400 C 380.590 268.790,380.639 275.495,380.700 267.300 C 380.760 259.105,380.760 245.695,380.700 237.500 C 380.639 229.305,380.590 236.010,380.590 252.400 M275.373 263.200 C 275.373 268.590,275.430 270.795,275.499 268.100 C 275.568 265.405,275.568 260.995,275.499 258.300 C 275.430 255.605,275.373 257.810,275.373 263.200 M290.163 262.000 C 290.163 265.630,290.223 267.115,290.298 265.300 C 290.372 263.485,290.372 260.515,290.298 258.700 C 290.223 256.885,290.163 258.370,290.163 262.000 " stroke="none" fill="#73b100" fill-rule="evenodd"></path><path id="path4" d="M275.314 72.200 C 275.317 73.300,275.395 73.703,275.487 73.095 C 275.579 72.486,275.577 71.586,275.482 71.095 C 275.387 70.603,275.311 71.100,275.314 72.200 M380.590 252.400 C 380.590 268.790,380.639 275.495,380.700 267.300 C 380.760 259.105,380.760 245.695,380.700 237.500 C 380.639 229.305,380.590 236.010,380.590 252.400 M275.373 263.200 C 275.373 268.590,275.430 270.795,275.499 268.100 C 275.568 265.405,275.568 260.995,275.499 258.300 C 275.430 255.605,275.373 257.810,275.373 263.200 M290.163 262.000 C 290.163 265.630,290.223 267.115,290.298 265.300 C 290.372 263.485,290.372 260.515,290.298 258.700 C 290.223 256.885,290.163 258.370,290.163 262.000 " stroke="none" fill="#73b100" fill-rule="evenodd"></path></g></svg>
