<svg xmlns="http://www.w3.org/2000/svg" width="57.868" height="60.566" viewBox="0 0 57.868 60.566">
  <g id="Grupo_89" data-name="Grupo 89" transform="translate(0 0)">
    <circle id="Elipse_7" data-name="Elipse 7" cx="28.934" cy="28.934" r="28.934" transform="translate(0 2.698)" fill="#c8ed84"/>
    <g id="information" transform="translate(11.009 0)">
      <g id="Grupo_87" data-name="Grupo 87">
        <g id="Grupo_86" data-name="Grupo 86">
          <ellipse id="Elipse_5" data-name="Elipse 5" cx="2.288" cy="2.288" rx="2.288" ry="2.288" transform="translate(21.142 32.353)" fill="#717171"/>
          <path id="Trazado_93" data-name="Trazado 93" d="M23.43,0a23.43,23.43,0,1,0,23.43,23.43A23.417,23.417,0,0,0,23.43,0Zm0,43.2A19.769,19.769,0,1,1,43.2,23.43,19.758,19.758,0,0,1,23.43,43.2Z" fill="#717171"/>
          <path id="Trazado_94" data-name="Trazado 94" d="M183.322,128.5A7.33,7.33,0,0,0,176,135.822a1.83,1.83,0,1,0,3.661,0,3.661,3.661,0,1,1,3.661,3.661,1.83,1.83,0,0,0-1.83,1.83v4.576a1.83,1.83,0,1,0,3.661,0v-2.977a7.322,7.322,0,0,0-1.83-14.412Z" transform="translate(-159.892 -116.739)" fill="#717171"/>
        </g>
      </g>
    </g>
  </g>
</svg>
