<svg id="svg" version="1.1" xmlns="http://www.w3.org/2000/svg" xmlns:xlink="http://www.w3.org/1999/xlink" width="400" height="400" viewBox="0, 0, 400,400"><g id="svgg"><path id="path0" d="M34.300 0.292 C 33.255 0.375,32.400 0.614,32.400 0.822 C 32.400 1.030,31.860 1.200,31.200 1.200 C 30.540 1.200,30.000 1.380,30.000 1.600 C 30.000 1.820,29.460 2.000,28.800 2.000 C 28.140 2.000,27.600 2.180,27.600 2.400 C 27.600 2.620,27.240 2.800,26.800 2.800 C 26.360 2.800,26.000 2.936,26.000 3.102 C 26.000 3.269,25.415 3.644,24.700 3.936 C 22.424 4.866,21.600 5.326,21.600 5.668 C 21.600 5.850,21.280 6.000,20.888 6.000 C 20.497 6.000,19.917 6.360,19.600 6.800 C 19.283 7.240,18.769 7.600,18.459 7.600 C 18.148 7.600,17.603 7.924,17.247 8.319 C 16.891 8.714,15.970 9.464,15.200 9.984 C 13.682 11.011,10.400 14.342,10.400 14.856 C 10.400 15.031,9.770 15.803,9.000 16.573 C 8.230 17.343,7.600 18.183,7.600 18.440 C 7.600 18.696,7.285 19.197,6.900 19.553 C 6.515 19.909,6.142 20.470,6.070 20.800 C 5.999 21.130,5.774 21.460,5.570 21.533 C 5.367 21.607,5.200 22.012,5.200 22.433 C 5.200 22.855,5.020 23.200,4.800 23.200 C 4.580 23.200,4.400 23.560,4.400 24.000 C 4.400 24.440,4.220 24.800,4.000 24.800 C 3.780 24.800,3.600 25.171,3.600 25.624 C 3.600 26.077,3.420 26.336,3.200 26.200 C 2.980 26.064,2.800 26.313,2.800 26.753 C 2.800 27.193,2.620 27.664,2.400 27.800 C 2.180 27.936,2.000 28.487,2.000 29.024 C 2.000 29.561,1.820 30.000,1.600 30.000 C 1.380 30.000,1.200 30.594,1.200 31.320 C 1.200 32.046,0.975 32.865,0.700 33.140 C -0.035 33.875,-0.035 310.925,0.700 311.660 C 0.975 311.935,1.200 312.664,1.200 313.280 C 1.200 313.896,1.380 314.400,1.600 314.400 C 1.820 314.400,2.000 314.940,2.000 315.600 C 2.000 316.260,2.180 316.800,2.400 316.800 C 2.620 316.800,2.800 317.160,2.800 317.600 C 2.800 318.040,2.980 318.400,3.200 318.400 C 3.420 318.400,3.600 318.760,3.600 319.200 C 3.600 319.640,3.780 320.000,4.000 320.000 C 4.220 320.000,4.400 320.360,4.400 320.800 C 4.400 321.240,4.580 321.600,4.800 321.600 C 5.020 321.600,5.200 321.960,5.200 322.400 C 5.200 322.840,5.380 323.200,5.600 323.200 C 5.820 323.200,6.000 323.430,6.000 323.712 C 6.000 323.993,6.360 324.483,6.800 324.800 C 7.240 325.117,7.600 325.631,7.600 325.941 C 7.600 326.252,7.988 326.842,8.461 327.253 C 8.935 327.664,9.230 328.000,9.117 328.000 C 8.836 328.000,11.068 330.632,12.925 332.490 C 13.764 333.329,14.619 333.912,14.825 333.784 C 15.031 333.657,15.200 333.761,15.200 334.016 C 15.200 334.624,17.425 336.691,18.420 337.006 C 18.849 337.143,19.200 337.422,19.200 337.627 C 19.200 337.832,19.470 338.000,19.800 338.000 C 20.130 338.000,20.760 338.360,21.200 338.800 C 21.640 339.240,22.270 339.600,22.600 339.600 C 22.930 339.600,23.200 339.780,23.200 340.000 C 23.200 340.220,23.560 340.400,24.000 340.400 C 24.440 340.400,24.800 340.569,24.800 340.775 C 24.800 340.982,25.610 341.272,26.600 341.421 C 27.590 341.569,28.400 341.850,28.400 342.045 C 28.400 342.240,28.749 342.400,29.176 342.400 C 29.603 342.400,30.064 342.580,30.200 342.800 C 30.336 343.020,31.067 343.200,31.824 343.200 C 32.581 343.200,33.200 343.380,33.200 343.600 C 33.200 343.820,34.100 344.000,35.200 344.000 C 36.300 344.000,37.200 344.180,37.200 344.400 C 37.200 344.665,56.276 344.800,93.629 344.800 C 152.843 344.800,151.200 344.755,151.200 346.388 C 151.200 346.633,151.560 347.220,152.000 347.692 C 152.440 348.164,152.800 348.787,152.800 349.075 C 152.800 349.364,152.958 349.600,153.151 349.600 C 153.345 349.600,153.727 350.140,154.000 350.800 C 154.273 351.460,154.756 352.000,155.072 352.000 C 155.388 352.000,155.536 352.180,155.400 352.400 C 155.264 352.620,155.343 352.800,155.576 352.800 C 155.809 352.800,156.000 353.043,156.000 353.341 C 156.000 353.638,156.540 354.446,157.200 355.137 C 157.860 355.828,158.402 356.529,158.403 356.696 C 158.405 356.863,158.997 357.630,159.718 358.400 C 160.439 359.170,161.468 360.430,162.004 361.200 C 163.152 362.847,173.118 372.800,173.620 372.800 C 173.809 372.800,174.377 373.209,174.882 373.710 C 175.387 374.210,176.520 375.153,177.400 375.805 C 178.280 376.458,179.291 377.308,179.647 377.696 C 180.003 378.083,180.516 378.400,180.786 378.400 C 181.057 378.400,181.783 378.940,182.400 379.600 C 183.017 380.260,183.769 380.800,184.072 380.800 C 184.375 380.800,184.883 381.160,185.200 381.600 C 185.517 382.040,186.097 382.400,186.488 382.400 C 186.880 382.400,187.200 382.580,187.200 382.800 C 187.200 383.020,187.436 383.200,187.725 383.200 C 188.013 383.200,188.636 383.560,189.108 384.000 C 189.580 384.440,190.162 384.800,190.400 384.800 C 190.638 384.800,191.220 385.160,191.692 385.600 C 192.164 386.040,192.787 386.400,193.075 386.400 C 193.364 386.400,193.600 386.580,193.600 386.800 C 193.600 387.020,193.945 387.200,194.367 387.200 C 194.788 387.200,195.193 387.344,195.267 387.519 C 195.493 388.062,202.114 391.117,203.700 391.411 C 204.525 391.564,205.200 391.849,205.200 392.045 C 205.200 392.240,205.560 392.400,206.000 392.400 C 206.440 392.400,206.800 392.580,206.800 392.800 C 206.800 393.020,207.340 393.200,208.000 393.200 C 208.660 393.200,209.200 393.380,209.200 393.600 C 209.200 393.820,209.639 394.000,210.176 394.000 C 210.713 394.000,211.264 394.180,211.400 394.400 C 211.536 394.620,212.087 394.800,212.624 394.800 C 213.161 394.800,213.600 394.980,213.600 395.200 C 213.600 395.420,214.140 395.600,214.800 395.600 C 215.460 395.600,216.000 395.780,216.000 396.000 C 216.000 396.220,216.720 396.400,217.600 396.400 C 218.480 396.400,219.200 396.580,219.200 396.800 C 219.200 397.020,219.920 397.200,220.800 397.200 C 221.680 397.200,222.400 397.380,222.400 397.600 C 222.400 397.820,223.120 398.000,224.000 398.000 C 224.880 398.000,225.600 398.180,225.600 398.400 C 225.600 398.620,226.464 398.800,227.520 398.800 C 228.576 398.800,229.665 399.025,229.940 399.300 C 230.326 399.686,234.743 399.800,249.287 399.800 C 264.008 399.800,268.170 399.691,268.300 399.300 C 268.406 398.982,269.256 398.800,270.633 398.800 C 271.825 398.800,272.800 398.620,272.800 398.400 C 272.800 398.180,273.340 398.000,274.000 398.000 C 274.690 398.000,275.203 397.788,275.206 397.500 C 275.210 397.167,275.342 397.200,275.600 397.600 C 275.858 398.000,275.990 398.033,275.994 397.700 C 275.998 397.384,276.590 397.200,277.600 397.200 C 278.480 397.200,279.200 397.020,279.200 396.800 C 279.200 396.580,279.819 396.400,280.576 396.400 C 281.333 396.400,282.064 396.220,282.200 396.000 C 282.336 395.780,282.977 395.600,283.624 395.600 C 284.271 395.600,284.800 395.420,284.800 395.200 C 284.800 394.980,285.325 394.800,285.967 394.800 C 286.608 394.800,287.193 394.625,287.267 394.412 C 287.340 394.198,287.800 393.963,288.290 393.889 C 288.779 393.815,289.304 393.629,289.456 393.477 C 289.609 393.325,290.063 393.200,290.467 393.200 C 290.870 393.200,291.200 393.020,291.200 392.800 C 291.200 392.580,291.650 392.400,292.200 392.400 C 292.750 392.400,293.200 392.243,293.200 392.050 C 293.200 391.858,293.785 391.565,294.500 391.399 C 295.215 391.233,295.980 391.052,296.200 390.996 C 297.321 390.711,305.419 386.582,306.000 385.999 C 306.110 385.889,306.740 385.530,307.400 385.202 C 308.060 384.874,308.891 384.289,309.247 383.903 C 309.603 383.516,310.188 383.200,310.547 383.200 C 310.906 383.200,311.200 383.020,311.200 382.800 C 311.200 382.580,311.436 382.400,311.725 382.400 C 312.013 382.400,312.636 382.040,313.108 381.600 C 313.580 381.160,314.127 380.800,314.324 380.800 C 314.521 380.800,315.246 380.260,315.937 379.600 C 316.628 378.940,317.484 378.400,317.839 378.400 C 318.259 378.400,318.402 378.182,318.247 377.779 C 318.104 377.406,318.175 377.261,318.426 377.416 C 318.655 377.558,319.148 377.341,319.521 376.934 C 319.895 376.527,320.698 375.939,321.308 375.626 C 322.102 375.217,322.272 374.966,321.908 374.734 C 321.561 374.514,321.676 374.410,322.271 374.406 C 322.750 374.403,323.473 373.979,323.879 373.464 C 324.284 372.948,325.047 372.296,325.575 372.013 C 326.744 371.388,336.400 361.706,336.400 361.159 C 336.400 360.945,337.166 360.012,338.102 359.085 C 339.039 358.158,340.254 356.726,340.802 355.903 C 341.351 355.079,341.935 354.404,342.100 354.403 C 342.265 354.401,342.400 354.209,342.400 353.976 C 342.400 353.743,342.175 353.671,341.900 353.817 C 341.625 353.962,341.985 353.543,342.700 352.887 C 343.415 352.231,344.000 351.493,344.000 351.247 C 344.000 351.001,344.180 350.800,344.400 350.800 C 344.620 350.800,344.800 350.612,344.800 350.383 C 344.800 350.154,345.160 349.580,345.600 349.108 C 346.040 348.636,346.400 348.013,346.400 347.725 C 346.400 347.436,346.580 347.200,346.800 347.200 C 347.020 347.200,347.200 346.880,347.200 346.488 C 347.200 346.097,347.560 345.517,348.000 345.200 C 348.440 344.883,348.800 344.303,348.800 343.912 C 348.800 343.520,348.980 343.200,349.200 343.200 C 349.420 343.200,349.600 342.840,349.600 342.400 C 349.600 341.960,349.752 341.600,349.937 341.600 C 350.123 341.600,350.708 340.745,351.237 339.700 C 351.767 338.655,352.336 337.740,352.502 337.666 C 352.669 337.592,352.716 337.387,352.607 337.211 C 352.498 337.035,352.677 336.668,353.004 336.396 C 353.332 336.124,353.600 335.575,353.600 335.175 C 353.600 334.775,353.780 334.336,354.000 334.200 C 354.220 334.064,354.400 333.603,354.400 333.176 C 354.400 332.749,354.580 332.400,354.800 332.400 C 355.020 332.400,355.200 332.040,355.200 331.600 C 355.200 331.160,355.347 330.800,355.528 330.800 C 355.708 330.800,356.100 329.900,356.400 328.800 C 356.700 327.700,357.072 326.800,357.228 326.800 C 357.455 326.800,358.015 324.855,358.169 323.533 C 358.186 323.387,358.335 323.132,358.500 322.967 C 358.665 322.802,358.800 322.257,358.800 321.757 C 358.800 321.257,358.952 320.753,359.139 320.638 C 359.325 320.523,359.494 319.841,359.515 319.122 C 359.535 318.404,359.743 317.752,359.976 317.675 C 360.209 317.597,360.400 317.008,360.400 316.367 C 360.400 315.725,360.580 315.200,360.800 315.200 C 361.020 315.200,361.200 314.491,361.200 313.624 C 361.200 312.757,361.380 311.936,361.600 311.800 C 361.820 311.664,362.000 310.753,362.000 309.776 C 362.000 308.799,362.180 308.000,362.400 308.000 C 362.620 308.000,362.800 307.010,362.800 305.800 C 362.800 304.590,362.960 303.600,363.156 303.600 C 363.352 303.600,363.531 302.396,363.553 300.924 C 363.575 299.452,363.774 298.066,363.996 297.844 C 364.546 297.294,364.549 273.200,364.000 273.200 C 363.767 273.200,363.600 271.867,363.600 270.000 C 363.600 268.133,363.433 266.800,363.200 266.800 C 362.980 266.800,362.800 265.911,362.800 264.824 C 362.800 263.737,362.620 262.736,362.400 262.600 C 362.180 262.464,362.000 261.643,362.000 260.776 C 362.000 259.909,361.820 259.200,361.600 259.200 C 361.380 259.200,361.200 258.480,361.200 257.600 C 361.200 256.720,361.020 256.000,360.800 256.000 C 360.580 256.000,360.400 255.280,360.400 254.400 C 360.400 253.520,360.220 252.800,360.000 252.800 C 359.780 252.800,359.600 252.260,359.600 251.600 C 359.600 250.940,359.440 250.400,359.244 250.400 C 358.931 250.400,358.543 248.870,358.305 246.700 C 358.263 246.315,358.120 246.000,357.987 246.000 C 357.854 246.000,357.500 245.100,357.200 244.000 C 356.900 242.900,356.540 242.000,356.400 242.000 C 356.260 242.000,355.900 241.100,355.600 240.000 C 355.300 238.900,354.908 238.000,354.728 238.000 C 354.547 238.000,354.400 237.640,354.400 237.200 C 354.400 236.760,354.220 236.400,354.000 236.400 C 353.780 236.400,353.600 236.040,353.600 235.600 C 353.600 235.160,353.420 234.800,353.200 234.800 C 352.980 234.800,352.800 234.440,352.800 234.000 C 352.800 233.560,352.620 233.200,352.400 233.200 C 352.180 233.200,352.000 232.840,352.000 232.400 C 352.000 231.960,351.820 231.600,351.600 231.600 C 351.380 231.600,351.200 231.240,351.200 230.800 C 351.200 230.360,351.041 230.000,350.847 230.000 C 350.652 230.000,350.387 229.685,350.258 229.300 C 349.816 227.989,348.513 226.021,348.256 226.277 C 348.115 226.418,348.000 226.143,348.000 225.667 C 348.000 225.190,347.850 224.800,347.668 224.800 C 347.485 224.800,347.080 224.305,346.768 223.700 C 346.455 223.095,345.885 222.251,345.500 221.825 C 345.115 221.398,344.800 220.853,344.800 220.613 C 344.800 220.373,344.440 219.917,344.000 219.600 C 343.560 219.283,343.200 218.769,343.200 218.459 C 343.200 218.148,342.884 217.603,342.497 217.247 C 342.111 216.891,341.546 216.115,341.242 215.523 C 340.938 214.931,340.008 213.716,339.176 212.823 C 338.344 211.930,337.769 211.200,337.898 211.200 C 338.028 211.200,334.747 207.861,330.607 203.780 C 325.882 199.122,322.871 196.441,322.519 196.576 C 322.211 196.694,322.056 196.633,322.176 196.439 C 322.434 196.022,320.053 193.600,319.383 193.600 C 319.128 193.600,318.354 193.060,317.663 192.400 C 316.972 191.740,316.175 191.200,315.892 191.200 C 315.609 191.200,315.117 190.840,314.800 190.400 C 314.483 189.960,313.783 189.600,313.245 189.600 C 312.707 189.600,312.378 189.489,312.514 189.352 C 312.832 189.035,311.808 188.000,311.175 188.000 C 310.911 188.000,310.403 187.671,310.047 187.270 C 309.691 186.868,308.815 186.284,308.100 185.972 C 307.385 185.660,306.800 185.269,306.800 185.102 C 306.800 184.936,306.440 184.800,306.000 184.800 C 305.560 184.800,305.200 184.620,305.200 184.400 C 305.200 184.180,304.930 184.000,304.600 184.000 C 304.270 184.000,304.000 183.801,304.000 183.557 C 304.000 183.314,303.730 183.218,303.400 183.345 C 303.070 183.471,302.800 183.405,302.800 183.197 C 302.800 182.990,301.945 182.438,300.900 181.972 C 299.855 181.505,298.477 180.871,297.839 180.562 C 297.200 180.253,296.435 180.000,296.139 180.000 C 295.842 180.000,295.600 179.820,295.600 179.600 C 295.600 179.380,295.364 179.200,295.075 179.200 C 294.609 179.200,292.037 178.127,290.400 177.249 C 290.070 177.072,289.403 176.958,288.917 176.996 C 288.431 177.033,287.937 176.813,287.819 176.507 C 287.702 176.200,287.430 176.058,287.215 176.191 C 286.999 176.324,286.323 176.187,285.712 175.887 C 285.100 175.587,284.285 175.413,283.900 175.500 C 283.515 175.587,283.200 175.465,283.200 175.229 C 283.200 174.993,282.660 174.800,282.000 174.800 C 281.340 174.800,280.800 174.620,280.800 174.400 C 280.800 174.180,280.080 174.000,279.200 174.000 C 278.320 174.000,277.600 173.820,277.600 173.600 C 277.600 173.380,276.880 173.200,276.000 173.200 C 275.120 173.200,274.400 173.020,274.400 172.800 C 274.400 172.580,274.130 172.400,273.800 172.400 C 273.271 172.400,273.200 167.803,273.200 133.423 L 273.200 94.446 272.304 92.923 C 271.258 91.145,266.584 86.349,266.237 86.696 C 266.107 86.827,266.000 86.715,266.000 86.448 C 266.000 85.817,264.158 83.975,263.842 84.291 C 263.709 84.424,263.600 84.306,263.600 84.027 C 263.600 83.749,263.060 83.017,262.400 82.400 C 261.740 81.783,261.200 81.170,261.200 81.036 C 261.200 80.569,258.699 78.201,258.322 78.310 C 258.112 78.370,258.044 78.252,258.171 78.047 C 258.298 77.842,255.521 74.772,252.001 71.226 C 248.480 67.679,245.600 64.674,245.600 64.547 C 245.600 63.953,233.738 52.000,233.149 52.000 C 232.884 52.000,232.768 51.899,232.892 51.775 C 233.199 51.468,228.135 45.912,219.400 36.974 C 216.980 34.497,213.684 31.018,212.077 29.243 C 210.469 27.468,208.939 26.057,208.677 26.108 C 208.414 26.159,208.253 25.885,208.318 25.500 C 208.391 25.060,208.181 24.800,207.751 24.800 C 207.375 24.800,207.168 24.698,207.293 24.574 C 207.502 24.364,203.491 20.075,194.538 10.938 C 192.524 8.882,190.952 7.200,191.044 7.200 C 191.136 7.200,189.636 5.625,187.711 3.700 L 184.211 0.200 110.206 0.170 C 69.503 0.154,35.345 0.208,34.300 0.292 M170.000 45.176 C 170.000 63.129,170.140 72.839,170.400 73.000 C 170.620 73.136,170.800 74.227,170.800 75.424 C 170.800 76.621,170.980 77.600,171.200 77.600 C 171.420 77.600,171.600 78.320,171.600 79.200 C 171.600 80.080,171.780 80.800,172.000 80.800 C 172.220 80.800,172.400 81.340,172.400 82.000 C 172.400 82.660,172.580 83.200,172.800 83.200 C 173.020 83.200,173.200 83.483,173.200 83.829 C 173.200 84.174,173.472 84.729,173.804 85.061 C 174.136 85.393,174.305 85.830,174.180 86.032 C 174.055 86.235,174.143 86.400,174.376 86.400 C 174.609 86.400,174.800 86.760,174.800 87.200 C 174.800 87.640,174.980 88.000,175.200 88.000 C 175.420 88.000,175.600 88.360,175.600 88.800 C 175.600 89.240,175.768 89.600,175.973 89.600 C 176.178 89.600,176.453 89.936,176.583 90.347 C 177.104 91.989,183.821 98.769,186.114 99.968 C 186.711 100.280,187.200 100.685,187.200 100.868 C 187.200 101.050,187.560 101.200,188.000 101.200 C 188.440 101.200,188.800 101.347,188.800 101.526 C 188.800 101.992,191.931 103.600,192.838 103.600 C 193.257 103.600,193.600 103.780,193.600 104.000 C 193.600 104.220,193.949 104.400,194.376 104.400 C 194.803 104.400,195.252 104.560,195.373 104.756 C 195.585 105.099,196.811 105.378,200.200 105.856 C 201.080 105.980,201.971 106.244,202.180 106.441 C 202.396 106.646,213.885 106.800,228.880 106.800 L 255.200 106.800 255.200 138.400 L 255.200 170.000 253.100 170.019 C 251.945 170.030,248.435 170.022,245.300 170.001 C 241.576 169.976,239.600 170.108,239.600 170.382 C 239.600 170.642,238.239 170.800,236.000 170.800 C 233.867 170.800,232.400 170.963,232.400 171.200 C 232.400 171.423,231.325 171.600,229.976 171.600 C 228.463 171.600,227.646 171.750,227.800 172.000 C 227.951 172.244,227.345 172.400,226.247 172.400 C 225.257 172.400,224.336 172.580,224.200 172.800 C 224.064 173.020,223.258 173.200,222.410 173.200 C 221.561 173.200,220.805 173.384,220.730 173.609 C 220.656 173.833,219.921 174.042,219.097 174.073 C 218.274 174.104,217.600 174.280,217.600 174.465 C 217.600 174.649,217.060 174.800,216.400 174.800 C 215.740 174.800,215.200 174.968,215.200 175.173 C 215.200 175.379,214.643 175.531,213.962 175.511 C 213.281 175.492,212.587 175.698,212.419 175.969 C 212.252 176.240,211.864 176.410,211.557 176.347 C 211.251 176.284,210.591 176.458,210.092 176.735 C 209.592 177.011,209.007 177.128,208.792 176.995 C 208.576 176.862,208.400 176.943,208.400 177.176 C 208.400 177.409,208.057 177.600,207.638 177.600 C 207.219 177.600,206.094 177.986,205.138 178.457 C 204.182 178.928,203.040 179.442,202.600 179.600 C 202.160 179.758,201.018 180.272,200.062 180.743 C 199.106 181.214,198.086 181.600,197.796 181.600 C 197.505 181.600,197.207 181.735,197.133 181.900 C 197.060 182.065,196.100 182.647,195.000 183.193 C 193.900 183.739,192.709 184.504,192.353 184.893 C 191.997 185.282,191.412 185.600,191.053 185.600 C 190.694 185.600,190.400 185.780,190.400 186.000 C 190.400 186.220,190.080 186.400,189.688 186.400 C 189.297 186.400,188.717 186.760,188.400 187.200 C 188.083 187.640,187.503 188.000,187.112 188.000 C 186.720 188.000,186.400 188.180,186.400 188.400 C 186.400 188.620,186.175 188.800,185.900 188.801 C 185.625 188.801,184.770 189.341,184.000 190.000 C 183.230 190.659,182.375 191.199,182.100 191.199 C 181.825 191.200,181.600 191.470,181.600 191.800 C 181.600 192.130,181.465 192.379,181.300 192.353 C 180.605 192.243,180.075 192.440,179.290 193.100 C 178.832 193.485,177.793 194.340,176.981 195.000 C 176.168 195.660,174.860 196.785,174.074 197.500 L 172.644 198.800 118.534 198.800 C 59.142 198.800,63.218 198.650,61.042 200.921 C 59.675 202.347,58.871 203.729,59.004 204.420 C 59.086 204.849,58.984 205.200,58.777 205.200 C 58.570 205.200,58.400 206.370,58.400 207.800 C 58.400 209.448,58.564 210.400,58.847 210.400 C 59.092 210.400,59.202 210.748,59.091 211.174 C 58.971 211.633,59.125 212.039,59.470 212.171 C 59.789 212.294,59.960 212.542,59.848 212.722 C 59.546 213.210,61.392 215.200,62.147 215.200 C 62.506 215.200,62.800 215.380,62.800 215.600 C 62.800 215.820,63.160 216.000,63.600 216.000 C 64.040 216.000,64.400 216.180,64.400 216.400 C 64.400 216.664,79.933 216.800,110.200 216.800 C 140.467 216.800,156.000 216.936,156.000 217.200 C 156.000 217.420,155.820 217.600,155.600 217.600 C 155.380 217.600,155.200 217.870,155.200 218.200 C 155.200 218.530,155.020 218.800,154.800 218.800 C 154.580 218.800,154.400 219.030,154.400 219.312 C 154.400 219.593,154.040 220.083,153.600 220.400 C 153.160 220.717,152.800 221.297,152.800 221.688 C 152.800 222.080,152.620 222.400,152.400 222.400 C 152.180 222.400,152.000 222.636,152.000 222.925 C 152.000 223.213,151.640 223.836,151.200 224.308 C 150.760 224.780,150.400 225.362,150.400 225.600 C 150.400 225.838,150.040 226.420,149.600 226.892 C 149.160 227.364,148.576 228.256,148.303 228.875 C 148.029 229.494,147.669 230.000,147.502 230.000 C 147.336 230.000,147.200 230.360,147.200 230.800 C 147.200 231.240,147.020 231.600,146.800 231.600 C 146.580 231.600,146.400 231.853,146.400 232.162 C 146.400 232.828,144.732 236.141,144.300 236.333 C 144.135 236.407,144.000 236.812,144.000 237.233 C 144.000 237.655,143.809 238.000,143.576 238.000 C 143.343 238.000,143.269 238.188,143.411 238.418 C 143.553 238.647,143.451 239.097,143.185 239.418 C 142.920 239.738,142.836 240.000,143.000 240.000 C 143.164 240.000,143.074 240.270,142.800 240.600 C 142.364 241.126,137.492 241.200,103.400 241.200 C 69.436 241.200,64.435 241.276,64.004 241.796 C 63.732 242.123,63.350 242.293,63.155 242.172 C 62.960 242.051,62.800 242.143,62.800 242.376 C 62.800 242.609,62.603 242.800,62.362 242.800 C 61.672 242.800,59.568 244.425,59.791 244.785 C 59.901 244.964,59.725 245.330,59.400 245.600 C 59.075 245.870,58.900 246.238,59.011 246.418 C 59.122 246.598,59.030 246.858,58.807 246.996 C 58.294 247.313,58.266 252.800,58.777 252.800 C 58.984 252.800,59.084 253.163,58.999 253.606 C 58.894 254.149,59.480 255.098,60.789 256.506 L 62.734 258.600 99.567 258.706 L 136.400 258.812 136.400 260.383 C 136.400 261.246,136.220 262.064,136.000 262.200 C 135.780 262.336,135.600 263.427,135.600 264.624 C 135.600 265.821,135.420 266.800,135.200 266.800 C 134.971 266.800,134.800 268.000,134.800 269.600 C 134.800 271.200,134.629 272.400,134.400 272.400 C 134.142 272.400,134.000 276.933,134.000 285.200 C 134.000 293.467,134.142 298.000,134.400 298.000 C 134.631 298.000,134.800 299.267,134.800 301.000 C 134.800 302.733,134.969 304.000,135.200 304.000 C 135.420 304.000,135.600 304.979,135.600 306.176 C 135.600 307.373,135.780 308.464,136.000 308.600 C 136.220 308.736,136.400 309.557,136.400 310.424 C 136.400 311.291,136.580 312.000,136.800 312.000 C 137.020 312.000,137.200 312.720,137.200 313.600 C 137.200 314.480,137.380 315.200,137.600 315.200 C 137.820 315.200,138.000 315.920,138.000 316.800 C 138.000 317.680,138.180 318.400,138.400 318.400 C 138.620 318.400,138.800 318.940,138.800 319.600 C 138.800 320.260,138.980 320.800,139.200 320.800 C 139.420 320.800,139.600 321.340,139.600 322.000 C 139.600 322.660,139.780 323.200,140.000 323.200 C 140.220 323.200,140.400 323.650,140.400 324.200 C 140.400 324.750,140.559 325.200,140.753 325.200 C 140.948 325.200,141.194 325.655,141.300 326.211 L 141.493 327.222 91.576 327.188 C 50.958 327.160,41.578 327.056,41.225 326.630 C 40.986 326.342,40.264 326.167,39.620 326.242 C 38.977 326.317,37.957 326.123,37.354 325.810 C 36.751 325.497,36.109 325.332,35.929 325.444 C 35.748 325.556,35.600 325.457,35.600 325.224 C 35.600 324.991,35.060 324.800,34.400 324.800 C 33.740 324.800,33.200 324.620,33.200 324.400 C 33.200 324.180,32.880 324.000,32.488 324.000 C 32.097 324.000,31.517 323.640,31.200 323.200 C 30.883 322.760,30.343 322.400,30.000 322.400 C 29.657 322.400,29.117 322.040,28.800 321.600 C 28.483 321.160,28.020 320.800,27.770 320.800 C 27.011 320.800,23.201 316.622,23.200 315.788 C 23.200 315.562,22.840 315.117,22.400 314.800 C 21.960 314.483,21.600 313.903,21.600 313.512 C 21.600 313.120,21.454 312.800,21.275 312.800 C 21.096 312.800,20.702 312.170,20.400 311.400 C 20.098 310.630,19.704 310.000,19.525 310.000 C 19.346 310.000,19.200 309.460,19.200 308.800 C 19.200 308.140,19.020 307.600,18.800 307.600 C 18.580 307.600,18.400 306.895,18.400 306.033 C 18.400 305.172,18.219 304.406,17.998 304.333 C 17.442 304.147,17.445 40.252,18.001 40.067 C 18.220 39.993,18.400 39.318,18.400 38.567 C 18.400 37.815,18.580 37.200,18.800 37.200 C 19.020 37.200,19.200 36.660,19.200 36.000 C 19.200 35.340,19.380 34.800,19.600 34.800 C 19.820 34.800,20.000 34.440,20.000 34.000 C 20.000 33.560,20.180 33.200,20.400 33.200 C 20.620 33.200,20.800 32.840,20.800 32.400 C 20.800 31.960,20.980 31.600,21.200 31.600 C 21.420 31.600,21.600 31.375,21.600 31.100 C 21.601 30.825,22.051 30.077,22.600 29.438 C 23.150 28.799,23.600 28.151,23.600 27.999 C 23.600 27.847,23.915 27.352,24.300 26.899 C 24.685 26.445,25.258 25.707,25.573 25.259 C 25.888 24.810,26.293 24.534,26.473 24.645 C 26.653 24.756,26.800 24.669,26.800 24.451 C 26.800 24.232,27.166 23.938,27.613 23.796 C 28.060 23.654,28.862 23.102,29.395 22.569 C 29.928 22.036,30.642 21.600,30.982 21.600 C 31.322 21.600,31.600 21.420,31.600 21.200 C 31.600 20.980,31.960 20.800,32.400 20.800 C 32.840 20.800,33.200 20.620,33.200 20.400 C 33.200 20.180,33.560 20.000,34.000 20.000 C 34.440 20.000,34.800 19.820,34.800 19.600 C 34.800 19.380,35.162 19.200,35.605 19.200 C 36.048 19.200,36.723 19.041,37.105 18.847 C 37.487 18.653,38.340 18.312,39.000 18.090 C 39.787 17.824,62.523 17.670,105.100 17.643 L 170.000 17.600 170.000 45.176 M191.228 34.500 C 192.315 35.655,194.598 38.092,196.302 39.917 C 202.433 46.480,207.181 51.200,207.653 51.200 C 207.917 51.200,208.024 51.309,207.891 51.442 C 207.758 51.576,208.043 52.091,208.524 52.587 C 209.006 53.084,209.667 53.878,209.993 54.352 C 210.320 54.826,210.824 55.123,211.114 55.012 C 211.404 54.900,211.538 54.977,211.412 55.181 C 211.134 55.631,212.555 57.234,219.600 64.416 C 222.570 67.444,226.080 71.126,227.400 72.598 C 228.720 74.071,232.635 78.146,236.100 81.654 C 239.565 85.163,242.400 88.206,242.400 88.417 C 242.400 88.952,206.131 88.935,205.800 88.400 C 205.664 88.180,204.753 88.000,203.776 88.000 C 202.799 88.000,202.000 87.820,202.000 87.600 C 202.000 87.380,201.640 87.200,201.200 87.200 C 200.760 87.200,200.400 87.020,200.400 86.800 C 200.400 86.580,200.040 86.400,199.600 86.400 C 199.160 86.400,198.800 86.220,198.800 86.000 C 198.800 85.780,198.528 85.600,198.196 85.600 C 197.864 85.600,197.031 85.064,196.345 84.408 C 195.659 83.752,194.963 83.299,194.798 83.401 C 194.633 83.503,194.020 82.866,193.437 81.984 C 192.854 81.103,192.110 80.071,191.785 79.691 C 191.460 79.311,191.193 78.866,191.192 78.703 C 191.190 78.540,190.832 77.769,190.395 76.991 C 189.958 76.212,189.600 75.236,189.600 74.821 C 189.600 74.406,189.434 74.007,189.232 73.933 C 188.684 73.735,188.479 32.400,189.026 32.400 C 189.150 32.400,190.141 33.345,191.228 34.500 M64.800 157.200 C 64.800 157.420,64.350 157.600,63.800 157.600 C 63.250 157.600,62.800 157.780,62.800 158.000 C 62.800 158.220,62.429 158.400,61.976 158.400 C 61.523 158.400,61.264 158.580,61.400 158.800 C 61.536 159.020,61.386 159.200,61.066 159.200 C 60.526 159.200,59.909 160.125,60.111 160.632 C 60.160 160.756,59.881 161.035,59.492 161.253 C 59.102 161.471,58.880 161.806,58.998 161.997 C 59.116 162.188,59.030 162.458,58.807 162.596 C 58.261 162.933,58.271 168.800,58.818 168.800 C 59.047 168.800,59.206 169.025,59.170 169.300 C 59.040 170.299,59.220 170.713,60.300 171.913 C 63.136 175.064,58.550 174.797,109.900 174.799 C 140.101 174.799,155.600 174.664,155.600 174.400 C 155.600 174.180,155.847 174.000,156.150 174.000 C 156.959 174.000,159.600 171.453,159.600 170.672 C 159.600 170.302,159.780 170.000,160.000 170.000 C 160.596 170.000,160.509 162.578,159.900 161.519 C 158.922 159.817,156.260 157.600,155.195 157.600 C 154.758 157.600,154.400 157.420,154.400 157.200 C 154.400 156.936,139.200 156.800,109.600 156.800 C 80.000 156.800,64.800 156.936,64.800 157.200 M255.158 188.680 C 257.886 188.723,260.406 188.888,260.758 189.045 C 261.111 189.202,262.480 189.474,263.800 189.649 C 267.270 190.110,270.367 190.665,272.200 191.154 C 273.080 191.389,274.349 191.585,275.020 191.590 C 276.323 191.601,278.392 192.403,278.397 192.900 C 278.399 193.065,278.940 193.200,279.600 193.200 C 280.260 193.200,280.800 193.380,280.800 193.600 C 280.800 193.820,281.340 194.000,282.000 194.000 C 282.660 194.000,283.200 194.180,283.200 194.400 C 283.200 194.620,283.560 194.800,284.000 194.800 C 284.440 194.800,284.800 194.980,284.800 195.200 C 284.800 195.420,285.340 195.600,286.000 195.600 C 286.660 195.600,287.200 195.780,287.200 196.000 C 287.200 196.220,287.560 196.400,288.000 196.400 C 288.440 196.400,288.800 196.580,288.800 196.800 C 288.800 197.020,289.160 197.200,289.600 197.200 C 290.040 197.200,290.400 197.380,290.400 197.600 C 290.400 197.820,290.760 198.000,291.200 198.000 C 291.640 198.000,292.001 198.135,292.001 198.300 C 292.002 198.465,292.992 199.050,294.200 199.600 C 295.408 200.150,296.398 200.735,296.399 200.900 C 296.399 201.065,296.678 201.200,297.017 201.200 C 297.356 201.200,298.020 201.560,298.492 202.000 C 298.964 202.440,299.587 202.800,299.875 202.800 C 300.164 202.800,300.400 202.980,300.400 203.200 C 300.400 203.420,300.636 203.600,300.925 203.600 C 301.213 203.600,301.836 203.960,302.308 204.400 C 302.780 204.840,303.309 205.202,303.483 205.205 C 303.657 205.208,304.250 205.569,304.800 206.008 C 306.516 207.375,308.869 208.836,308.566 208.345 C 308.385 208.052,308.450 207.983,308.738 208.162 C 308.992 208.319,309.200 208.707,309.200 209.024 C 309.200 209.341,309.381 209.600,309.603 209.600 C 309.824 209.600,311.275 210.860,312.828 212.400 C 314.380 213.940,315.722 215.200,315.809 215.200 C 315.896 215.200,316.830 216.132,317.884 217.271 C 318.938 218.410,320.925 220.477,322.300 221.864 C 323.675 223.251,324.800 224.491,324.800 224.621 C 324.800 225.113,325.918 225.950,326.216 225.681 C 326.387 225.526,326.420 225.700,326.289 226.067 C 326.150 226.457,326.289 226.825,326.625 226.954 C 326.941 227.076,327.200 227.442,327.200 227.769 C 327.200 228.096,327.650 228.814,328.200 229.364 C 328.750 229.914,329.200 230.599,329.200 230.886 C 329.200 231.173,329.560 231.632,330.000 231.907 C 330.440 232.182,330.800 232.726,330.800 233.115 C 330.800 233.505,331.160 234.083,331.600 234.400 C 332.040 234.717,332.400 235.297,332.400 235.688 C 332.400 236.080,332.580 236.400,332.800 236.400 C 333.020 236.400,333.200 236.760,333.200 237.200 C 333.200 237.640,333.380 238.000,333.600 238.000 C 333.820 238.000,334.000 238.270,334.000 238.600 C 334.000 238.930,334.136 239.200,334.302 239.200 C 334.469 239.200,334.857 239.785,335.165 240.500 C 335.473 241.215,336.057 242.278,336.463 242.862 C 336.868 243.446,337.200 244.301,337.200 244.762 C 337.200 245.223,337.380 245.600,337.600 245.600 C 337.820 245.600,338.000 245.960,338.000 246.400 C 338.000 246.840,338.180 247.200,338.400 247.200 C 338.620 247.200,338.800 247.560,338.800 248.000 C 338.800 248.440,338.980 248.800,339.200 248.800 C 339.420 248.800,339.600 249.340,339.600 250.000 C 339.600 250.660,339.780 251.200,340.000 251.200 C 340.220 251.200,340.400 251.560,340.400 252.000 C 340.400 252.440,340.580 252.800,340.800 252.800 C 341.020 252.800,341.203 253.205,341.206 253.700 C 341.213 254.676,342.082 257.415,342.526 257.859 C 342.677 258.010,342.800 258.633,342.800 259.243 C 342.800 259.853,342.971 260.458,343.180 260.587 C 343.388 260.716,343.492 261.355,343.409 262.006 C 343.327 262.657,343.426 263.293,343.630 263.418 C 343.833 263.544,344.000 264.321,344.000 265.144 C 344.000 265.967,344.163 266.811,344.361 267.020 C 344.727 267.405,344.905 268.519,345.632 275.000 C 346.217 280.207,346.528 292.000,346.081 292.000 C 345.876 292.000,345.674 293.569,345.632 295.486 C 345.590 297.403,345.404 299.158,345.219 299.386 C 345.034 299.614,344.790 300.700,344.676 301.800 C 344.340 305.064,343.925 307.387,343.640 307.600 C 343.493 307.710,343.386 308.160,343.402 308.600 C 343.419 309.040,343.212 309.780,342.943 310.244 C 342.674 310.709,342.507 311.429,342.571 311.844 C 342.634 312.260,342.538 312.697,342.356 312.816 C 342.174 312.934,341.982 313.597,341.930 314.288 C 341.877 314.979,341.691 315.456,341.517 315.349 C 341.343 315.241,341.200 315.703,341.200 316.376 C 341.200 317.049,341.020 317.600,340.800 317.600 C 340.580 317.600,340.400 318.140,340.400 318.800 C 340.400 319.460,340.220 320.000,340.000 320.000 C 339.780 320.000,339.600 320.439,339.600 320.976 C 339.600 321.513,339.420 322.064,339.200 322.200 C 338.980 322.336,338.800 322.797,338.800 323.224 C 338.800 323.651,338.620 324.000,338.400 324.000 C 338.180 324.000,338.000 324.360,338.000 324.800 C 338.000 325.240,337.865 325.601,337.700 325.601 C 337.535 325.602,336.950 326.592,336.400 327.800 C 335.850 329.008,335.265 329.998,335.100 329.999 C 334.935 329.999,334.800 330.360,334.800 330.800 C 334.800 331.240,334.620 331.600,334.400 331.600 C 334.180 331.600,334.000 331.960,334.000 332.400 C 334.000 332.840,333.805 333.200,333.567 333.200 C 333.328 333.200,333.206 333.418,333.295 333.685 C 333.384 333.952,333.039 334.558,332.528 335.031 C 332.018 335.505,331.600 336.104,331.600 336.363 C 331.600 336.622,331.240 337.220,330.800 337.692 C 330.360 338.164,330.000 338.787,330.000 339.075 C 330.000 339.364,329.850 339.600,329.668 339.600 C 329.485 339.600,329.081 340.095,328.770 340.700 C 328.460 341.305,327.862 342.115,327.442 342.500 C 327.021 342.885,326.808 343.200,326.967 343.200 C 327.127 343.200,326.973 343.485,326.625 343.832 C 326.277 344.180,326.112 344.658,326.258 344.894 C 326.404 345.130,326.343 345.212,326.122 345.075 C 325.700 344.815,324.000 346.520,324.000 347.203 C 324.000 347.421,323.820 347.600,323.600 347.600 C 323.380 347.600,323.200 347.779,323.200 347.998 C 323.200 348.216,320.462 351.141,317.115 354.498 C 313.768 357.854,311.191 360.340,311.387 360.021 C 311.584 359.703,311.161 359.858,310.448 360.366 C 309.734 360.874,308.939 361.629,308.679 362.045 C 308.420 362.460,307.880 362.800,307.480 362.800 C 307.080 362.800,306.864 362.980,307.000 363.200 C 307.136 363.420,306.967 363.600,306.624 363.600 C 306.281 363.600,306.000 363.750,306.000 363.932 C 306.000 364.115,305.505 364.520,304.900 364.832 C 304.295 365.145,303.383 365.808,302.874 366.308 C 302.365 366.807,301.780 367.111,301.574 366.984 C 301.368 366.857,301.200 366.913,301.200 367.109 C 301.200 367.305,300.705 367.720,300.100 368.032 C 299.495 368.344,298.910 368.691,298.800 368.805 C 298.690 368.918,297.745 369.442,296.700 369.968 C 295.655 370.495,294.800 371.044,294.800 371.188 C 294.800 371.333,294.170 371.698,293.400 372.000 C 292.630 372.302,292.000 372.696,292.000 372.875 C 292.000 373.054,291.651 373.200,291.224 373.200 C 290.797 373.200,290.336 373.380,290.200 373.600 C 290.064 373.820,289.513 374.000,288.976 374.000 C 288.439 374.000,288.000 374.180,288.000 374.400 C 288.000 374.620,287.640 374.800,287.200 374.800 C 286.760 374.800,286.400 374.980,286.400 375.200 C 286.400 375.420,286.265 375.564,286.100 375.521 C 285.754 375.429,284.327 375.867,282.600 376.594 C 281.940 376.872,280.605 377.318,279.634 377.586 C 278.332 377.944,278.017 378.167,278.434 378.435 C 278.803 378.672,278.547 378.712,277.701 378.550 C 276.871 378.390,276.169 378.494,275.756 378.836 C 275.401 379.131,274.524 379.322,273.808 379.260 C 272.975 379.188,272.428 379.350,272.290 379.710 C 272.148 380.079,271.666 380.212,270.884 380.098 C 270.230 380.002,269.573 380.120,269.424 380.362 C 269.275 380.603,268.389 380.800,267.456 380.800 C 266.523 380.800,265.589 380.967,265.380 381.172 C 265.171 381.376,263.830 381.583,262.400 381.631 C 260.970 381.679,259.589 381.882,259.331 382.082 C 258.655 382.607,239.189 382.549,238.661 382.021 C 238.429 381.789,237.106 381.600,235.720 381.600 C 234.307 381.600,233.200 381.424,233.200 381.200 C 233.200 380.980,232.300 380.800,231.200 380.800 C 230.100 380.800,229.200 380.620,229.200 380.400 C 229.200 380.180,228.491 380.000,227.624 380.000 C 226.757 380.000,225.936 379.820,225.800 379.600 C 225.664 379.380,225.171 379.200,224.705 379.200 C 223.846 379.200,221.511 378.552,220.387 378.002 C 220.050 377.837,219.150 377.575,218.387 377.421 C 217.019 377.144,214.880 376.336,213.484 375.567 C 213.090 375.350,212.595 375.280,212.384 375.410 C 212.173 375.540,212.000 375.457,212.000 375.224 C 212.000 374.991,211.640 374.800,211.200 374.800 C 210.760 374.800,210.400 374.620,210.400 374.400 C 210.400 374.180,209.950 374.000,209.400 374.000 C 208.850 374.000,208.400 373.820,208.400 373.600 C 208.400 373.380,208.040 373.200,207.600 373.200 C 207.160 373.200,206.800 373.020,206.800 372.800 C 206.800 372.580,206.440 372.400,206.000 372.400 C 205.560 372.400,205.200 372.220,205.200 372.000 C 205.200 371.780,204.840 371.600,204.400 371.600 C 203.960 371.600,203.600 371.420,203.600 371.200 C 203.600 370.980,203.330 370.800,203.000 370.800 C 202.670 370.800,202.400 370.620,202.400 370.400 C 202.400 370.180,202.130 370.000,201.800 370.000 C 201.470 370.000,201.200 369.820,201.200 369.600 C 201.200 369.380,200.840 369.200,200.400 369.200 C 199.960 369.200,199.600 369.041,199.600 368.847 C 199.600 368.503,198.104 367.870,197.500 367.957 C 197.335 367.981,197.200 367.730,197.200 367.400 C 197.200 367.070,196.880 366.800,196.488 366.800 C 196.097 366.800,195.517 366.440,195.200 366.000 C 194.883 365.560,194.396 365.200,194.119 365.200 C 193.841 365.200,193.116 364.757,192.507 364.216 C 189.738 361.754,187.043 359.623,186.891 359.776 C 186.674 359.993,174.800 348.085,174.800 347.650 C 174.800 347.468,174.260 346.754,173.600 346.063 C 172.940 345.372,172.400 344.626,172.400 344.404 C 172.400 344.182,172.220 344.000,172.000 344.000 C 171.780 344.000,171.600 343.812,171.600 343.582 C 171.600 343.352,171.164 342.728,170.631 342.195 C 170.098 341.662,169.546 340.860,169.404 340.413 C 169.262 339.966,169.000 339.600,168.822 339.600 C 168.643 339.600,168.273 339.060,168.000 338.400 C 167.727 337.740,167.345 337.200,167.151 337.200 C 166.958 337.200,166.800 336.964,166.800 336.675 C 166.800 336.387,166.440 335.764,166.000 335.292 C 165.560 334.820,165.200 334.156,165.200 333.817 C 165.200 333.478,165.020 333.200,164.800 333.200 C 164.580 333.200,164.400 332.840,164.400 332.400 C 164.400 331.960,164.254 331.600,164.075 331.600 C 163.896 331.600,163.502 330.970,163.200 330.200 C 162.898 329.430,162.504 328.800,162.325 328.800 C 162.146 328.800,162.000 328.440,162.000 328.000 C 162.000 327.560,161.820 327.200,161.600 327.200 C 161.380 327.200,161.200 326.840,161.200 326.400 C 161.200 325.960,161.020 325.600,160.800 325.600 C 160.580 325.600,160.400 325.240,160.400 324.800 C 160.400 324.360,160.220 324.000,160.000 324.000 C 159.780 324.000,159.600 323.640,159.600 323.200 C 159.600 322.760,159.440 322.400,159.244 322.400 C 159.048 322.400,158.800 321.815,158.694 321.100 C 158.499 319.793,157.790 317.597,157.146 316.305 C 156.956 315.923,156.800 315.259,156.800 314.829 C 156.800 314.399,156.620 313.936,156.400 313.800 C 156.180 313.664,156.000 312.944,156.000 312.200 C 156.000 311.456,155.820 310.736,155.600 310.600 C 155.380 310.464,155.200 309.834,155.200 309.200 C 155.200 308.566,155.020 307.936,154.800 307.800 C 154.580 307.664,154.400 306.843,154.400 305.976 C 154.400 305.109,154.220 304.400,154.000 304.400 C 153.780 304.400,153.600 303.421,153.600 302.224 C 153.600 301.027,153.420 299.936,153.200 299.800 C 152.980 299.664,152.800 298.159,152.800 296.456 C 152.800 294.753,152.612 293.172,152.382 292.942 C 151.661 292.221,152.449 271.819,153.229 271.020 C 153.433 270.811,153.600 269.787,153.600 268.744 C 153.600 267.701,153.780 266.736,154.000 266.600 C 154.220 266.464,154.400 265.881,154.400 265.305 C 154.400 264.728,154.568 263.704,154.773 263.028 C 154.978 262.353,155.356 260.990,155.612 260.000 C 155.868 259.010,156.240 257.887,156.439 257.505 C 156.638 257.123,156.800 256.478,156.800 256.072 C 156.800 255.666,156.925 255.209,157.077 255.056 C 157.229 254.904,157.413 254.393,157.485 253.921 C 157.557 253.449,157.784 252.860,157.990 252.612 C 158.196 252.363,158.486 251.404,158.634 250.480 C 158.781 249.556,159.059 248.800,159.251 248.800 C 159.443 248.800,159.600 248.440,159.600 248.000 C 159.600 247.560,159.780 247.200,160.000 247.200 C 160.220 247.200,160.400 246.761,160.400 246.224 C 160.400 245.687,160.580 245.136,160.800 245.000 C 161.020 244.864,161.200 244.403,161.200 243.976 C 161.200 243.549,161.380 243.200,161.600 243.200 C 161.820 243.200,162.000 242.840,162.000 242.400 C 162.000 241.960,162.180 241.600,162.400 241.600 C 162.620 241.600,162.800 241.330,162.800 241.000 C 162.800 240.670,162.980 240.400,163.200 240.400 C 163.420 240.400,163.600 240.122,163.600 239.783 C 163.600 239.444,163.960 238.780,164.400 238.308 C 164.840 237.836,165.200 237.213,165.200 236.925 C 165.200 236.636,165.380 236.400,165.600 236.400 C 165.820 236.400,166.000 236.080,166.000 235.688 C 166.000 235.297,166.360 234.717,166.800 234.400 C 167.240 234.083,167.600 233.531,167.600 233.174 C 167.600 232.816,167.960 232.198,168.400 231.800 C 168.840 231.402,169.200 230.874,169.200 230.626 C 169.200 230.379,169.560 229.917,170.000 229.600 C 170.440 229.283,170.800 228.787,170.800 228.498 C 170.800 228.210,171.430 227.343,172.200 226.573 C 172.970 225.803,173.602 225.044,173.604 224.887 C 173.607 224.729,174.434 223.700,175.443 222.600 C 176.451 221.500,177.890 219.933,178.638 219.117 C 179.387 218.302,180.006 217.492,180.012 217.317 C 180.019 217.143,180.855 216.374,181.869 215.610 C 182.884 214.845,184.729 213.225,185.970 212.010 C 187.211 210.794,188.715 209.545,189.313 209.232 C 189.911 208.920,190.400 208.520,190.400 208.343 C 190.400 208.166,190.985 207.719,191.700 207.351 C 192.415 206.983,193.335 206.303,193.744 205.841 C 194.152 205.378,194.653 205.047,194.856 205.104 C 195.059 205.161,195.613 204.846,196.088 204.404 C 196.562 203.962,197.172 203.600,197.442 203.600 C 197.712 203.600,197.993 203.465,198.067 203.300 C 198.303 202.769,200.749 201.200,201.341 201.200 C 201.656 201.200,202.019 200.928,202.146 200.596 C 202.273 200.264,202.518 200.023,202.689 200.061 C 203.256 200.185,205.200 199.227,205.200 198.822 C 205.200 198.604,205.470 198.529,205.800 198.655 C 206.130 198.782,206.400 198.686,206.400 198.443 C 206.400 198.199,206.760 198.000,207.200 198.000 C 207.640 198.000,208.000 197.820,208.000 197.600 C 208.000 197.380,208.360 197.200,208.800 197.200 C 209.240 197.200,209.600 197.020,209.600 196.800 C 209.600 196.580,209.960 196.400,210.400 196.400 C 210.840 196.400,211.200 196.220,211.200 196.000 C 211.200 195.780,211.740 195.600,212.400 195.600 C 213.060 195.600,213.600 195.420,213.600 195.200 C 213.600 194.980,213.960 194.800,214.400 194.800 C 214.840 194.800,215.200 194.620,215.200 194.400 C 215.200 194.180,215.740 194.000,216.400 194.000 C 217.060 194.000,217.600 193.820,217.600 193.600 C 217.600 193.380,218.140 193.200,218.800 193.200 C 219.460 193.200,220.000 193.020,220.000 192.800 C 220.000 192.580,220.360 192.400,220.800 192.400 C 221.240 192.400,221.603 192.175,221.606 191.900 C 221.610 191.567,221.742 191.600,222.000 192.000 C 222.213 192.330,222.391 192.398,222.394 192.152 C 222.397 191.906,223.165 191.604,224.100 191.483 C 226.427 191.180,230.342 190.412,231.828 189.967 C 232.504 189.765,233.863 189.600,234.848 189.600 C 235.834 189.600,236.820 189.420,237.040 189.200 C 237.263 188.977,239.743 188.788,242.639 188.774 C 245.498 188.760,248.099 188.581,248.419 188.378 C 248.738 188.175,249.270 188.142,249.600 188.304 C 249.930 188.467,252.431 188.636,255.158 188.680 M245.800 221.200 C 245.664 221.420,245.203 221.600,244.776 221.600 C 244.349 221.600,244.000 221.742,244.000 221.917 C 244.000 222.091,243.370 222.901,242.600 223.718 C 241.830 224.534,241.200 225.572,241.200 226.025 C 241.200 226.477,241.020 226.736,240.800 226.600 C 240.534 226.436,240.400 241.813,240.400 272.428 L 240.400 318.504 238.900 316.791 C 236.930 314.540,231.200 308.765,231.200 309.030 C 231.200 309.143,230.750 308.786,230.200 308.236 C 229.650 307.686,229.200 307.072,229.200 306.870 C 229.200 306.500,225.806 302.796,220.500 297.375 C 218.905 295.746,217.600 294.318,217.600 294.202 C 217.600 294.086,215.530 291.921,213.000 289.391 C 210.470 286.861,208.400 284.626,208.400 284.423 C 208.400 284.220,208.040 283.940,207.600 283.800 C 207.160 283.660,206.800 283.365,206.800 283.144 C 206.800 282.613,205.770 281.600,205.229 281.600 C 204.993 281.600,204.800 281.420,204.800 281.200 C 204.800 280.980,204.361 280.800,203.824 280.800 C 203.287 280.800,202.736 280.620,202.600 280.400 C 202.464 280.180,201.373 280.000,200.176 280.000 C 198.979 280.000,198.000 280.180,198.000 280.400 C 198.000 280.620,197.552 280.800,197.005 280.800 C 194.341 280.800,191.200 285.443,191.200 289.381 C 191.200 291.045,192.045 294.000,192.521 294.000 C 192.700 294.000,192.736 294.180,192.600 294.400 C 192.464 294.620,192.498 294.801,192.676 294.803 C 192.854 294.804,193.426 295.432,193.948 296.197 C 194.469 296.962,195.082 297.473,195.309 297.332 C 195.549 297.184,195.603 297.271,195.438 297.538 C 195.281 297.792,195.373 298.000,195.643 298.000 C 195.913 298.000,196.031 298.102,195.906 298.227 C 195.781 298.352,197.641 300.412,200.039 302.804 C 202.438 305.196,204.400 307.257,204.400 307.385 C 204.400 307.512,205.651 308.873,207.181 310.408 C 208.710 311.944,209.876 313.200,209.771 313.200 C 209.667 313.200,210.351 313.984,211.291 314.942 C 212.231 315.900,213.135 316.609,213.300 316.518 C 213.465 316.427,213.600 316.633,213.600 316.976 C 213.600 317.319,213.741 317.600,213.914 317.600 C 214.086 317.600,214.524 318.095,214.887 318.700 C 215.842 320.295,219.447 324.020,219.746 323.721 C 219.886 323.581,220.000 323.797,220.000 324.200 C 220.000 324.603,220.113 324.821,220.250 324.683 C 220.523 324.410,224.800 328.696,224.800 329.243 C 224.800 329.648,227.028 332.118,231.600 336.783 C 233.470 338.691,235.358 340.735,235.795 341.326 C 236.232 341.917,236.847 342.400,237.162 342.400 C 237.476 342.400,237.624 342.509,237.491 342.643 C 237.357 342.776,238.486 344.107,240.000 345.600 C 241.514 347.093,242.643 348.424,242.509 348.557 C 242.376 348.691,242.577 348.800,242.957 348.800 C 243.337 348.800,243.536 348.980,243.400 349.200 C 243.264 349.420,243.523 349.600,243.976 349.600 C 244.429 349.600,244.800 349.780,244.800 350.000 C 244.800 350.220,245.329 350.400,245.976 350.400 C 246.623 350.400,247.264 350.580,247.400 350.800 C 247.720 351.318,250.121 351.319,250.638 350.802 C 250.856 350.584,251.567 350.366,252.218 350.319 C 252.868 350.272,253.691 349.911,254.047 349.517 C 254.403 349.123,254.874 348.800,255.095 348.800 C 255.490 348.800,257.845 346.127,258.573 344.853 C 258.778 344.494,259.644 343.570,260.498 342.800 C 263.347 340.231,267.289 336.216,268.351 334.803 C 268.928 334.034,270.624 332.189,272.120 330.703 C 273.615 329.216,274.713 328.000,274.558 328.000 C 274.404 328.000,274.665 327.664,275.139 327.253 C 275.612 326.842,276.000 326.212,276.000 325.853 C 276.000 325.494,276.278 325.200,276.618 325.200 C 277.202 325.200,279.200 323.502,279.200 323.005 C 279.200 322.878,281.135 320.845,283.500 318.487 C 287.191 314.807,288.497 313.341,290.996 310.072 C 291.218 309.782,291.829 309.152,292.353 308.672 C 295.081 306.176,299.230 301.904,300.246 300.545 C 300.881 299.697,302.390 298.005,303.600 296.785 C 304.810 295.566,305.859 294.305,305.930 293.984 C 306.002 293.663,306.227 293.340,306.430 293.267 C 306.939 293.083,306.910 285.600,306.400 285.600 C 306.180 285.600,306.000 285.321,306.000 284.981 C 306.000 284.054,302.372 280.800,301.338 280.800 C 300.848 280.800,300.336 280.620,300.200 280.400 C 300.064 280.180,299.063 280.000,297.976 280.000 C 296.889 280.000,296.000 280.180,296.000 280.400 C 296.000 280.620,295.494 280.800,294.875 280.800 C 294.257 280.800,293.364 281.160,292.892 281.600 C 292.420 282.040,291.923 282.400,291.788 282.400 C 291.442 282.400,290.731 283.176,289.590 284.800 C 289.049 285.570,286.804 288.021,284.603 290.246 C 279.500 295.404,276.873 298.340,277.130 298.597 C 277.242 298.709,277.003 298.800,276.600 298.800 C 276.197 298.800,275.967 298.901,276.090 299.024 C 276.213 299.147,275.116 300.452,273.652 301.924 C 272.189 303.396,270.546 305.230,270.002 306.000 C 268.931 307.516,266.400 310.177,266.400 309.787 C 266.400 309.481,262.980 313.046,261.400 314.998 C 260.740 315.814,259.900 316.808,259.533 317.207 C 259.167 317.606,258.972 318.038,259.100 318.167 C 259.228 318.295,259.123 318.400,258.867 318.400 C 258.514 318.400,258.389 307.274,258.354 272.900 C 258.328 247.875,258.273 227.220,258.231 227.000 C 258.098 226.309,257.462 225.019,257.022 224.549 C 256.790 224.301,256.335 223.716,256.012 223.249 C 255.688 222.782,255.193 222.400,254.912 222.400 C 254.630 222.400,254.400 222.220,254.400 222.000 C 254.400 221.780,254.040 221.600,253.600 221.600 C 253.160 221.600,252.800 221.420,252.800 221.200 C 252.800 220.965,251.408 220.800,249.424 220.800 C 247.567 220.800,245.936 220.980,245.800 221.200 " stroke="none" fill="#74b404" fill-rule="evenodd"></path><path id="path1" d="M68.900 327.100 C 82.265 327.158,104.135 327.158,117.500 327.100 C 130.865 327.042,119.930 326.994,93.200 326.994 C 66.470 326.994,55.535 327.042,68.900 327.100 " stroke="none" fill="#78b404" fill-rule="evenodd"></path><path id="path2" d="M68.900 327.100 C 82.265 327.158,104.135 327.158,117.500 327.100 C 130.865 327.042,119.930 326.994,93.200 326.994 C 66.470 326.994,55.535 327.042,68.900 327.100 " stroke="none" fill="#78b404" fill-rule="evenodd"></path><path id="path3" d="M68.900 327.100 C 82.265 327.158,104.135 327.158,117.500 327.100 C 130.865 327.042,119.930 326.994,93.200 326.994 C 66.470 326.994,55.535 327.042,68.900 327.100 " stroke="none" fill="#78b404" fill-rule="evenodd"></path><path id="path4" d="M68.900 327.100 C 82.265 327.158,104.135 327.158,117.500 327.100 C 130.865 327.042,119.930 326.994,93.200 326.994 C 66.470 326.994,55.535 327.042,68.900 327.100 " stroke="none" fill="#78b404" fill-rule="evenodd"></path></g></svg>