<svg id="education" xmlns="http://www.w3.org/2000/svg" width="85.371" height="83.989" viewBox="0 0 85.371 83.989">
  <g id="Grupo_2" data-name="Grupo 2" transform="translate(0 0)">
    <g id="Grupo_1" data-name="Grupo 1" transform="translate(0 0)">
      <path id="Trazado_13" data-name="Trazado 13" d="M83.949,0H1.423A1.449,1.449,0,0,0,0,1.474H0v29.5H2.846V2.95h79.68V35.4h-49.8v2.95H83.948a1.449,1.449,0,0,0,1.423-1.474h0V1.475A1.449,1.449,0,0,0,83.949,0Z" transform="translate(0 0)" fill="#73b100"/>
    </g>
  </g>
  <g id="Grupo_4" data-name="Grupo 4" transform="translate(45.125 6.912)">
    <g id="Grupo_3" data-name="Grupo 3" transform="translate(0 0)">
      <rect id="Rectángulo_1" data-name="Rectángulo 1" width="30" height="4" transform="translate(0.125 0)" fill="#73b100"/>
    </g>
  </g>
  <g id="Grupo_6" data-name="Grupo 6" transform="translate(50.125 15.073)">
    <g id="Grupo_5" data-name="Grupo 5" transform="translate(0 0)">
      <rect id="Rectángulo_2" data-name="Rectángulo 2" width="30" height="3" transform="translate(0.125 -0.161)" fill="#73b100"/>
    </g>
  </g>
  <g id="Grupo_8" data-name="Grupo 8" transform="translate(43.125 24.562)">
    <g id="Grupo_7" data-name="Grupo 7" transform="translate(0 0)">
      <rect id="Rectángulo_3" data-name="Rectángulo 3" width="30" height="2" transform="translate(0.125 0.35)" fill="#73b100"/>
    </g>
  </g>
  <g id="Grupo_10" data-name="Grupo 10" transform="translate(0 5.9)">
    <g id="Grupo_9" data-name="Grupo 9" transform="translate(0)">
      <path id="Trazado_14" data-name="Trazado 14" d="M47.08,38.445a4.862,4.862,0,0,0-6.223-2.426l-.124.051-11.96,5.865a6.587,6.587,0,0,0,.725-2.962A7.182,7.182,0,0,0,22.124,32a7.182,7.182,0,0,0-7.375,6.972,6.664,6.664,0,0,0,1.513,4.183H16.2a10.115,10.115,0,0,0-9.4,6.191L2.861,62.177A4.395,4.395,0,0,0,5.573,67.95a4.979,4.979,0,0,0,3.446-.019,4.625,4.625,0,0,0,2.713-2.681l1.542-4.641V80.79A7.58,7.58,0,0,0,8.85,79.36a7.173,7.173,0,0,0-7.375,6.952,6.78,6.78,0,0,0,2.228,5A6.394,6.394,0,0,0,0,97.01V108.7a1.436,1.436,0,0,0,1.474,1.394h14.75A1.436,1.436,0,0,0,17.7,108.7h0V97.01a6.293,6.293,0,0,0-2.632-5.048H26.231A6.292,6.292,0,0,0,23.6,97.01V108.7a1.436,1.436,0,0,0,1.474,1.394h14.75A1.436,1.436,0,0,0,41.3,108.7h0V97.01a6.394,6.394,0,0,0-3.7-5.7,6.7,6.7,0,0,0,.126-9.851,7.644,7.644,0,0,0-6.747-1.96V50.975l13.54-6.647A4.416,4.416,0,0,0,47.08,38.445ZM22.124,34.789a4.19,4.19,0,1,1,0,8.367,4.19,4.19,0,1,1,0-8.367ZM8.85,82.149a4.19,4.19,0,1,1,0,8.367,4.19,4.19,0,1,1,0-8.367Zm5.9,25.152H2.95V97.01a3.769,3.769,0,0,1,3.865-3.654h4.069a3.769,3.769,0,0,1,3.865,3.654Zm23.6-10.291V107.3h-11.8V97.01a3.769,3.769,0,0,1,3.865-3.654h4.069A3.769,3.769,0,0,1,38.348,97.01Zm-5.9-14.861a4.19,4.19,0,1,1-4.425,4.183A4.314,4.314,0,0,1,32.449,82.149ZM44.381,40.771A1.851,1.851,0,0,1,43.268,41.8L28.82,48.89a1.387,1.387,0,0,0-.8,1.238V80.79a6.65,6.65,0,0,0-2.3,8.383H23.6V65.467h-2.95V89.173h-5.08a6.592,6.592,0,0,0,.649-2.789h.006V51.522a1.437,1.437,0,0,0-1.475-1.394,1.469,1.469,0,0,0-1.407.976l-4.4,13.25a1.8,1.8,0,0,1-2.271,1,1.84,1.84,0,0,1-.189-.077,1.67,1.67,0,0,1-.824-2.214L9.591,50.237A7.128,7.128,0,0,1,16.2,45.945H26.644a1.538,1.538,0,0,0,.679-.157l14.659-7.194a1.862,1.862,0,0,1,2.321.813A1.613,1.613,0,0,1,44.381,40.771Z" transform="translate(0 -32)" fill="#73b100"/>
    </g>
  </g>
  <g id="Grupo_12" data-name="Grupo 12" transform="translate(45.115 51.47)">
    <g id="Grupo_11" data-name="Grupo 11">
      <path id="Trazado_15" data-name="Trazado 15" d="M270,316.275a7.375,7.375,0,1,0-10.429-.136q.067.069.136.136A6.8,6.8,0,0,0,256,322.3v12.36a1.475,1.475,0,0,0,1.474,1.475h14.75a1.475,1.475,0,0,0,1.475-1.474h0V322.3A6.8,6.8,0,0,0,270,316.275Zm-5.146-9.691a4.425,4.425,0,1,1-4.425,4.425A4.425,4.425,0,0,1,264.85,306.584Zm5.9,26.6h-11.8V322.3a3.87,3.87,0,0,1,3.865-3.865h4.069a3.87,3.87,0,0,1,3.865,3.865Z" transform="translate(-256 -303.618)" fill="#73b100"/>
    </g>
  </g>
  <g id="Grupo_14" data-name="Grupo 14" transform="translate(67.672 51.47)">
    <g id="Grupo_13" data-name="Grupo 13">
      <path id="Trazado_16" data-name="Trazado 16" d="M398,316.275a7.375,7.375,0,1,0-10.429-.136q.067.069.136.136A6.8,6.8,0,0,0,384,322.3v12.36a1.475,1.475,0,0,0,1.474,1.475h14.75a1.475,1.475,0,0,0,1.475-1.474h0V322.3A6.8,6.8,0,0,0,398,316.275Zm-5.146-9.691a4.425,4.425,0,1,1-4.425,4.425A4.425,4.425,0,0,1,392.85,306.584Zm5.9,26.6h-11.8V322.3a3.87,3.87,0,0,1,3.865-3.865h4.069a3.87,3.87,0,0,1,3.865,3.865Z" transform="translate(-384 -303.618)" fill="#73b100"/>
    </g>
  </g>
</svg>
