<svg height="512" viewBox="0 0 256 256" width="512" xmlns="http://www.w3.org/2000/svg"><g id="Layer_22"><g><g><g><ellipse cx="48.557" cy="226" fill="#f5c84c" rx="27.223" ry="27.223" transform="matrix(.122 -.993 .993 .122 -181.683 246.58)"/></g></g><g><g><path d="m57.224 236.759h-17.334c-5.157 0-9.522 3.395-10.981 8.072 4.955 5.169 11.923 8.392 19.648 8.392s14.694-3.223 19.648-8.392c-1.459-4.677-5.823-8.072-10.981-8.072z" fill="#70d6f9"/></g></g><g><g><circle cx="129.03" cy="226" fill="#5290db" r="27.223"/></g></g><g><g><path d="m137.697 236.759h-17.334c-5.157 0-9.522 3.395-10.981 8.072 4.955 5.169 11.923 8.392 19.648 8.392s14.693-3.223 19.648-8.392c-1.46-4.677-5.824-8.072-10.981-8.072z" fill="#70d6f9"/></g></g><g><g><circle cx="209.502" cy="226" fill="#87d147" r="27.223"/></g></g><g><g><path d="m218.169 236.759h-17.334c-5.157 0-9.522 3.395-10.981 8.072 4.955 5.169 11.923 8.392 19.648 8.392s14.693-3.223 19.648-8.392c-1.459-4.677-5.823-8.072-10.981-8.072z" fill="#70d6f9"/></g></g><g><g><circle cx="128" cy="63.855" fill="#fc657e" r="61.355"/></g></g><g><g><path d="m167.41 105.761-13.272-3.341c-2.318-.583-4.584-1.355-6.779-2.296-.034.401-.195.792-.502 1.099l-9.309 9.309c-.688.688-1.804.688-2.493 0l-4.166-4.166c-.389-.389-.55-.914-.5-1.422h-4.779c.051.508-.11 1.033-.5 1.422l-4.166 4.166c-.688.688-1.805.688-2.493 0l-9.309-9.309c-.305-.305-.467-.694-.502-1.092-2.19.938-4.452 1.703-6.764 2.285l-13.288 3.345c-1.356.341-2.574.982-3.6 1.836 11.073 10.889 26.254 17.614 43.01 17.614s31.937-6.725 43.01-17.614c-1.024-.853-2.242-1.494-3.598-1.836z" fill="#70d6f9"/></g></g><g><g><g><path d="m128 0c-35.21 0-63.855 28.646-63.855 63.855s28.645 63.856 63.855 63.856 63.855-28.646 63.855-63.855-28.645-63.856-63.855-63.856zm0 122.711c-32.453 0-58.855-26.402-58.855-58.855s26.402-58.856 58.855-58.856 58.855 26.402 58.855 58.855-26.402 58.856-58.855 58.856z"/></g></g></g><g><g><path d="m125.111 103.874-9.309-9.309c-.688-.688-1.805-.688-2.493 0l-4.166 4.166c-.688.688-.688 1.805 0 2.493l9.309 9.309c.688.688 1.805.688 2.493 0l4.166-4.166c.689-.688.689-1.804 0-2.493z" fill="#9be5f9"/></g></g><g><g><path d="m146.856 98.731-4.166-4.166c-.688-.688-1.805-.688-2.493 0l-9.309 9.309c-.688.688-.688 1.805 0 2.493l4.166 4.166c.688.688 1.805.688 2.493 0l9.309-9.309c.689-.689.689-1.805 0-2.493z" fill="#9be5f9"/></g></g><g><g><path d="m138.652 90.949v-3.763c-3.193 1.671-6.816 2.624-10.652 2.624-3.836 0-7.459-.952-10.652-2.624v3.763c0 1.455-.397 2.848-1.109 4.054l8.872 8.872c.299.299.46.68.5 1.071h4.779c.039-.391.2-.772.5-1.071l8.88-8.88c-.713-1.206-1.118-2.592-1.118-4.046z" fill="#f9d0b4"/></g></g><g><g><path d="m151.118 45.73c-.013-.656-.538-1.196-1.194-1.215-9.605-.282-14.666-4.088-16.611-5.995-.531-.52-1.388-.466-1.85.116-8.445 10.62-20.903 9.121-25.092 8.245-.761-.159-1.491.414-1.492 1.192v18.615c0 12.717 10.405 23.121 23.121 23.121s23.121-10.405 23.121-23.121v-20.596c0-.121-.001-.242-.003-.362z" fill="#f9d0b4"/></g></g><g><g><path d="m146.093 21.205c-2.464 0-4.767.696-6.747 1.883-2.312-3.859-6.524-6.464-11.326-6.464h-6.782c-13.126 0-23.866 10.74-23.866 23.866v10.694c1.652-1.322 3.743-2.117 6.023-2.117.505 0 1 .043 1.484.118v-1.111c.001-.778.731-1.351 1.492-1.192 4.189.877 16.647 2.375 25.092-8.245.463-.582 1.32-.637 1.85-.116 1.945 1.906 7.006 5.713 16.611 5.995.656.019 1.181.56 1.194 1.215.002.12.004.241.004.362v3.093c.484-.075.979-.118 1.484-.118 2.602 0 4.959 1.035 6.695 2.709v-17.365c-.001-7.264-5.944-13.207-13.208-13.207z" fill="#754e34"/></g></g><g><g><path d="m152.605 49.067c-.505 0-1 .043-1.484.118v17.504c0 .521-.024 1.037-.058 1.551.503.081 1.016.135 1.542.135 5.331 0 9.653-4.322 9.653-9.653s-4.322-9.655-9.653-9.655z" fill="#f9d0b4"/></g></g><g><g><path d="m104.879 66.688c0-2.396 0-12.741 0-17.504-.484-.075-.979-.118-1.484-.118-5.331 0-9.653 4.322-9.653 9.653s4.322 9.653 9.653 9.653c.526 0 1.039-.054 1.542-.135-.034-.512-.058-1.028-.058-1.549z" fill="#f9d0b4"/></g></g><g><g><g><path d="m126.879 102.106-9.31-9.31c-1.662-1.66-4.366-1.661-6.027.001l-4.166 4.166c-.805.805-1.249 1.875-1.249 3.014s.443 2.209 1.249 3.014l9.309 9.309c.831.831 1.922 1.247 3.014 1.247 1.091 0 2.183-.416 3.014-1.246l4.166-4.166c1.662-1.662 1.662-4.366 0-6.029zm-7.18 6.138-8.267-8.266 3.124-3.124 8.266 8.267z"/></g></g></g><g><g><g><path d="m148.624 96.963-4.167-4.167c-1.661-1.66-4.365-1.66-6.027.001l-9.309 9.309c-1.662 1.662-1.662 4.366 0 6.029l4.165 4.165c.805.806 1.876 1.249 3.015 1.249s2.209-.443 3.014-1.249l9.309-9.308c.806-.805 1.249-1.876 1.249-3.015s-.444-2.208-1.249-3.014zm-12.323 11.281-3.123-3.123 8.267-8.267 3.123 3.124z"/></g></g></g><g><g><path d="m141.807 93.52c-.428-.799-.655-1.688-.655-2.571v-3.381c0-1.381-1.119-2.5-2.5-2.5s-2.5 1.119-2.5 2.5v3.381c0 1.705.432 3.411 1.249 4.934.451.841 1.313 1.319 2.205 1.319.399 0 .803-.096 1.179-.297 1.216-.653 1.674-2.168 1.022-3.385z"/></g></g><g><g><path d="m129.849 102.445h-3.925c-1.381 0-2.5 1.119-2.5 2.5s1.119 2.5 2.5 2.5h3.925c1.381 0 2.5-1.119 2.5-2.5s-1.12-2.5-2.5-2.5z"/></g></g><g><g><path d="m117.348 85.271c-1.381 0-2.5 1.119-2.5 2.5v3.178c0 .875-.214 1.749-.62 2.527-.638 1.225-.162 2.734 1.063 3.372.369.192.764.283 1.153.283.902 0 1.774-.49 2.219-1.346.775-1.489 1.185-3.161 1.185-4.837v-3.178c0-1.38-1.119-2.499-2.5-2.499z"/></g></g><g><g><path d="m171.965 105.176c-1.196-.862-2.523-1.481-3.945-1.839l-13.273-3.341c-1.965-.494-3.933-1.146-5.849-1.936-1.279-.529-2.739.082-3.264 1.358-.526 1.276.082 2.738 1.358 3.264 2.139.882 4.337 1.609 6.535 2.162l13.272 3.341c.806.203 1.56.555 2.241 1.046.442.319.954.472 1.46.472.776 0 1.541-.36 2.03-1.038.808-1.119.554-2.682-.565-3.489z"/></g></g><g><g><path d="m110.625 99.303c-.533-1.273-1.998-1.873-3.272-1.34-1.977.828-4.025 1.511-6.085 2.03l-13.288 3.344c-1.403.354-2.714.961-3.898 1.806-1.124.802-1.385 2.364-.583 3.487.488.684 1.257 1.048 2.037 1.048.502 0 1.01-.151 1.45-.465.675-.482 1.42-.828 2.215-1.028l13.288-3.344c2.303-.58 4.589-1.342 6.796-2.267 1.273-.533 1.873-1.998 1.34-3.271z"/></g></g><g><g><g><path d="m153.617 45.68c-.04-1.997-1.63-3.606-3.62-3.664-8.882-.26-13.403-3.78-14.934-5.281-.757-.742-1.795-1.131-2.854-1.065-1.058.065-2.043.58-2.704 1.411-7.439 9.354-18.299 8.259-22.623 7.354-1.109-.233-2.249.045-3.129.76-.873.708-1.374 1.758-1.375 2.896v18.599c0 14.127 11.494 25.621 25.621 25.621s25.621-11.494 25.621-25.621v-20.598zm-4.996 21.008c0 11.371-9.25 20.621-20.621 20.621s-20.621-9.25-20.621-20.621v-17.086c5.167.791 16.761 1.223 25.187-8.387 2.69 2.263 7.747 5.243 16.056 5.744v19.729z"/></g></g></g><g><g><path d="m146.093 18.705c-2.039 0-4.06.407-5.949 1.189-2.966-3.605-7.432-5.771-12.125-5.771h-6.782c-14.538 0-26.366 11.828-26.366 26.366v10.198c0 1.381 1.119 2.5 2.5 2.5s2.5-1.119 2.5-2.5v-10.197c0-11.781 9.584-21.366 21.366-21.366h6.782c3.724 0 7.242 2.011 9.182 5.249.341.569.894.979 1.537 1.141.642.16 1.324.06 1.893-.281 1.667-.999 3.555-1.527 5.461-1.527 5.904 0 10.707 4.803 10.707 10.708v16.909c0 1.381 1.119 2.5 2.5 2.5s2.5-1.119 2.5-2.5v-16.911c.001-8.661-7.045-15.707-15.706-15.707z"/></g></g><g><g><path d="m152.605 46.566c-.338 0-.672.015-1.002.043-1.376.116-2.397 1.325-2.282 2.701.116 1.375 1.318 2.396 2.701 2.282.192-.016.387-.025.583-.025 3.944 0 7.153 3.209 7.153 7.153s-3.209 7.153-7.153 7.153c-.215 0-.427-.013-.637-.035-1.375-.149-2.603.854-2.746 2.227-.144 1.373.854 2.603 2.227 2.746.38.04.765.062 1.155.062 6.701 0 12.153-5.452 12.153-12.153s-5.451-12.154-12.152-12.154z"/></g></g><g><g><path d="m103.935 65.848c-.178.016-.358.025-.54.025-3.944 0-7.153-3.209-7.153-7.153s3.209-7.153 7.153-7.153c.187 0 .371.008.554.023 1.378.115 2.583-.911 2.696-2.287s-.911-2.583-2.287-2.696c-.317-.026-.639-.04-.963-.04-6.701 0-12.153 5.452-12.153 12.153s5.452 12.153 12.153 12.153c.33 0 .656-.016.978-.044 1.375-.121 2.393-1.333 2.271-2.709-.121-1.376-1.333-2.397-2.709-2.272z"/></g></g><g><g><g><path d="m129.03 196.277c-16.389 0-29.723 13.333-29.723 29.723s13.333 29.723 29.723 29.723 29.723-13.333 29.723-29.723-13.334-29.723-29.723-29.723zm0 54.446c-13.632 0-24.723-11.09-24.723-24.723s11.09-24.723 24.723-24.723 24.723 11.09 24.723 24.723-11.091 24.723-24.723 24.723z"/></g></g></g><g><g><circle cx="128.59" cy="219.415" fill="#f9d0b4" r="9.631"/></g></g><g><g><path d="m150.736 243.153c-2.117-5.403-7.236-8.894-13.04-8.894h-17.334c-5.82 0-11.095 3.664-13.125 9.118-.482 1.294.177 2.733 1.471 3.215.288.107.582.158.872.158 1.015 0 1.969-.622 2.343-1.628 1.306-3.506 4.697-5.862 8.44-5.862h17.334c3.732 0 7.023 2.245 8.384 5.718.504 1.286 1.957 1.918 3.24 1.416 1.285-.505 1.919-1.955 1.415-3.241z"/></g></g><g><g><g><path d="m128.59 207.284c-6.689 0-12.131 5.442-12.131 12.131s5.442 12.131 12.131 12.131 12.131-5.442 12.131-12.131-5.442-12.131-12.131-12.131zm0 19.262c-3.932 0-7.131-3.199-7.131-7.131s3.199-7.131 7.131-7.131 7.131 3.199 7.131 7.131-3.199 7.131-7.131 7.131z"/></g></g></g><g><g><g><path d="m48.557 196.277c-16.389 0-29.723 13.333-29.723 29.723s13.333 29.723 29.723 29.723 29.723-13.334 29.723-29.723-13.334-29.723-29.723-29.723zm0 54.446c-13.632 0-24.723-11.09-24.723-24.723s11.09-24.723 24.723-24.723 24.723 11.091 24.723 24.723-11.091 24.723-24.723 24.723z"/></g></g></g><g><g><circle cx="48.117" cy="219.415" fill="#f9d0b4" r="9.631"/></g></g><g><g><path d="m70.433 243.608c-1.97-5.592-7.278-9.349-13.209-9.349h-17.334c-5.855 0-11.141 3.694-13.152 9.191-.475 1.296.192 2.732 1.489 3.207 1.292.476 2.732-.192 3.207-1.489 1.293-3.535 4.692-5.909 8.457-5.909h17.334c3.813 0 7.227 2.416 8.493 6.01.362 1.028 1.327 1.67 2.358 1.67.275 0 .556-.046.831-.143 1.301-.458 1.985-1.885 1.526-3.188z"/></g></g><g><g><g><path d="m48.117 207.284c-6.689 0-12.131 5.442-12.131 12.131s5.442 12.131 12.131 12.131 12.131-5.442 12.131-12.131-5.442-12.131-12.131-12.131zm0 19.262c-3.932 0-7.131-3.199-7.131-7.131s3.199-7.131 7.131-7.131 7.131 3.199 7.131 7.131-3.199 7.131-7.131 7.131z"/></g></g></g><g><g><g><path d="m209.502 196.277c-16.389 0-29.723 13.333-29.723 29.723s13.333 29.723 29.723 29.723 29.723-13.333 29.723-29.723-13.334-29.723-29.723-29.723zm0 54.446c-13.632 0-24.723-11.09-24.723-24.723s11.09-24.723 24.723-24.723 24.723 11.09 24.723 24.723-11.091 24.723-24.723 24.723z"/></g></g></g><g><g><circle cx="209.062" cy="219.415" fill="#f9d0b4" r="9.631"/></g></g><g><g><path d="m231.318 243.439c-2.014-5.491-7.298-9.18-13.149-9.18h-17.333c-5.809 0-11.08 3.654-13.117 9.094-.484 1.293.172 2.733 1.465 3.218 1.294.484 2.734-.172 3.218-1.465 1.309-3.497 4.699-5.847 8.434-5.847h17.333c3.762 0 7.16 2.372 8.455 5.902.372 1.012 1.329 1.64 2.348 1.64.286 0 .577-.049.86-.153 1.296-.476 1.961-1.912 1.486-3.209z"/></g></g><g><g><g><path d="m209.062 207.284c-6.689 0-12.131 5.442-12.131 12.131s5.442 12.131 12.131 12.131 12.131-5.442 12.131-12.131-5.442-12.131-12.131-12.131zm0 19.262c-3.932 0-7.131-3.199-7.131-7.131s3.199-7.131 7.131-7.131 7.131 3.199 7.131 7.131-3.198 7.131-7.131 7.131z"/></g></g></g><g><g><g><path d="m128 141.085c-1.381 0-2.5 1.119-2.5 2.5v41.382c0 1.381 1.119 2.5 2.5 2.5s2.5-1.119 2.5-2.5v-41.382c0-1.38-1.119-2.5-2.5-2.5z"/></g></g><g><g><path d="m140.012 175.283c-.976-.977-2.56-.977-3.535 0l-8.477 8.476-8.477-8.476c-.976-.977-2.56-.977-3.535 0-.977.976-.977 2.559 0 3.535l10.245 10.244c.488.488 1.128.732 1.768.732s1.28-.244 1.768-.732l10.245-10.244c.975-.976.975-2.559-.002-3.535z"/></g></g></g><g><g><g><path d="m189.542 177.047-30.472-40.123c-.834-1.099-2.403-1.313-3.503-.479-1.1.835-1.314 2.403-.479 3.503l30.472 40.123c.492.647 1.238.988 1.993.988.527 0 1.058-.166 1.51-.509 1.1-.835 1.314-2.403.479-3.503z"/></g></g><g><g><path d="m191.26 163.581c-1.373-.188-2.629.771-2.816 2.138l-1.624 11.878-11.878-1.624c-1.366-.188-2.628.771-2.815 2.138-.187 1.368.771 2.629 2.138 2.816l14.355 1.962c.115.016.229.023.341.023 1.23 0 2.303-.909 2.474-2.162l1.962-14.354c.188-1.367-.77-2.628-2.137-2.815z"/></g></g></g><g><g><g><path d="m100.433 136.446c-1.1-.836-2.667-.621-3.503.479l-30.472 40.123c-.835 1.1-.621 2.668.479 3.503.452.344.983.509 1.51.509.755 0 1.501-.34 1.993-.988l30.472-40.123c.835-1.1.621-2.668-.479-3.503z"/></g></g><g><g><path d="m83.873 178.111c-.187-1.368-1.443-2.327-2.815-2.138l-11.878 1.624-1.624-11.878c-.187-1.367-1.438-2.33-2.816-2.138-1.368.187-2.325 1.448-2.138 2.816l1.962 14.354c.171 1.253 1.244 2.162 2.474 2.162.112 0 .227-.008.341-.023l14.355-1.962c1.369-.188 2.326-1.449 2.139-2.817z"/></g></g></g><g><g><path d="m212.8 26.85c-4.5-.8-8-4.3-8.9-8.7 0-.2-.4-.2-.4 0-.9 4.4-4.4 7.9-8.9 8.7-.2 0-.2.3 0 .4 4.5.8 8 4.3 8.9 8.7 0 .2.4.2.4 0 .9-4.4 4.4-7.9 8.9-8.7.2-.1.2-.4 0-.4z" fill="#f5c84c"/></g></g><g><g><path d="m191.61 124.21c-3.158-.561-5.613-3.017-6.245-6.104 0-.14-.281-.14-.281 0-.631 3.087-3.087 5.543-6.245 6.104-.14 0-.14.211 0 .281 3.158.561 5.613 3.017 6.245 6.104 0 .14.281.14.281 0 .631-3.087 3.087-5.543 6.245-6.104.14-.071.14-.281 0-.281z" fill="#70d6f9"/></g></g><g><g><path d="m36.7 167.1h-2.3v-2.3c0-1.7-1.4-3.2-3.2-3.2s-3.2 1.4-3.2 3.2v2.3h-2.3c-1.7 0-3.2 1.4-3.2 3.2s1.4 3.2 3.2 3.2h2.3v2.3c0 1.7 1.4 3.2 3.2 3.2s3.2-1.4 3.2-3.2v-2.3h2.3c1.7 0 3.2-1.4 3.2-3.2s-1.4-3.2-3.2-3.2z" fill="#fc657e"/></g></g><g><g><path d="m182.8 0c-1.878 0-3.4 1.522-3.4 3.4s1.522 3.4 3.4 3.4 3.4-1.522 3.4-3.4-1.522-3.4-3.4-3.4z" fill="#87d147"/></g></g><g><g><path d="m46.8 142c-1.878 0-3.4 1.522-3.4 3.4s1.522 3.4 3.4 3.4 3.4-1.522 3.4-3.4-1.522-3.4-3.4-3.4z" fill="#f5c84c"/></g></g></g></g></svg>