<svg id="medal" xmlns="http://www.w3.org/2000/svg" width="62.533" height="73.98" viewBox="0 0 62.533 73.98">
  <path id="Trazado_57" data-name="Trazado 57" d="M55.748,221.248,39.592,251.686l14.671-1.355,7.1,12.911L77.52,232.8Z" transform="translate(-39.592 -189.265)" fill="#e95454"/>
  <g id="Grupo_83" data-name="Grupo 83" transform="translate(13.347 31.984)">
    <path id="Trazado_58" data-name="Trazado 58" d="M136.58,283.618a2.063,2.063,0,0,0-.969-2.641l-.93-.495A1.988,1.988,0,0,1,136.594,277l2.628,1.395a1.658,1.658,0,0,0,2.248-.7l.065-.125a1.568,1.568,0,0,0-.6-2.211l-7.859-4.17a2.069,2.069,0,0,1-.981-2.644,1.993,1.993,0,0,1,2.739-.916l7.29,3.87a1.677,1.677,0,0,0,2.26-.694l.042-.106.012-.023a1.746,1.746,0,0,0-.719-2.375l-4.089-2.17a2.069,2.069,0,0,1-.974-2.655,2,2,0,0,1,2.739-.916l4.517,2.4a1.687,1.687,0,0,0,2.29-.777.107.107,0,0,0,.012-.023.109.109,0,0,0,.012-.023,1.684,1.684,0,0,0-.641-2.331l-4.873-2.586a2.064,2.064,0,0,1-.969-2.637,1.993,1.993,0,0,1,2.739-.916l12.023,6.381-16.156,30.439-4.452-8.093A1.892,1.892,0,0,0,136.58,283.618Z" transform="translate(-131.92 -250.487)" fill="#ed6362"/>
    <path id="Trazado_59" data-name="Trazado 59" d="M231.572,221.248l16.156,30.438-14.671-1.355-7.1,12.911L209.8,232.8Z" transform="translate(-198.542 -221.248)" fill="#ed6362"/>
  </g>
  <path id="Trazado_60" data-name="Trazado 60" d="M229.735,283.631a2.063,2.063,0,0,1,.969-2.641l.93-.5a1.988,1.988,0,0,0-1.913-3.486l-2.628,1.395a1.658,1.658,0,0,1-2.248-.7l-.065-.125a1.568,1.568,0,0,1,.6-2.211l7.862-4.173a2.069,2.069,0,0,0,.981-2.644,1.993,1.993,0,0,0-2.739-.916l-7.29,3.869a1.677,1.677,0,0,1-2.26-.694l-.042-.106-.012-.023a1.746,1.746,0,0,1,.719-2.375l4.089-2.17a2.069,2.069,0,0,0,.974-2.655,2,2,0,0,0-2.739-.916l-4.522,2.4a1.687,1.687,0,0,1-2.29-.777.113.113,0,0,1-.012-.023.109.109,0,0,1-.012-.023,1.684,1.684,0,0,1,.641-2.331l4.873-2.586a2.064,2.064,0,0,0,.969-2.637,1.993,1.993,0,0,0-2.739-.916l-12.023,6.381L225.972,292.5l4.452-8.093A1.926,1.926,0,0,1,229.735,283.631Z" transform="translate(-185.208 -218.517)" fill="#e95454"/>
  <path id="Trazado_65" data-name="Trazado 65" d="M26.994,0A26.994,26.994,0,1,1,0,26.994,26.994,26.994,0,0,1,26.994,0Z" transform="translate(4.272 0)" fill="#d9d9d9"/>
  <path id="Trazado_61" data-name="Trazado 61" d="M100.265,35.887H83.159a2.431,2.431,0,0,1-2.422-2.422l.019-.167v-.037a2.529,2.529,0,0,1,2.533-2.551H95.144A3,3,0,0,0,98.2,27.975a2.9,2.9,0,0,0-2.884-3.032H82.752a2.445,2.445,0,0,1-2.4-2.551v-.074a2.445,2.445,0,0,1,2.4-2.551H95.894a2.992,2.992,0,0,0,3.032-2.718,2.888,2.888,0,0,0-2.884-3.032H86.418a26.991,26.991,0,0,0,0,49.93H98.639a2.992,2.992,0,0,0,3.032-2.718,2.886,2.886,0,0,0-2.884-3.03l-13.9,0a2.876,2.876,0,0,1-2.873-3.032,2.987,2.987,0,0,1,3.035-2.722h5.389a2.88,2.88,0,0,0-.083-5.759H82.185a2.4,2.4,0,0,1-2.4-2.422v-.2a2.275,2.275,0,0,1,2.274-2.422H100.1a3,3,0,0,0,3.051-2.718A2.889,2.889,0,0,0,100.265,35.887Z" transform="translate(-65.337 -11.99)" fill="#bfbfbf"/>
  <path id="Trazado_62" data-name="Trazado 62" d="M141.853,91.976a19.268,19.268,0,1,1,19.269-19.267A19.292,19.292,0,0,1,141.853,91.976Z" transform="translate(-110.587 -45.715)" fill="#fdfdfd"/>
  <path id="Trazado_63" data-name="Trazado 63" d="M250.691,73.038a19.278,19.278,0,0,0-18.164-19.214h-1.795A2.284,2.284,0,0,0,228.42,55.9a2.2,2.2,0,0,0,2.2,2.313l10.6,0a2.192,2.192,0,0,1,2.19,2.313A2.278,2.278,0,0,1,241.1,62.6h-4.11a2.2,2.2,0,0,0,.062,4.392h6.231a1.832,1.832,0,0,1,1.832,1.846v.153a1.733,1.733,0,0,1-1.735,1.846h-13.76a2.287,2.287,0,0,0-2.327,2.072,2.2,2.2,0,0,0,2.2,2.313h13.045a1.852,1.852,0,0,1,1.846,1.846l-.014.127v.028a1.929,1.929,0,0,1-1.931,1.945h-9.044a2.288,2.288,0,0,0-2.327,2.086,2.212,2.212,0,0,0,2.2,2.313h9.578a1.864,1.864,0,0,1,1.832,1.945v.055a1.864,1.864,0,0,1-1.832,1.945H232.821a2.284,2.284,0,0,0-2.313,2.072,2.2,2.2,0,0,0,2.2,2.313h2.644A19.3,19.3,0,0,0,250.691,73.038Z" transform="translate(-200.155 -46.043)" fill="#d3d3d3" opacity="0.2"/>
  <path id="Trazado_64" data-name="Trazado 64" d="M182.351,99.385h-9.372l-2.9-8.914a1.244,1.244,0,0,0-2.366,0l-2.9,8.914h-9.372a1.244,1.244,0,0,0-.731,2.251l7.582,5.509-2.9,8.914a1.244,1.244,0,0,0,1.915,1.39l7.582-5.509,7.582,5.509a1.244,1.244,0,0,0,1.915-1.39l-2.9-8.914,7.582-5.509A1.244,1.244,0,0,0,182.351,99.385Z" transform="translate(-137.632 -76.658)" fill="#c9c9c9"/>
</svg>
