<svg xmlns="http://www.w3.org/2000/svg" width="62" height="66" viewBox="0 0 62 66">
  <g id="Grupo_113" data-name="Grupo 113" transform="translate(-22 -467)">
    <g id="shield" transform="translate(22.867 467.264)">
      <path id="Trazado_66" data-name="Trazado 66" d="M80.345,10.213v9.02A50.343,50.343,0,0,1,50.237,65.356,50.343,50.343,0,0,1,20.128,19.234v-9.02A10.217,10.217,0,0,0,30.341,0H70.132A10.217,10.217,0,0,0,80.345,10.213Z" transform="translate(-20.128)" fill="#fee218"/>
      <path id="Trazado_67" data-name="Trazado 67" d="M184.612,9.9a3.786,3.786,0,0,0,3.85,3.454h15.92a3.158,3.158,0,0,1,3.095,3.274v.074a3.136,3.136,0,0,1-3.095,3.274H182.326a3.72,3.72,0,0,0-3.705,3.885,3.855,3.855,0,0,0,3.922,3.489H203.7a3.231,3.231,0,0,1,3.238,3.274v.037l.037.217a3.116,3.116,0,0,1-3.095,3.093H175.994a3.72,3.72,0,0,0-3.705,3.885,3.856,3.856,0,0,0,3.922,3.454h22.945a2.922,2.922,0,0,1,2.915,3.093v.288a3.07,3.07,0,0,1-3.095,3.095H183.262a3.684,3.684,0,0,0-3.669,3.669,3.642,3.642,0,0,0,3.562,3.671H190.5a3.85,3.85,0,0,1,3.885,3.489,3.7,3.7,0,0,1-3.705,3.885h-8.066a3.691,3.691,0,0,0-3.669,3.885,3.8,3.8,0,0,0,3.885,3.454h1.73a50.335,50.335,0,0,0,28.517-45.359v-9.02a10.185,10.185,0,0,1-10.136-9.445h-14.66A3.673,3.673,0,0,0,184.612,9.9Z" transform="translate(-152.861 -5.248)" fill="#fff" opacity="0.3"/>
      <path id="Trazado_68" data-name="Trazado 68" d="M92.109,100.447A44.241,44.241,0,0,1,68.128,61.106V57.02A16.441,16.441,0,0,0,77.15,48h29.919a16.428,16.428,0,0,0,9.022,9.02v4.085A44.246,44.246,0,0,1,92.109,100.447Z" transform="translate(-62 -41.872)" fill="#fdbc4b"/>
      <path id="Trazado_69" data-name="Trazado 69" d="M68.128,57.034V61.12A44.24,44.24,0,0,0,87.312,97.579h5.672A2.947,2.947,0,0,0,96,94.9a2.866,2.866,0,0,0-2.849-3.017h-10.7a2.872,2.872,0,0,1-2.878-3.017,2.991,2.991,0,0,1,3.017-2.711H96.817A2.828,2.828,0,0,0,99.583,83.3a2.862,2.862,0,0,0-2.849-2.849H79.771a2.384,2.384,0,0,1-2.4-2.4c0-1.8,1.04-2.627,2.263-2.627h22.579a2.994,2.994,0,0,0,3.046-2.682,2.889,2.889,0,0,0-2.878-3.017H80.721a2.365,2.365,0,0,1-2.376-2.6,2.51,2.51,0,0,1,2.514-2.543H97.293a3,3,0,0,0,3.046-2.711,2.889,2.889,0,0,0-2.878-3.017H80.329a2.435,2.435,0,0,1-2.4-2.543s0-.055,0-.055a2.453,2.453,0,0,1,2.4-2.543H92.693a2.941,2.941,0,0,0,2.99-2.682,2.85,2.85,0,0,0-2.849-3.017H77.15A16.443,16.443,0,0,1,68.128,57.034Z" transform="translate(-62 -41.886)" fill="#f7b343"/>
      <path id="Trazado_70" data-name="Trazado 70" d="M128.091,77.152l4.418,13.6h14.3L135.24,99.153l4.418,13.6-11.567-8.4-11.567,8.4,4.418-13.6-11.565-8.405h14.3Z" transform="translate(-97.982 -67.302)" fill="#f3f3f3"/>
      <g id="Grupo_84" data-name="Grupo 84" transform="translate(11.394 9.85)">
        <path id="Trazado_71" data-name="Trazado 71" d="M255.968,77.152V96.559l4.418-5.811Z" transform="translate(-237.253 -77.152)" fill="#fff"/>
        <path id="Trazado_72" data-name="Trazado 72" d="M255.968,189.459l18.715-5.811-11.565,8.405Z" transform="translate(-237.253 -170.052)" fill="#fff"/>
        <path id="Trazado_73" data-name="Trazado 73" d="M255.968,229.168l11.568,16.19-11.568-8.4Z" transform="translate(-237.253 -209.761)" fill="#fff"/>
        <path id="Trazado_74" data-name="Trazado 74" d="M176.927,229.168l-7.149,2.594-4.418,13.6Z" transform="translate(-158.213 -209.761)" fill="#fff"/>
        <path id="Trazado_75" data-name="Trazado 75" d="M109.376,183.648h14.3l4.418,5.811Z" transform="translate(-109.376 -170.052)" fill="#fff"/>
      </g>
    </g>
    <rect id="Rectángulo_15" data-name="Rectángulo 15" width="62" height="66" transform="translate(22 467)" fill="#fff" opacity="0.714"/>
  </g>
</svg>
