<svg xmlns="http://www.w3.org/2000/svg" width="21.742" height="28.989" viewBox="0 0 21.742 28.989">
  <path id="padlock_1_" data-name="padlock (1)" d="M22.024,10.871h-.906V7.247a7.247,7.247,0,1,0-14.495,0v3.624H5.718A2.721,2.721,0,0,0,3,13.589V26.272a2.721,2.721,0,0,0,2.718,2.718H22.024a2.721,2.721,0,0,0,2.718-2.718V13.589A2.721,2.721,0,0,0,22.024,10.871ZM9.039,7.247a4.832,4.832,0,1,1,9.663,0v3.624H9.039ZM15.079,20.2V22.95a1.208,1.208,0,1,1-2.416,0V20.2a2.416,2.416,0,1,1,2.416,0Z" transform="translate(-3)" fill="#c1c1c1"/>
</svg>
