<svg xmlns="http://www.w3.org/2000/svg" xmlns:xlink="http://www.w3.org/1999/xlink" width="52" height="52" viewBox="0 0 52 52">
  <defs>
    <linearGradient id="linear-gradient" x1="0.5" x2="0" y2="0.604" gradientUnits="objectBoundingBox">
      <stop offset="0" stop-color="#73b100"/>
      <stop offset="1" stop-color="#8dd900"/>
    </linearGradient>
  </defs>
  <circle id="Elipse_1" data-name="Elipse 1" cx="26" cy="26" r="26" fill="url(#linear-gradient)"/>
  <g id="woman" transform="translate(10.664 8.667)">
    <g id="Grupo_71" data-name="Grupo 71" transform="translate(0 0)">
      <g id="Grupo_70" data-name="Grupo 70" transform="translate(0 0)">
        <path id="Trazado_52" data-name="Trazado 52" d="M29.745,27.367a6.058,6.058,0,0,0,.827-3.067.6.6,0,0,0-.6-.6H29.97l-3.1.033V11.555a11.462,11.462,0,0,0-.5-3.353h0a11.627,11.627,0,0,0-2.895-4.808A11.5,11.5,0,0,0,8.387,2.322,11.7,11.7,0,0,0,4.264,8.187h0a11.453,11.453,0,0,0-.5,3.367v3.633a11.592,11.592,0,0,0,6.426,10.348H4.564A4.436,4.436,0,0,0,.085,29.917a.6.6,0,0,0,.6.6h29.31a.6.6,0,0,0,.6-.6A4.3,4.3,0,0,0,29.745,27.367ZM15.316,1.193a10.288,10.288,0,0,1,7.318,3.045A10.44,10.44,0,0,1,25.16,8.326l0,.009c-.014.026-.029.051-.043.077-.024.044-.049.088-.075.131A4.99,4.99,0,0,1,23.958,9.8l-.084.068-.1.08a4.967,4.967,0,0,1-.821.5A4.9,4.9,0,0,1,15.92,6.036a.6.6,0,0,0-.6-.6h-.006a.6.6,0,0,0-.6.6A4.912,4.912,0,0,1,13.1,9.683a.6.6,0,0,0,.8.887A6.1,6.1,0,0,0,15.32,8.657a6.1,6.1,0,0,0,6.7,3.355v3.176a6.608,6.608,0,0,1-.132,1.315c-.04.2-.09.394-.148.588q-.017.057-.036.115a6.771,6.771,0,0,1-3.04,3.788,6.667,6.667,0,0,1-6.707,0,6.746,6.746,0,0,1-3.356-5.8V12.011a.6.6,0,0,0,.236-1.169,4.883,4.883,0,0,1-.63-.172A4.933,4.933,0,0,1,5.476,8.315,10.454,10.454,0,0,1,15.316,1.193Zm3.057,21.278v3.065H12.259V22.471a7.852,7.852,0,0,0,6.114,0ZM4.953,15.188V11.555A10.326,10.326,0,0,1,5.09,9.879a6.139,6.139,0,0,0,2.324,1.759v3.55a7.94,7.94,0,0,0,3.653,6.653v2.792A10.4,10.4,0,0,1,4.953,15.188ZM1.335,29.32a3.267,3.267,0,0,1,3.229-2.592h14l.011.023.038.082c.018.039.037.078.056.117a6.352,6.352,0,0,0,1.778,2.134l.079.06.1.077.082.059.054.039H1.335Zm26.6,0,.013-.009.129-.094.014-.01.128-.1c.08-.063.154-.123.226-.185q.074-.063.145-.129l.048-.046.093-.088.053-.053.084-.085.053-.057.067-.072a3.117,3.117,0,0,1,.344.926h-1.4Zm.582-2.247a4.915,4.915,0,0,1-.848.946c-.059.05-.119.1-.184.151a6.077,6.077,0,0,1-1.2.739l-.082.036a5.01,5.01,0,0,1-5.149-.906,5.439,5.439,0,0,1-.836-.857c-.2-.259-.652-.8-.652-1.143v-4.2l.079-.053.1-.066.114-.08.095-.068.114-.085.09-.069.114-.091.084-.068.116-.1.077-.066c.041-.037.081-.074.122-.111l.065-.06c.048-.046.1-.092.142-.139l.038-.038q.09-.091.177-.184l0,0a8.065,8.065,0,0,0,.836-1.071c.026-.041.053-.081.079-.122l.056-.092a8.1,8.1,0,0,0,.658-1.358q.024-.064.047-.129l.037-.108a7.86,7.86,0,0,0,.36-1.62c0-.036.009-.071.012-.107.017-.169.028-.34.034-.51q0-.128,0-.257V11.643a11.729,11.729,0,0,1,1.038-.594,6.758,6.758,0,0,0,.968-.8l.042-.044c.055-.059.11-.119.163-.18l.015-.018c.033-.038.066-.077.1-.117a10.314,10.314,0,0,1,.135,1.664V24.341a.6.6,0,0,0,.6.6h.006l3.062-.033A4.863,4.863,0,0,1,28.52,27.073Z" transform="translate(-0.085 0)" fill="#fff"/>
      </g>
    </g>
    <g id="Grupo_73" data-name="Grupo 73" transform="translate(10.427 10.807)">
      <g id="Grupo_72" data-name="Grupo 72">
        <path id="Trazado_53" data-name="Trazado 53" d="M176.232,181.823a.6.6,0,0,0-.034-.111.594.594,0,0,0-.055-.1.61.61,0,0,0-.075-.091.571.571,0,0,0-.091-.074.607.607,0,0,0-.1-.055.623.623,0,0,0-.112-.034.591.591,0,0,0-.233,0,.608.608,0,0,0-.111.034.633.633,0,0,0-.1.055.578.578,0,0,0-.165.165.589.589,0,0,0-.055.1.6.6,0,0,0-.034.111.589.589,0,0,0-.012.116.6.6,0,0,0,.012.117.632.632,0,0,0,.034.111.606.606,0,0,0,.055.1.567.567,0,0,0,.074.091.589.589,0,0,0,.194.129.6.6,0,0,0,.111.034.587.587,0,0,0,.116.011.6.6,0,0,0,.117-.011.615.615,0,0,0,.112-.034.595.595,0,0,0,.193-.129.592.592,0,0,0,.129-.193.631.631,0,0,0,.034-.111.594.594,0,0,0,.011-.117A.588.588,0,0,0,176.232,181.823Z" transform="translate(-175.051 -181.343)" fill="#fff"/>
      </g>
    </g>
  </g>
</svg>
