<svg id="svg" version="1.1" xmlns="http://www.w3.org/2000/svg" xmlns:xlink="http://www.w3.org/1999/xlink" width="400" height="400" viewBox="0, 0, 400,400"><g id="svgg"><path id="path0" d="M184.800 199.200 C 184.800 199.439,183.267 199.600,181.000 199.600 C 178.733 199.600,177.200 199.761,177.200 200.000 C 177.200 200.220,176.300 200.400,175.200 200.400 C 174.100 200.400,173.200 200.580,173.200 200.800 C 173.200 201.020,172.300 201.200,171.200 201.200 C 170.100 201.200,169.200 201.380,169.200 201.600 C 169.200 201.820,168.581 202.000,167.824 202.000 C 167.067 202.000,166.336 202.180,166.200 202.400 C 166.064 202.620,165.423 202.800,164.776 202.800 C 164.129 202.800,163.600 202.980,163.600 203.200 C 163.600 203.420,163.060 203.600,162.400 203.600 C 161.740 203.600,161.200 203.780,161.200 204.000 C 161.200 204.220,160.750 204.400,160.200 204.400 C 159.650 204.400,159.200 204.580,159.200 204.800 C 159.200 205.020,158.840 205.200,158.400 205.200 C 157.960 205.200,157.600 205.380,157.600 205.600 C 157.600 205.820,157.060 206.000,156.400 206.000 C 155.740 206.000,155.200 206.180,155.200 206.400 C 155.200 206.620,154.840 206.800,154.400 206.800 C 153.960 206.800,153.600 206.980,153.600 207.200 C 153.600 207.420,153.240 207.600,152.800 207.600 C 152.360 207.600,152.000 207.780,152.000 208.000 C 152.000 208.220,151.698 208.400,151.330 208.400 C 150.553 208.400,144.665 211.219,144.467 211.686 C 144.393 211.859,144.078 212.000,143.767 212.000 C 143.455 212.000,143.200 212.180,143.200 212.400 C 143.200 212.620,142.930 212.800,142.600 212.800 C 142.270 212.800,142.000 212.980,142.000 213.200 C 142.000 213.420,141.775 213.600,141.500 213.601 C 141.225 213.601,140.370 214.141,139.600 214.800 C 138.830 215.459,138.015 215.999,137.788 215.999 C 137.562 216.000,137.117 216.360,136.800 216.800 C 136.483 217.240,136.015 217.600,135.760 217.600 C 135.505 217.600,134.600 218.276,133.748 219.102 C 132.897 219.928,131.638 221.004,130.950 221.493 C 129.288 222.676,121.600 230.407,121.600 230.895 C 121.600 231.106,121.098 231.756,120.485 232.340 C 119.871 232.923,118.935 234.030,118.404 234.800 C 117.872 235.570,117.114 236.491,116.719 236.847 C 116.324 237.203,116.000 237.748,116.000 238.059 C 116.000 238.369,115.640 238.883,115.200 239.200 C 114.760 239.517,114.400 240.082,114.400 240.455 C 114.400 240.828,114.251 241.193,114.069 241.267 C 113.575 241.466,110.682 245.967,109.870 247.800 C 109.480 248.680,108.990 249.713,108.781 250.095 C 108.571 250.477,108.400 251.062,108.400 251.395 C 108.400 251.728,108.220 252.000,108.000 252.000 C 107.780 252.000,107.600 252.360,107.600 252.800 C 107.600 253.240,107.420 253.600,107.200 253.600 C 106.980 253.600,106.800 254.039,106.800 254.576 C 106.800 255.113,106.620 255.664,106.400 255.800 C 106.180 255.936,106.000 256.397,106.000 256.824 C 106.000 257.251,105.820 257.600,105.600 257.600 C 105.380 257.600,105.200 258.050,105.200 258.600 C 105.200 259.150,105.020 259.600,104.800 259.600 C 104.580 259.600,104.400 260.140,104.400 260.800 C 104.400 261.460,104.220 262.000,104.000 262.000 C 103.780 262.000,103.600 262.540,103.600 263.200 C 103.600 263.860,103.420 264.400,103.200 264.400 C 102.980 264.400,102.800 264.929,102.800 265.576 C 102.800 266.223,102.620 266.864,102.400 267.000 C 102.180 267.136,102.000 267.856,102.000 268.600 C 102.000 269.344,101.820 270.064,101.600 270.200 C 101.380 270.336,101.200 271.247,101.200 272.224 C 101.200 273.201,101.050 274.000,100.866 274.000 C 100.682 274.000,100.491 275.125,100.443 276.500 C 100.394 277.875,100.184 279.171,99.977 279.380 C 99.455 279.907,99.477 303.077,100.000 303.400 C 100.220 303.536,100.400 304.616,100.400 305.800 C 100.400 306.984,100.580 308.064,100.800 308.200 C 101.020 308.336,101.200 309.247,101.200 310.224 C 101.200 311.201,101.380 312.000,101.600 312.000 C 101.820 312.000,102.000 312.709,102.000 313.576 C 102.000 314.443,102.180 315.264,102.400 315.400 C 102.620 315.536,102.800 316.267,102.800 317.024 C 102.800 317.781,102.980 318.400,103.200 318.400 C 103.420 318.400,103.600 318.940,103.600 319.600 C 103.600 320.260,103.780 320.800,104.000 320.800 C 104.220 320.800,104.400 321.340,104.400 322.000 C 104.400 322.660,104.580 323.200,104.800 323.200 C 105.020 323.200,105.200 323.650,105.200 324.200 C 105.200 324.750,105.380 325.200,105.600 325.200 C 105.820 325.200,106.000 325.560,106.000 326.000 C 106.000 326.440,106.180 326.800,106.400 326.800 C 106.620 326.800,106.800 327.340,106.800 328.000 C 106.800 328.660,106.980 329.200,107.200 329.200 C 107.420 329.200,107.600 329.560,107.600 330.000 C 107.600 330.440,107.780 330.800,108.000 330.800 C 108.220 330.800,108.400 331.089,108.400 331.442 C 108.400 332.023,111.071 337.522,111.586 338.000 C 111.704 338.110,112.055 338.692,112.365 339.293 C 112.674 339.895,113.259 340.742,113.664 341.177 C 114.069 341.611,114.400 342.204,114.400 342.495 C 114.400 342.786,114.760 343.283,115.200 343.600 C 115.640 343.917,116.000 344.380,116.000 344.629 C 116.000 344.878,116.540 345.646,117.200 346.337 C 117.860 347.028,118.400 347.756,118.400 347.956 C 118.400 348.156,119.300 349.238,120.400 350.361 C 121.500 351.485,122.400 352.564,122.400 352.760 C 122.400 353.305,127.906 358.800,128.453 358.800 C 128.717 358.800,128.814 358.919,128.669 359.065 C 128.523 359.210,129.078 359.785,129.902 360.342 C 130.726 360.900,132.061 362.041,132.869 362.878 C 133.676 363.715,134.549 364.400,134.808 364.400 C 135.067 364.400,135.783 364.940,136.400 365.600 C 137.017 366.260,137.769 366.800,138.072 366.800 C 138.375 366.800,138.883 367.160,139.200 367.600 C 139.517 368.040,140.031 368.400,140.341 368.400 C 140.652 368.400,141.197 368.729,141.553 369.130 C 141.909 369.532,142.785 370.116,143.500 370.428 C 144.215 370.740,144.800 371.110,144.800 371.250 C 144.800 371.630,152.142 375.200,152.924 375.200 C 153.296 375.200,153.600 375.380,153.600 375.600 C 153.600 375.820,153.949 376.000,154.376 376.000 C 154.803 376.000,155.264 376.180,155.400 376.400 C 155.536 376.620,156.087 376.800,156.624 376.800 C 157.161 376.800,157.600 376.980,157.600 377.200 C 157.600 377.420,157.949 377.600,158.376 377.600 C 158.803 377.600,159.264 377.780,159.400 378.000 C 159.536 378.220,160.087 378.400,160.624 378.400 C 161.161 378.400,161.600 378.580,161.600 378.800 C 161.600 379.020,162.129 379.200,162.776 379.200 C 163.423 379.200,164.064 379.380,164.200 379.600 C 164.336 379.820,164.977 380.000,165.624 380.000 C 166.271 380.000,166.800 380.180,166.800 380.400 C 166.800 380.620,167.520 380.800,168.400 380.800 C 169.280 380.800,170.000 380.980,170.000 381.200 C 170.000 381.420,170.799 381.600,171.776 381.600 C 172.753 381.600,173.664 381.780,173.800 382.000 C 173.936 382.220,175.027 382.400,176.224 382.400 C 177.421 382.400,178.400 382.580,178.400 382.800 C 178.400 383.040,180.000 383.200,182.400 383.200 C 184.800 383.200,186.400 383.360,186.400 383.600 C 186.400 383.846,188.392 384.000,191.576 384.000 C 194.596 384.000,196.856 383.833,197.000 383.600 C 197.136 383.379,198.930 383.200,201.000 383.200 C 203.070 383.200,204.864 383.021,205.000 382.800 C 205.136 382.580,206.227 382.400,207.424 382.400 C 208.621 382.400,209.600 382.220,209.600 382.000 C 209.600 381.780,210.399 381.600,211.376 381.600 C 212.353 381.600,213.264 381.420,213.400 381.200 C 213.536 380.980,214.256 380.800,215.000 380.800 C 215.744 380.800,216.464 380.620,216.600 380.400 C 216.736 380.180,217.377 380.000,218.024 380.000 C 218.671 380.000,219.200 379.820,219.200 379.600 C 219.200 379.380,219.740 379.200,220.400 379.200 C 221.060 379.200,221.600 379.020,221.600 378.800 C 221.600 378.580,222.039 378.400,222.576 378.400 C 223.113 378.400,223.664 378.220,223.800 378.000 C 223.936 377.780,224.487 377.600,225.024 377.600 C 225.561 377.600,226.000 377.420,226.000 377.200 C 226.000 376.980,226.360 376.800,226.800 376.800 C 227.240 376.800,227.600 376.620,227.600 376.400 C 227.600 376.180,227.949 376.000,228.376 376.000 C 228.803 376.000,229.264 375.820,229.400 375.600 C 229.536 375.380,230.015 375.200,230.465 375.200 C 231.174 375.200,236.644 372.612,237.200 372.014 C 237.310 371.896,237.940 371.529,238.600 371.199 C 239.260 370.870,240.149 370.285,240.575 369.900 C 241.002 369.515,241.547 369.200,241.787 369.200 C 242.027 369.200,242.483 368.840,242.800 368.400 C 243.117 367.960,243.657 367.600,244.000 367.600 C 244.343 367.600,244.883 367.240,245.200 366.800 C 245.517 366.360,246.025 366.000,246.328 366.000 C 246.631 366.000,247.383 365.460,248.000 364.800 C 248.617 364.140,249.319 363.600,249.560 363.600 C 249.802 363.600,250.000 363.420,250.000 363.200 C 250.000 362.980,250.201 362.800,250.447 362.800 C 251.025 362.800,263.600 350.145,263.600 349.563 C 263.600 349.320,264.140 348.617,264.800 348.000 C 265.460 347.383,266.000 346.680,266.000 346.436 C 266.000 346.192,266.540 345.428,267.200 344.737 C 267.860 344.046,268.400 343.321,268.400 343.124 C 268.400 342.927,268.731 342.411,269.136 341.977 C 269.541 341.542,270.126 340.695,270.435 340.093 C 270.745 339.492,271.089 338.910,271.199 338.800 C 271.986 338.016,275.197 331.512,275.199 330.700 C 275.199 330.315,275.380 330.000,275.600 330.000 C 275.820 330.000,276.000 329.640,276.000 329.200 C 276.000 328.760,276.180 328.400,276.400 328.400 C 276.620 328.400,276.800 327.860,276.800 327.200 C 276.800 326.540,276.980 326.000,277.200 326.000 C 277.420 326.000,277.600 325.640,277.600 325.200 C 277.600 324.760,277.780 324.400,278.000 324.400 C 278.220 324.400,278.400 323.961,278.400 323.424 C 278.400 322.887,278.580 322.336,278.800 322.200 C 279.020 322.064,279.200 321.513,279.200 320.976 C 279.200 320.439,279.380 320.000,279.600 320.000 C 279.820 320.000,280.000 319.381,280.000 318.624 C 280.000 317.867,280.180 317.136,280.400 317.000 C 280.620 316.864,280.800 316.223,280.800 315.576 C 280.800 314.929,280.980 314.400,281.200 314.400 C 281.420 314.400,281.600 313.691,281.600 312.824 C 281.600 311.957,281.780 311.136,282.000 311.000 C 282.220 310.864,282.400 309.874,282.400 308.800 C 282.400 307.726,282.580 306.736,282.800 306.600 C 283.020 306.464,283.200 305.114,283.200 303.600 C 283.200 302.086,283.380 300.736,283.600 300.600 C 283.847 300.447,284.000 296.937,284.000 291.400 C 284.000 285.863,283.847 282.353,283.600 282.200 C 283.380 282.064,283.200 280.714,283.200 279.200 C 283.200 277.686,283.020 276.336,282.800 276.200 C 282.580 276.064,282.400 274.973,282.400 273.776 C 282.400 272.579,282.220 271.600,282.000 271.600 C 281.780 271.600,281.600 270.880,281.600 270.000 C 281.600 269.120,281.420 268.400,281.200 268.400 C 280.980 268.400,280.800 267.781,280.800 267.024 C 280.800 266.267,280.620 265.536,280.400 265.400 C 280.180 265.264,280.000 264.623,280.000 263.976 C 280.000 263.329,279.820 262.800,279.600 262.800 C 279.380 262.800,279.200 262.260,279.200 261.600 C 279.200 260.940,279.020 260.400,278.800 260.400 C 278.580 260.400,278.400 259.950,278.400 259.400 C 278.400 258.850,278.220 258.400,278.000 258.400 C 277.780 258.400,277.600 258.040,277.600 257.600 C 277.600 257.160,277.420 256.800,277.200 256.800 C 276.980 256.800,276.800 256.260,276.800 255.600 C 276.800 254.940,276.620 254.400,276.400 254.400 C 276.180 254.400,276.000 254.040,276.000 253.600 C 276.000 253.160,275.820 252.800,275.600 252.800 C 275.380 252.800,275.200 252.498,275.200 252.130 C 275.200 251.279,272.604 245.927,271.125 243.728 C 270.506 242.808,270.000 241.903,270.000 241.716 C 270.000 241.529,269.640 241.117,269.200 240.800 C 268.760 240.483,268.400 239.943,268.400 239.600 C 268.400 239.257,268.040 238.717,267.600 238.400 C 267.160 238.083,266.800 237.631,266.800 237.396 C 266.800 237.160,266.080 236.172,265.200 235.200 C 264.320 234.228,263.600 233.286,263.600 233.107 C 263.600 232.929,262.655 231.810,261.500 230.621 C 260.345 229.432,258.500 227.463,257.400 226.247 C 256.300 225.031,255.255 224.028,255.078 224.018 C 254.901 224.008,253.696 222.920,252.400 221.600 C 251.104 220.280,249.848 219.200,249.609 219.200 C 249.369 219.200,248.543 218.570,247.773 217.800 C 247.003 217.030,246.208 216.400,246.005 216.400 C 245.802 216.400,245.186 215.950,244.636 215.400 C 244.086 214.850,243.441 214.400,243.201 214.400 C 242.962 214.400,242.411 214.069,241.977 213.664 C 241.542 213.259,240.695 212.674,240.093 212.365 C 239.492 212.055,238.910 211.711,238.800 211.601 C 238.073 210.871,232.979 208.400,232.202 208.400 C 231.871 208.400,231.600 208.220,231.600 208.000 C 231.600 207.780,231.240 207.600,230.800 207.600 C 230.360 207.600,230.000 207.420,230.000 207.200 C 230.000 206.980,229.651 206.800,229.224 206.800 C 228.797 206.800,228.336 206.620,228.200 206.400 C 228.064 206.180,227.513 206.000,226.976 206.000 C 226.439 206.000,226.000 205.820,226.000 205.600 C 226.000 205.380,225.651 205.200,225.224 205.200 C 224.797 205.200,224.336 205.020,224.200 204.800 C 224.064 204.580,223.513 204.400,222.976 204.400 C 222.439 204.400,222.000 204.220,222.000 204.000 C 222.000 203.780,221.561 203.600,221.024 203.600 C 220.487 203.600,219.936 203.420,219.800 203.200 C 219.664 202.980,218.933 202.800,218.176 202.800 C 217.419 202.800,216.800 202.620,216.800 202.400 C 216.800 202.180,216.080 202.000,215.200 202.000 C 214.320 202.000,213.600 201.820,213.600 201.600 C 213.600 201.380,212.880 201.200,212.000 201.200 C 211.120 201.200,210.400 201.020,210.400 200.800 C 210.400 200.580,209.421 200.400,208.224 200.400 C 207.027 200.400,205.936 200.220,205.800 200.000 C 205.664 199.780,204.033 199.600,202.176 199.600 C 200.192 199.600,198.800 199.435,198.800 199.200 C 198.800 198.949,196.200 198.800,191.800 198.800 C 187.400 198.800,184.800 198.949,184.800 199.200 M195.092 233.412 C 196.613 234.030,230.389 267.464,232.344 270.286 C 235.942 275.482,231.592 283.200,225.065 283.200 C 221.440 283.200,220.655 282.623,210.385 272.401 C 205.079 267.121,200.662 262.800,200.569 262.800 C 200.476 262.800,200.399 280.665,200.398 302.500 C 200.396 327.297,200.248 342.732,200.002 343.617 C 198.313 349.698,190.667 351.968,186.018 347.769 C 182.771 344.835,183.025 348.354,182.800 303.076 L 182.600 262.752 172.992 272.332 C 162.821 282.473,161.846 283.200,158.400 283.200 C 152.248 283.200,148.021 276.491,150.664 270.922 C 151.537 269.082,186.409 234.132,188.109 233.393 C 189.828 232.645,193.226 232.655,195.092 233.412 " stroke="none" fill="#74b404" fill-rule="evenodd"></path><path id="path1" d="M186.752 16.395 C 186.395 16.608,183.999 16.814,181.427 16.852 C 178.756 16.892,176.975 17.065,177.275 17.255 C 177.582 17.450,176.587 17.590,174.874 17.594 C 173.264 17.597,171.577 17.798,171.125 18.040 C 170.673 18.282,169.650 18.479,168.852 18.478 C 168.053 18.477,167.201 18.639,166.958 18.838 C 166.715 19.038,165.763 19.231,164.841 19.267 C 163.919 19.303,163.073 19.483,162.959 19.666 C 162.846 19.850,162.123 20.000,161.353 20.000 C 160.521 20.000,160.053 20.162,160.200 20.400 C 160.349 20.641,159.812 20.800,158.847 20.800 C 157.967 20.800,157.136 20.980,157.000 21.200 C 156.864 21.420,156.223 21.600,155.576 21.600 C 154.929 21.600,154.400 21.780,154.400 22.000 C 154.400 22.220,153.860 22.400,153.200 22.400 C 152.540 22.400,152.000 22.580,152.000 22.800 C 152.000 23.020,151.460 23.200,150.800 23.200 C 150.140 23.200,149.600 23.380,149.600 23.600 C 149.600 23.820,149.060 24.000,148.400 24.000 C 147.740 24.000,147.200 24.180,147.200 24.400 C 147.200 24.620,146.750 24.800,146.200 24.800 C 145.650 24.800,145.200 24.980,145.200 25.200 C 145.200 25.420,144.851 25.600,144.424 25.600 C 143.997 25.600,143.536 25.780,143.400 26.000 C 143.264 26.220,142.703 26.400,142.153 26.400 C 141.499 26.400,141.252 26.560,141.438 26.862 C 141.608 27.136,141.549 27.215,141.292 27.057 C 140.675 26.675,138.771 27.627,139.089 28.158 C 139.246 28.421,139.110 28.403,138.754 28.115 C 138.270 27.724,138.049 27.777,137.604 28.394 C 137.302 28.814,136.907 29.066,136.727 28.955 C 136.547 28.844,136.400 28.923,136.400 29.132 C 136.400 29.340,136.175 29.486,135.900 29.456 C 135.318 29.391,130.664 31.656,130.467 32.100 C 130.393 32.265,130.160 32.400,129.947 32.400 C 129.735 32.400,128.477 33.120,127.152 34.000 C 125.827 34.880,124.576 35.600,124.372 35.600 C 124.167 35.600,124.021 35.735,124.047 35.900 C 124.183 36.759,123.928 37.199,123.300 37.194 C 122.702 37.189,122.687 37.131,123.200 36.800 C 123.530 36.587,123.620 36.410,123.400 36.407 C 123.180 36.404,122.370 36.941,121.600 37.600 C 120.830 38.259,120.015 38.799,119.788 38.799 C 119.562 38.800,119.117 39.160,118.800 39.600 C 118.483 40.040,117.903 40.400,117.512 40.400 C 117.050 40.400,116.789 40.716,116.768 41.300 C 116.751 41.795,116.642 41.962,116.526 41.672 C 116.372 41.288,116.155 41.372,115.730 41.979 C 115.408 42.438,115.007 42.728,114.838 42.623 C 114.373 42.336,112.752 43.599,113.023 44.037 C 113.153 44.248,113.111 44.370,112.930 44.310 C 112.748 44.249,112.600 44.294,112.600 44.410 C 112.600 44.914,111.361 45.883,110.928 45.717 C 110.391 45.511,105.128 50.594,105.496 50.963 C 105.627 51.093,105.510 51.200,105.238 51.200 C 104.626 51.200,103.557 52.224,103.857 52.524 C 103.978 52.644,103.431 53.161,102.643 53.671 C 101.855 54.182,101.208 54.855,101.205 55.167 C 101.202 55.478,101.089 55.622,100.952 55.486 C 100.642 55.176,99.600 56.185,99.600 56.795 C 99.600 57.044,99.433 57.144,99.229 57.018 C 99.025 56.892,98.743 57.151,98.602 57.594 C 98.461 58.037,98.133 58.409,97.873 58.420 C 97.280 58.445,94.164 62.267,94.300 62.804 C 94.355 63.022,94.265 63.155,94.100 63.100 C 93.702 62.967,92.000 64.685,92.000 65.218 C 92.000 65.448,91.538 66.098,90.974 66.662 C 90.339 67.297,90.042 67.934,90.195 68.332 C 90.331 68.686,90.324 68.857,90.179 68.712 C 89.740 68.274,88.000 70.300,88.000 71.248 C 88.000 71.735,87.889 72.022,87.752 71.886 C 87.347 71.480,86.400 72.676,86.400 73.595 C 86.400 74.064,86.265 74.365,86.100 74.266 C 85.935 74.166,85.568 74.335,85.284 74.642 C 84.863 75.097,84.863 75.202,85.284 75.213 C 85.601 75.221,85.491 75.492,85.000 75.913 C 84.134 76.656,81.600 80.617,81.600 81.227 C 81.600 81.432,81.420 81.600,81.200 81.600 C 80.980 81.600,80.800 81.960,80.800 82.400 C 80.800 82.840,80.627 83.200,80.416 83.200 C 80.205 83.200,79.816 83.920,79.553 84.800 C 79.289 85.680,78.901 86.400,78.690 86.400 C 78.479 86.400,78.404 86.771,78.522 87.224 C 78.656 87.734,78.516 88.134,78.157 88.272 C 77.811 88.405,77.668 88.785,77.804 89.214 C 77.930 89.609,77.817 90.066,77.554 90.228 C 77.232 90.427,77.182 90.353,77.400 90.000 C 77.614 89.654,77.567 89.573,77.262 89.762 C 77.008 89.919,76.800 90.307,76.800 90.624 C 76.800 90.941,76.649 91.200,76.464 91.200 C 76.280 91.200,76.160 91.732,76.199 92.383 C 76.238 93.034,76.138 93.485,75.978 93.386 C 75.818 93.287,75.451 94.003,75.163 94.977 C 74.876 95.952,74.496 96.660,74.320 96.551 C 74.144 96.442,74.000 96.903,74.000 97.576 C 74.000 98.249,73.799 98.800,73.553 98.800 C 73.302 98.800,73.199 99.153,73.318 99.607 C 73.434 100.051,73.275 100.668,72.964 100.978 C 72.654 101.289,72.400 102.006,72.400 102.571 C 72.400 103.137,72.220 103.600,72.000 103.600 C 71.780 103.600,71.600 104.140,71.600 104.800 C 71.600 105.460,71.412 106.000,71.182 106.000 C 70.953 106.000,70.794 106.225,70.830 106.500 C 70.983 107.679,70.773 108.830,70.441 108.625 C 70.244 108.503,70.113 109.054,70.150 109.849 C 70.188 110.644,70.010 111.375,69.756 111.472 C 69.502 111.570,69.283 112.400,69.271 113.317 C 69.258 114.234,69.057 115.048,68.824 115.125 C 68.591 115.203,68.400 116.141,68.400 117.210 C 68.400 118.278,68.237 119.253,68.038 119.376 C 67.840 119.499,67.670 120.528,67.661 121.662 C 67.651 122.908,67.438 123.856,67.122 124.056 C 66.712 124.317,66.728 124.390,67.200 124.400 C 67.595 124.408,67.648 124.513,67.354 124.706 C 67.097 124.875,66.896 126.255,66.879 127.960 C 66.864 129.589,66.667 131.035,66.442 131.174 C 66.190 131.330,66.035 133.884,66.038 137.813 C 66.041 141.326,66.034 145.415,66.022 146.900 L 66.000 149.600 64.200 149.600 C 63.210 149.600,62.400 149.780,62.400 150.000 C 62.400 150.220,61.500 150.400,60.400 150.400 C 59.300 150.400,58.400 150.580,58.400 150.800 C 58.400 151.020,57.695 151.200,56.833 151.200 C 55.972 151.200,55.204 151.388,55.128 151.617 C 55.051 151.847,54.541 152.093,53.994 152.164 C 52.853 152.313,51.723 152.684,50.658 153.259 C 50.081 153.570,49.987 153.542,50.235 153.130 C 50.477 152.727,50.415 152.700,49.977 153.017 C 49.660 153.246,48.680 153.676,47.800 153.974 C 46.920 154.271,45.771 154.848,45.246 155.257 C 44.721 155.666,44.035 156.000,43.721 156.000 C 42.750 156.000,37.990 158.461,38.225 158.841 C 38.347 159.038,38.089 159.200,37.650 159.200 C 35.278 159.200,22.400 169.113,22.400 170.940 C 22.400 171.156,22.291 171.224,22.157 171.091 C 21.780 170.713,15.983 176.849,16.274 177.319 C 16.435 177.580,16.270 177.636,15.832 177.468 C 15.378 177.294,15.189 177.368,15.293 177.679 C 15.381 177.943,14.856 178.707,14.127 179.377 C 13.397 180.047,12.800 180.733,12.800 180.901 C 12.800 181.070,12.170 182.105,11.400 183.200 C 10.630 184.295,10.000 185.554,10.000 185.996 C 10.000 186.438,9.820 186.800,9.600 186.800 C 9.380 186.800,9.200 187.070,9.200 187.400 C 9.200 187.730,9.020 188.000,8.800 188.000 C 8.580 188.000,8.400 188.360,8.400 188.800 C 8.400 189.240,8.220 189.600,8.000 189.600 C 7.780 189.600,7.600 189.960,7.600 190.400 C 7.600 190.840,7.420 191.200,7.200 191.200 C 6.980 191.200,6.800 191.487,6.800 191.838 C 6.800 192.189,6.451 192.966,6.025 193.565 C 5.598 194.164,5.015 195.407,4.727 196.327 C 4.440 197.247,4.069 198.000,3.903 198.000 C 3.736 198.000,3.600 198.540,3.600 199.200 C 3.600 199.860,3.420 200.400,3.200 200.400 C 2.980 200.400,2.800 200.929,2.800 201.576 C 2.800 202.223,2.620 202.864,2.400 203.000 C 2.180 203.136,2.000 203.676,2.000 204.200 C 2.000 204.724,1.841 205.251,1.647 205.371 C 1.453 205.491,1.284 206.339,1.271 207.256 C 1.259 208.173,1.086 209.030,0.887 209.161 C -0.059 209.786,-0.161 239.042,0.779 240.175 C 1.098 240.559,1.318 241.473,1.269 242.206 C 1.219 242.940,1.364 243.654,1.589 243.794 C 1.815 243.933,2.000 244.577,2.000 245.224 C 2.000 245.871,2.180 246.400,2.400 246.400 C 2.620 246.400,2.800 246.921,2.800 247.557 C 2.800 248.194,3.048 248.809,3.351 248.926 C 3.700 249.060,3.829 249.513,3.704 250.168 C 3.587 250.779,3.689 251.200,3.953 251.200 C 4.199 251.200,4.400 251.740,4.400 252.400 C 4.400 253.060,4.580 253.600,4.800 253.600 C 5.020 253.600,5.200 253.960,5.200 254.400 C 5.200 254.840,5.380 255.200,5.600 255.200 C 5.820 255.200,6.000 255.560,6.000 256.000 C 6.000 256.440,6.146 256.800,6.325 256.800 C 6.703 256.800,7.853 259.590,7.690 260.109 C 7.630 260.302,7.765 260.345,7.990 260.206 C 8.216 260.067,8.400 260.233,8.400 260.576 C 8.400 260.919,8.591 261.200,8.824 261.200 C 9.057 261.200,9.145 261.365,9.020 261.568 C 8.895 261.770,9.086 262.229,9.444 262.587 C 9.802 262.945,9.989 263.344,9.859 263.474 C 9.730 263.604,9.978 264.208,10.412 264.817 C 10.845 265.425,11.200 266.031,11.200 266.162 C 11.200 266.293,11.560 266.760,12.000 267.200 C 12.440 267.640,12.800 268.289,12.800 268.643 C 12.800 269.040,13.022 269.201,13.380 269.063 C 13.767 268.915,13.885 269.033,13.737 269.420 C 13.614 269.739,13.714 270.000,13.957 270.000 C 14.201 270.000,14.400 270.230,14.400 270.512 C 14.400 270.793,14.760 271.283,15.200 271.600 C 15.640 271.917,16.000 272.367,16.000 272.600 C 16.000 272.833,16.388 273.288,16.862 273.612 C 17.337 273.935,18.012 274.546,18.362 274.970 C 18.713 275.393,19.405 276.167,19.900 276.688 C 20.395 277.210,20.800 277.827,20.800 278.061 C 20.800 278.295,21.068 278.383,21.395 278.257 C 21.723 278.132,21.950 278.157,21.901 278.314 C 21.788 278.678,23.637 280.800,24.068 280.800 C 24.619 280.800,26.000 282.150,26.000 282.689 C 26.000 282.970,26.390 283.200,26.867 283.200 C 27.343 283.200,27.622 283.311,27.486 283.448 C 27.224 283.709,28.143 284.800,28.625 284.800 C 28.779 284.800,29.199 285.115,29.557 285.500 C 30.377 286.381,31.818 287.200,32.548 287.200 C 32.855 287.200,33.201 287.560,33.316 288.000 C 33.441 288.479,33.862 288.800,34.363 288.800 C 34.823 288.800,35.200 288.935,35.200 289.100 C 35.201 289.524,38.986 291.600,39.759 291.600 C 40.112 291.600,40.400 291.780,40.400 292.000 C 40.400 292.220,40.760 292.400,41.200 292.400 C 41.640 292.400,42.000 292.580,42.000 292.800 C 42.000 293.020,42.371 293.200,42.824 293.200 C 43.346 293.200,43.542 293.370,43.361 293.663 C 43.166 293.979,43.344 294.056,43.923 293.904 C 44.407 293.778,44.970 293.922,45.234 294.241 C 45.489 294.549,46.137 294.800,46.673 294.800 C 47.273 294.800,47.544 294.967,47.378 295.235 C 47.200 295.523,47.564 295.629,48.455 295.548 C 49.350 295.466,49.767 295.588,49.700 295.913 C 49.636 296.223,50.116 296.400,51.024 296.400 C 51.871 296.400,52.347 296.562,52.200 296.800 C 52.056 297.033,52.463 297.200,53.176 297.200 C 53.885 297.200,54.403 297.410,54.406 297.700 C 54.410 298.033,54.542 298.000,54.800 297.600 C 55.058 297.200,55.190 297.167,55.194 297.500 C 55.197 297.788,55.710 298.000,56.400 298.000 C 57.060 298.000,57.600 298.180,57.600 298.400 C 57.600 298.620,57.870 298.800,58.200 298.800 C 58.530 298.800,58.803 298.575,58.806 298.300 C 58.810 297.954,58.903 297.935,59.106 298.240 C 59.452 298.759,61.031 299.164,63.800 299.442 C 64.900 299.553,66.160 299.814,66.600 300.022 C 67.048 300.235,71.179 300.357,76.000 300.301 L 84.600 300.200 84.476 298.400 C 84.052 292.237,84.001 285.039,84.379 284.661 C 84.613 284.427,84.800 282.592,84.800 280.520 C 84.800 278.148,84.955 276.800,85.227 276.800 C 85.494 276.800,85.585 276.133,85.470 275.029 C 85.363 274.006,85.501 272.840,85.797 272.272 C 86.078 271.730,86.418 270.547,86.554 269.643 C 86.689 268.739,86.909 267.279,87.042 266.397 C 87.175 265.516,87.445 264.695,87.642 264.574 C 87.839 264.452,88.000 263.834,88.000 263.200 C 88.000 262.566,88.180 261.936,88.400 261.800 C 88.620 261.664,88.800 261.149,88.800 260.656 C 88.800 260.163,88.956 259.589,89.147 259.380 C 89.757 258.712,90.056 256.326,89.494 256.610 C 89.222 256.747,89.333 256.588,89.741 256.256 C 90.148 255.924,90.508 255.208,90.541 254.665 C 90.573 254.121,90.726 253.754,90.880 253.849 C 91.034 253.945,91.279 253.385,91.425 252.607 C 91.571 251.828,91.850 251.093,92.045 250.972 C 92.240 250.851,92.400 250.257,92.400 249.652 C 92.400 249.046,92.760 248.164,93.200 247.692 C 93.640 247.220,94.000 246.556,94.000 246.217 C 94.000 245.878,94.180 245.600,94.400 245.600 C 94.620 245.600,94.800 245.240,94.800 244.800 C 94.800 244.360,94.980 244.000,95.200 244.000 C 95.420 244.000,95.600 243.640,95.600 243.200 C 95.600 242.760,95.780 242.400,96.000 242.400 C 96.220 242.400,96.400 242.074,96.400 241.675 C 96.400 241.277,96.760 240.564,97.200 240.092 C 97.640 239.620,98.000 238.855,98.000 238.393 C 98.000 237.931,98.159 237.651,98.354 237.771 C 98.548 237.891,98.930 237.452,99.202 236.795 C 99.474 236.138,99.855 235.600,100.049 235.600 C 100.242 235.600,100.400 235.060,100.400 234.400 C 100.400 233.589,100.599 233.200,101.013 233.200 C 101.349 233.200,101.741 232.885,101.883 232.500 C 102.025 232.115,102.253 231.710,102.390 231.600 C 102.527 231.490,103.075 230.770,103.608 230.000 C 104.142 229.230,104.898 228.251,105.289 227.825 C 105.680 227.398,106.000 226.896,106.000 226.708 C 106.000 226.520,106.354 225.987,106.786 225.523 C 107.219 225.059,107.461 224.498,107.324 224.278 C 107.188 224.057,107.275 223.999,107.518 224.149 C 107.761 224.300,108.173 224.024,108.435 223.535 C 108.696 223.048,109.965 221.613,111.255 220.346 C 112.545 219.080,113.600 217.874,113.600 217.665 C 113.600 217.456,113.878 217.179,114.217 217.049 C 114.556 216.919,115.089 216.225,115.401 215.506 C 115.713 214.788,115.976 214.425,115.984 214.700 C 115.993 214.975,116.191 215.200,116.424 215.200 C 116.657 215.200,116.736 215.020,116.600 214.800 C 116.464 214.580,116.515 214.400,116.714 214.400 C 116.913 214.400,118.098 213.410,119.347 212.200 C 120.596 210.990,121.524 210.000,121.409 210.000 C 120.927 210.000,122.791 208.457,123.573 208.208 C 124.042 208.060,124.839 207.525,125.343 207.020 C 125.848 206.515,126.657 205.890,127.142 205.631 C 127.626 205.372,127.914 204.984,127.781 204.770 C 127.649 204.556,127.689 204.406,127.870 204.437 C 128.860 204.609,129.281 204.379,128.873 203.888 C 128.544 203.492,128.692 203.387,129.524 203.426 C 130.122 203.454,130.887 203.149,131.247 202.738 C 131.603 202.332,132.148 202.000,132.459 202.000 C 132.769 202.000,133.283 201.640,133.600 201.200 C 133.917 200.760,134.401 200.400,134.674 200.400 C 134.948 200.400,135.365 200.040,135.600 199.600 C 135.850 199.132,136.438 198.800,137.014 198.800 C 137.595 198.800,138.000 198.569,138.000 198.237 C 138.000 197.855,138.288 197.746,138.900 197.897 C 139.395 198.018,139.668 197.974,139.506 197.798 C 139.187 197.451,140.946 196.400,141.846 196.400 C 142.151 196.400,142.400 196.220,142.400 196.000 C 142.400 195.780,142.760 195.600,143.200 195.600 C 143.640 195.600,143.955 195.375,143.900 195.100 C 143.845 194.825,144.025 194.645,144.300 194.700 C 144.575 194.755,144.800 194.620,144.800 194.400 C 144.800 194.180,145.340 194.000,146.000 194.000 C 146.660 194.000,147.200 193.820,147.200 193.600 C 147.200 193.380,147.605 193.197,148.100 193.194 C 148.828 193.189,148.885 193.114,148.400 192.800 C 147.945 192.506,148.114 192.411,149.100 192.406 C 149.815 192.403,150.400 192.220,150.400 192.000 C 150.400 191.780,150.861 191.600,151.424 191.600 C 151.996 191.600,152.340 191.426,152.203 191.205 C 152.068 190.987,152.206 190.904,152.509 191.020 C 152.812 191.137,153.916 190.865,154.963 190.416 C 156.010 189.967,157.211 189.600,157.633 189.600 C 158.055 189.600,158.400 189.420,158.400 189.200 C 158.400 188.980,158.895 188.794,159.500 188.787 C 160.105 188.780,160.923 188.529,161.319 188.230 C 161.714 187.930,162.390 187.777,162.821 187.890 C 163.252 188.002,163.896 187.852,164.252 187.557 C 164.608 187.261,165.418 187.073,166.050 187.140 C 166.683 187.206,167.200 187.067,167.200 186.830 C 167.200 186.594,167.884 186.400,168.720 186.400 C 169.556 186.400,170.426 186.214,170.653 185.987 C 170.881 185.759,171.952 185.557,173.033 185.537 C 174.115 185.517,175.110 185.328,175.244 185.117 C 175.379 184.906,176.819 184.703,178.444 184.667 C 180.157 184.628,181.372 184.432,181.333 184.200 C 181.231 183.586,201.614 183.776,201.995 184.393 C 202.157 184.655,202.990 184.836,203.845 184.796 C 206.898 184.652,209.244 184.805,209.040 185.136 C 208.926 185.320,209.556 185.451,210.441 185.425 C 211.326 185.399,212.241 185.608,212.474 185.889 C 212.707 186.170,213.585 186.400,214.425 186.400 C 215.265 186.400,216.057 186.568,216.183 186.773 C 216.310 186.978,216.986 187.130,217.686 187.110 C 218.386 187.090,219.027 187.282,219.112 187.537 C 219.197 187.792,219.882 188.000,220.633 188.000 C 221.385 188.000,222.000 188.160,222.000 188.355 C 222.000 188.727,223.831 189.209,225.700 189.329 C 226.305 189.368,226.800 189.511,226.800 189.646 C 226.800 189.968,231.280 191.600,232.165 191.600 C 232.540 191.600,232.736 191.780,232.600 192.000 C 232.456 192.233,232.863 192.400,233.576 192.400 C 234.249 192.400,234.800 192.580,234.800 192.800 C 234.800 193.020,235.160 193.200,235.600 193.200 C 236.040 193.200,236.400 193.380,236.400 193.600 C 236.400 193.820,236.760 194.000,237.200 194.000 C 237.640 194.000,238.000 194.180,238.000 194.400 C 238.000 194.620,238.360 194.800,238.800 194.800 C 239.240 194.800,239.600 194.980,239.600 195.200 C 239.600 195.420,239.960 195.600,240.400 195.600 C 240.840 195.600,241.200 195.780,241.200 196.000 C 241.200 196.220,241.560 196.400,242.000 196.400 C 242.440 196.400,242.800 196.580,242.800 196.800 C 242.800 197.020,243.261 197.200,243.824 197.200 C 244.387 197.200,244.746 197.364,244.621 197.565 C 244.497 197.766,244.936 198.170,245.598 198.463 C 246.259 198.756,246.800 199.131,246.800 199.298 C 246.800 199.464,247.070 199.600,247.400 199.600 C 247.730 199.600,248.000 199.780,248.000 200.000 C 248.000 200.220,248.196 200.400,248.435 200.400 C 248.864 200.400,252.091 202.533,253.123 203.500 C 253.417 203.775,253.811 204.000,254.000 204.000 C 254.189 204.000,254.581 204.229,254.871 204.509 C 256.053 205.645,257.710 206.779,257.963 206.623 C 258.111 206.532,258.585 206.984,259.016 207.627 C 259.447 208.271,259.948 208.798,260.129 208.799 C 260.309 208.799,260.719 209.062,261.040 209.383 C 261.361 209.704,261.888 209.864,262.212 209.740 C 262.582 209.598,262.800 209.757,262.800 210.171 C 262.800 211.116,265.270 213.442,266.100 213.279 C 266.485 213.203,266.800 213.345,266.800 213.594 C 266.800 213.843,266.620 213.936,266.400 213.800 C 266.180 213.664,266.000 213.661,266.000 213.794 C 266.000 214.062,271.922 219.960,272.215 219.984 C 272.317 219.993,272.385 220.115,272.366 220.255 C 272.347 220.396,272.572 220.659,272.866 220.841 C 273.160 221.022,273.416 221.312,273.435 221.485 C 273.520 222.262,274.114 223.177,274.413 222.992 C 274.594 222.880,274.852 223.134,274.986 223.557 C 275.121 223.980,275.494 224.427,275.815 224.550 C 276.137 224.674,276.400 225.051,276.400 225.387 C 276.400 225.724,276.591 226.000,276.824 226.000 C 277.057 226.000,277.136 226.180,277.000 226.400 C 276.864 226.620,277.006 226.800,277.316 226.800 C 277.625 226.800,278.203 227.520,278.600 228.400 C 278.997 229.280,279.564 230.000,279.861 230.000 C 280.157 230.000,280.362 230.135,280.316 230.300 C 280.173 230.809,282.651 234.816,282.934 234.533 C 283.080 234.386,283.200 234.662,283.200 235.146 C 283.200 235.629,283.469 236.128,283.798 236.254 C 284.126 236.381,284.277 236.676,284.132 236.910 C 283.972 237.168,284.106 237.245,284.472 237.104 C 284.932 236.928,285.032 237.101,284.891 237.837 C 284.790 238.366,284.864 238.800,285.056 238.800 C 285.248 238.800,285.659 239.385,285.970 240.100 C 286.281 240.815,286.640 241.490,286.768 241.600 C 287.225 241.994,288.000 243.600,288.000 244.152 C 288.000 244.461,288.281 244.822,288.625 244.954 C 288.969 245.086,289.146 245.363,289.019 245.570 C 288.891 245.776,288.970 246.058,289.193 246.196 C 289.417 246.334,289.600 246.797,289.600 247.224 C 289.600 247.651,289.780 248.000,290.000 248.000 C 290.220 248.000,290.400 248.345,290.400 248.767 C 290.400 249.188,290.603 249.601,290.850 249.683 C 291.098 249.766,291.300 250.321,291.300 250.917 C 291.300 251.513,291.420 252.000,291.567 252.000 C 291.714 252.000,292.051 252.810,292.316 253.800 C 292.580 254.790,292.956 255.600,293.150 255.600 C 293.343 255.600,293.457 256.130,293.402 256.777 C 293.342 257.476,293.522 258.038,293.844 258.162 C 294.143 258.276,294.280 258.648,294.149 258.990 C 294.018 259.331,294.095 259.833,294.320 260.105 C 294.545 260.377,294.790 261.140,294.865 261.800 C 294.939 262.460,295.198 262.964,295.441 262.920 C 295.706 262.871,295.805 263.241,295.689 263.849 C 295.583 264.404,295.714 265.265,295.980 265.763 C 296.246 266.260,296.497 267.282,296.538 268.034 C 296.578 268.785,296.788 269.370,297.005 269.333 C 297.234 269.295,297.359 270.177,297.302 271.433 C 297.233 272.972,297.347 273.570,297.696 273.499 C 298.053 273.427,298.171 274.219,298.131 276.400 C 298.100 278.049,298.241 279.502,298.445 279.628 C 298.655 279.758,298.826 284.287,298.841 290.112 L 298.866 300.367 307.633 300.353 C 314.064 300.343,316.402 300.214,316.406 299.869 C 316.411 299.518,316.489 299.521,316.717 299.879 C 316.917 300.195,317.222 300.231,317.611 299.985 C 317.935 299.780,319.235 299.609,320.500 299.606 C 322.067 299.602,322.802 299.441,322.806 299.100 C 322.811 298.734,322.905 298.746,323.158 299.145 C 323.385 299.503,323.554 299.538,323.652 299.246 C 323.733 299.002,324.573 298.772,325.517 298.735 C 326.462 298.698,327.327 298.517,327.441 298.334 C 327.554 298.150,328.336 298.000,329.178 298.000 C 330.020 298.000,331.211 297.739,331.826 297.420 C 332.440 297.102,333.111 296.945,333.316 297.072 C 333.521 297.199,333.827 297.079,333.996 296.807 C 334.164 296.534,334.834 296.285,335.483 296.252 C 336.133 296.219,336.978 295.879,337.361 295.496 C 338.124 294.733,338.590 294.569,338.200 295.200 C 338.064 295.420,338.244 295.600,338.600 295.600 C 338.956 295.600,339.136 295.420,339.000 295.200 C 338.856 294.967,339.255 294.800,339.953 294.800 C 340.613 294.800,341.264 294.620,341.400 294.400 C 341.536 294.180,341.982 294.000,342.390 294.000 C 342.799 294.000,343.193 293.822,343.267 293.603 C 343.340 293.385,343.882 293.167,344.471 293.119 C 345.060 293.070,345.455 292.888,345.348 292.715 C 345.153 292.401,345.754 292.247,346.700 292.370 C 346.975 292.406,347.200 292.247,347.200 292.018 C 347.200 291.788,347.530 291.600,347.933 291.600 C 348.337 291.600,348.802 291.465,348.967 291.300 C 349.132 291.135,349.387 290.999,349.533 290.998 C 350.368 290.990,354.394 288.314,354.154 287.926 C 353.999 287.675,354.055 287.587,354.280 287.726 C 354.753 288.018,357.200 287.169,357.200 286.712 C 357.200 286.541,357.500 286.400,357.867 286.400 C 358.233 286.400,358.418 286.284,358.277 286.143 C 358.135 286.002,358.870 285.435,359.910 284.883 C 360.949 284.332,362.091 283.547,362.447 283.140 C 362.803 282.733,363.276 282.400,363.499 282.400 C 363.721 282.400,364.605 281.725,365.462 280.900 C 366.320 280.075,367.511 279.145,368.111 278.832 C 368.710 278.520,369.200 277.995,369.200 277.666 C 369.200 277.336,369.301 277.168,369.424 277.291 C 369.704 277.570,371.600 275.712,371.600 275.158 C 371.600 274.935,371.756 274.849,371.947 274.967 C 372.312 275.193,379.264 268.027,379.206 267.486 C 379.187 267.313,379.450 266.893,379.789 266.553 C 380.129 266.214,380.302 265.766,380.174 265.558 C 380.046 265.350,380.089 265.206,380.270 265.237 C 381.140 265.389,381.667 265.151,381.489 264.687 C 381.380 264.405,381.631 263.755,382.046 263.243 C 382.461 262.730,382.800 262.449,382.800 262.618 C 382.800 262.786,383.240 262.413,383.777 261.787 C 384.315 261.162,384.663 260.502,384.552 260.322 C 384.440 260.142,384.630 259.887,384.972 259.755 C 385.315 259.624,385.507 259.374,385.400 259.200 C 385.293 259.026,385.474 258.781,385.802 258.654 C 386.131 258.528,386.400 258.149,386.400 257.813 C 386.400 257.476,386.580 257.200,386.800 257.200 C 387.020 257.200,387.200 256.937,387.200 256.616 C 387.200 256.294,387.545 255.709,387.968 255.316 C 388.390 254.922,388.857 254.112,389.007 253.516 C 389.156 252.920,389.531 252.223,389.839 251.967 C 390.148 251.711,390.400 251.175,390.400 250.775 C 390.400 250.375,390.583 249.934,390.807 249.796 C 391.030 249.658,391.109 249.377,390.983 249.172 C 390.856 248.968,390.954 248.800,391.200 248.800 C 391.446 248.800,391.545 248.635,391.420 248.432 C 391.295 248.230,391.464 247.793,391.796 247.461 C 392.128 247.129,392.400 246.574,392.400 246.229 C 392.400 245.883,392.599 245.600,392.843 245.600 C 393.086 245.600,393.179 245.323,393.050 244.985 C 392.915 244.635,393.069 244.272,393.407 244.142 C 393.742 244.013,394.000 243.411,394.000 242.757 C 394.000 242.121,394.180 241.600,394.400 241.600 C 394.620 241.600,394.800 241.251,394.800 240.824 C 394.800 240.397,394.980 239.936,395.200 239.800 C 395.420 239.664,395.600 239.124,395.600 238.600 C 395.600 238.076,395.780 237.536,396.000 237.400 C 396.220 237.264,396.400 236.623,396.400 235.976 C 396.400 235.329,396.601 234.800,396.847 234.800 C 397.098 234.800,397.201 234.447,397.082 233.993 C 396.966 233.549,397.125 232.932,397.436 232.622 C 397.746 232.311,398.000 231.425,398.000 230.652 C 398.000 229.879,398.180 229.136,398.400 229.000 C 398.620 228.864,398.800 227.968,398.800 227.010 C 398.800 225.971,399.002 225.199,399.300 225.100 C 400.107 224.831,399.983 191.684,399.174 191.184 C 398.954 191.048,398.756 190.078,398.735 189.028 C 398.711 187.804,398.574 187.313,398.355 187.660 C 398.024 188.181,397.803 186.434,397.979 184.700 C 398.018 184.315,397.859 184.000,397.625 184.000 C 397.391 184.000,397.200 183.471,397.200 182.824 C 397.200 182.177,397.020 181.536,396.800 181.400 C 396.580 181.264,396.400 180.623,396.400 179.976 C 396.400 179.329,396.220 178.800,396.000 178.800 C 395.780 178.800,395.600 178.361,395.600 177.824 C 395.600 177.287,395.420 176.736,395.200 176.600 C 394.980 176.464,394.800 176.003,394.800 175.576 C 394.800 175.149,394.620 174.800,394.400 174.800 C 394.180 174.800,394.000 174.260,394.000 173.600 C 394.000 172.940,393.820 172.400,393.600 172.400 C 393.380 172.400,393.200 172.040,393.200 171.600 C 393.200 171.160,393.020 170.800,392.800 170.800 C 392.580 170.800,392.400 170.429,392.400 169.976 C 392.400 169.523,392.220 169.264,392.000 169.400 C 391.766 169.544,391.600 169.133,391.600 168.411 C 391.600 167.683,391.354 167.081,391.002 166.946 C 390.674 166.819,390.485 166.586,390.583 166.427 C 390.817 166.049,388.936 162.316,388.251 161.800 C 387.959 161.580,387.691 161.220,387.656 161.000 C 387.467 159.839,387.087 159.200,386.586 159.200 C 386.252 159.200,386.118 158.957,386.255 158.600 C 386.382 158.270,386.286 158.000,386.043 158.000 C 385.799 158.000,385.600 157.749,385.600 157.443 C 385.600 157.136,385.319 156.778,384.975 156.646 C 384.631 156.514,384.457 156.232,384.588 156.019 C 384.719 155.807,384.281 155.111,383.613 154.473 C 382.946 153.835,382.400 153.018,382.400 152.657 C 382.400 152.296,382.119 152.000,381.776 152.000 C 381.433 152.000,381.235 151.865,381.334 151.700 C 381.434 151.535,381.278 151.180,380.987 150.912 C 380.571 150.527,380.417 150.527,380.261 150.912 C 380.152 151.180,380.049 150.909,380.032 150.309 C 379.994 149.000,367.721 136.400,366.484 136.400 C 366.315 136.400,365.917 136.040,365.600 135.600 C 365.283 135.160,364.783 134.800,364.488 134.800 C 364.194 134.800,364.064 134.620,364.200 134.400 C 364.336 134.180,364.165 134.000,363.820 134.000 C 363.475 134.000,362.628 133.460,361.937 132.800 C 361.246 132.140,360.438 131.600,360.141 131.600 C 359.843 131.600,359.600 131.401,359.600 131.157 C 359.600 130.914,359.321 130.822,358.979 130.953 C 358.638 131.084,358.460 131.026,358.585 130.824 C 358.710 130.623,358.449 130.343,358.006 130.202 C 357.563 130.061,357.200 129.800,357.200 129.622 C 357.200 129.443,356.660 129.073,356.000 128.800 C 355.340 128.527,354.800 128.134,354.800 127.928 C 354.800 127.722,354.632 127.656,354.428 127.783 C 354.223 127.909,353.942 127.830,353.804 127.607 C 353.666 127.383,353.203 127.200,352.776 127.200 C 352.349 127.200,351.999 127.065,351.997 126.900 C 351.993 126.489,350.009 125.600,349.097 125.600 C 348.688 125.600,348.464 125.420,348.600 125.200 C 348.736 124.980,348.477 124.800,348.024 124.800 C 347.571 124.800,347.200 124.620,347.200 124.400 C 347.200 124.180,346.739 124.000,346.176 124.000 C 345.596 124.000,345.260 123.827,345.400 123.600 C 345.544 123.367,345.137 123.200,344.424 123.200 C 343.751 123.200,343.200 123.020,343.200 122.800 C 343.200 122.580,342.840 122.400,342.400 122.400 C 341.960 122.400,341.600 122.220,341.600 122.000 C 341.600 121.780,341.161 121.600,340.624 121.600 C 340.087 121.600,339.526 121.404,339.378 121.165 C 339.231 120.926,338.759 120.822,338.330 120.934 C 337.872 121.054,337.461 120.904,337.333 120.569 C 337.213 120.256,336.594 120.000,335.957 120.000 C 335.321 120.000,334.800 119.820,334.800 119.600 C 334.800 119.380,334.091 119.200,333.224 119.200 C 332.357 119.200,331.560 119.059,331.454 118.887 C 331.348 118.715,330.665 118.529,329.937 118.474 C 329.209 118.418,328.439 118.199,328.227 117.987 C 328.014 117.774,327.077 117.600,326.144 117.600 C 325.211 117.600,324.344 117.433,324.218 117.229 C 324.091 117.024,322.990 116.857,321.769 116.857 C 320.549 116.857,319.331 116.675,319.063 116.453 C 318.795 116.230,317.591 115.992,316.388 115.924 L 314.200 115.800 314.326 114.540 C 314.395 113.846,314.260 113.161,314.026 113.016 C 313.792 112.871,313.600 112.133,313.600 111.376 C 313.600 110.619,313.420 110.000,313.200 110.000 C 312.980 110.000,312.800 109.475,312.800 108.833 C 312.800 108.192,312.626 107.607,312.413 107.533 C 312.200 107.460,311.980 106.801,311.925 106.070 C 311.870 105.338,311.685 104.652,311.513 104.546 C 311.341 104.440,311.187 103.778,311.172 103.076 C 311.148 102.000,311.090 101.926,310.800 102.600 C 310.488 103.325,310.140 101.151,310.363 99.870 C 310.394 99.689,310.235 99.655,310.010 99.794 C 309.631 100.028,309.424 99.256,309.563 98.130 C 309.595 97.872,309.436 97.546,309.211 97.407 C 308.985 97.267,308.800 96.803,308.800 96.376 C 308.800 95.949,308.640 95.600,308.445 95.600 C 308.250 95.600,307.969 94.790,307.821 93.800 C 307.672 92.810,307.382 92.000,307.175 92.000 C 306.969 92.000,306.800 91.745,306.800 91.433 C 306.800 91.122,306.575 90.792,306.300 90.700 C 306.025 90.608,305.789 90.188,305.776 89.767 C 305.736 88.509,302.900 82.400,302.356 82.400 C 302.160 82.400,302.000 82.040,302.000 81.600 C 302.000 81.160,301.747 80.800,301.437 80.800 C 301.072 80.800,300.948 80.520,301.084 80.000 C 301.201 79.553,301.096 79.200,300.847 79.200 C 300.601 79.200,300.400 78.949,300.400 78.643 C 300.400 78.336,300.119 77.978,299.775 77.846 C 299.431 77.714,299.267 77.415,299.411 77.182 C 299.556 76.948,299.297 76.431,298.837 76.032 C 298.377 75.633,298.000 75.130,298.000 74.915 C 298.000 74.700,297.640 74.198,297.200 73.800 C 296.760 73.402,296.400 72.784,296.400 72.426 C 296.400 72.069,296.040 71.517,295.600 71.200 C 295.160 70.883,294.800 70.427,294.800 70.187 C 294.800 69.947,294.485 69.392,294.100 68.954 C 293.715 68.515,293.172 67.806,292.894 67.378 C 291.510 65.248,290.739 64.272,290.953 64.921 C 291.093 65.345,291.028 65.541,290.795 65.397 C 290.578 65.263,290.400 64.913,290.400 64.619 C 290.400 64.326,290.153 63.991,289.851 63.875 C 289.550 63.759,289.193 63.225,289.058 62.687 C 288.923 62.149,288.134 60.989,287.306 60.109 C 286.478 59.229,284.780 57.405,283.534 56.055 C 282.288 54.705,281.067 53.600,280.822 53.600 C 280.576 53.600,280.256 53.285,280.110 52.900 C 279.718 51.866,276.791 49.159,276.355 49.428 C 276.149 49.555,276.006 49.511,276.037 49.330 C 276.215 48.309,275.940 47.922,275.177 48.122 C 274.496 48.300,274.437 48.237,274.834 47.759 C 275.224 47.289,275.191 47.228,274.657 47.434 C 274.279 47.578,274.000 47.487,274.000 47.219 C 274.000 46.963,273.820 46.864,273.600 47.000 C 273.380 47.136,273.199 46.922,273.197 46.524 C 273.195 45.920,270.718 43.754,270.324 44.010 C 270.256 44.055,269.490 43.441,268.622 42.646 C 267.754 41.850,266.853 41.200,266.621 41.200 C 266.388 41.200,265.688 40.660,265.065 40.000 C 264.442 39.340,263.717 38.800,263.454 38.800 C 263.192 38.800,262.717 38.440,262.400 38.000 C 262.083 37.560,261.586 37.200,261.295 37.200 C 261.004 37.200,260.387 36.846,259.923 36.414 C 259.459 35.981,258.925 35.723,258.737 35.839 C 258.548 35.956,258.291 35.782,258.166 35.454 C 258.038 35.123,257.591 34.925,257.158 35.008 C 256.704 35.096,256.483 34.989,256.630 34.752 C 256.768 34.529,256.504 34.248,256.045 34.128 C 255.585 34.007,255.289 33.780,255.386 33.622 C 255.484 33.464,254.942 33.091,254.182 32.793 C 253.422 32.495,252.800 32.125,252.800 31.972 C 252.800 31.682,251.231 31.079,250.689 31.160 C 250.518 31.186,250.273 30.936,250.146 30.604 C 250.019 30.272,249.619 29.996,249.257 29.991 C 248.896 29.986,248.150 29.630,247.600 29.200 C 247.050 28.770,246.315 28.414,245.967 28.409 C 245.618 28.404,245.210 28.277,245.059 28.126 C 244.754 27.821,242.238 26.867,241.001 26.588 C 240.562 26.489,240.145 26.236,240.075 26.026 C 240.006 25.817,239.664 25.754,239.316 25.887 C 238.969 26.021,238.485 25.862,238.242 25.535 C 237.999 25.208,236.945 24.689,235.900 24.383 C 234.855 24.076,234.000 23.685,234.000 23.513 C 234.000 23.341,233.460 23.200,232.800 23.200 C 232.140 23.200,231.600 23.020,231.600 22.800 C 231.600 22.580,231.060 22.400,230.400 22.400 C 229.740 22.400,229.200 22.220,229.200 22.000 C 229.200 21.780,228.671 21.600,228.024 21.600 C 227.377 21.600,226.736 21.420,226.600 21.200 C 226.464 20.980,225.744 20.800,225.000 20.800 C 224.256 20.800,223.536 20.620,223.400 20.400 C 223.264 20.180,222.544 20.000,221.800 20.000 C 221.056 20.000,220.336 19.820,220.200 19.600 C 220.064 19.380,219.243 19.200,218.376 19.200 C 217.509 19.200,216.800 19.006,216.800 18.769 C 216.800 18.526,216.147 18.369,215.300 18.408 C 213.010 18.514,212.334 18.431,212.555 18.072 C 212.667 17.892,211.463 17.714,209.880 17.676 C 208.298 17.639,206.942 17.426,206.868 17.204 C 206.694 16.682,205.322 16.679,204.999 17.201 C 204.835 17.467,204.486 17.460,203.963 17.180 C 203.530 16.948,202.056 16.804,200.688 16.859 C 199.319 16.915,197.840 16.763,197.400 16.522 C 196.400 15.975,187.631 15.870,186.752 16.395 " stroke="none" fill="#9ccccc" fill-rule="evenodd"></path><path id="path2" d="M188.600 233.965 C 186.980 234.721,153.169 268.209,151.581 270.629 C 148.946 274.647,151.437 280.866,156.260 282.311 C 160.460 283.569,161.542 282.865,173.175 271.310 C 178.551 265.969,183.096 261.600,183.275 261.600 C 183.454 261.600,183.600 279.753,183.600 301.940 C 183.600 331.034,183.727 342.660,184.055 343.640 C 186.467 350.844,195.925 351.197,199.079 344.200 C 199.756 342.698,199.807 340.131,199.909 302.100 C 199.969 279.825,200.145 261.600,200.299 261.600 C 200.453 261.600,205.084 266.084,210.590 271.564 C 220.813 281.739,222.173 282.800,225.000 282.800 C 230.751 282.800,234.899 275.648,231.952 270.813 C 230.430 268.318,196.369 234.560,194.651 233.845 C 192.624 233.001,190.577 233.041,188.600 233.965 " stroke="none" fill="#fbfbfa" fill-rule="evenodd"></path><path id="path3" d="M188.109 233.393 C 186.409 234.132,151.537 269.082,150.664 270.922 C 150.299 271.691,150.006 272.744,150.013 273.260 C 150.021 273.831,150.320 273.349,150.775 272.030 C 151.912 268.736,186.796 233.943,189.600 233.305 C 190.725 233.049,191.025 232.884,190.400 232.864 C 189.850 232.846,188.819 233.084,188.109 233.393 M193.638 233.350 C 195.879 233.953,196.910 234.742,200.504 238.602 C 202.040 240.251,203.496 241.600,203.740 241.600 C 203.984 241.600,202.567 239.960,200.592 237.957 C 197.010 234.323,194.694 232.801,192.800 232.836 C 192.148 232.848,192.440 233.027,193.638 233.350 M217.777 255.954 C 233.229 271.408,232.984 271.104,232.968 274.814 C 232.948 279.462,229.607 282.800,224.974 282.800 C 221.713 282.800,220.678 282.013,210.197 271.569 C 204.915 266.306,200.460 262.000,200.297 262.000 C 200.134 262.000,199.997 280.045,199.994 302.100 C 199.988 343.978,200.006 343.500,198.290 346.119 C 195.179 350.867,187.238 350.344,184.500 345.211 L 183.600 343.524 183.600 302.762 C 183.600 273.384,183.477 262.000,183.160 262.000 C 182.642 262.000,176.400 268.125,176.400 268.634 C 176.400 268.825,177.840 267.550,179.600 265.800 L 182.800 262.619 182.800 301.890 C 182.800 345.997,182.695 344.269,185.543 347.209 C 190.250 352.067,198.203 350.091,200.002 343.617 C 200.248 342.732,200.396 327.297,200.398 302.500 C 200.399 280.665,200.476 262.800,200.569 262.800 C 200.662 262.800,205.079 267.121,210.385 272.401 C 220.655 282.623,221.440 283.200,225.065 283.200 C 231.589 283.200,235.932 275.504,232.352 270.286 C 231.308 268.764,204.623 242.000,204.149 242.000 C 203.970 242.000,210.103 248.279,217.777 255.954 M172.188 272.413 C 170.224 274.386,168.761 276.000,168.937 276.000 C 169.366 276.000,176.142 269.208,175.927 268.993 C 175.834 268.901,174.152 270.439,172.188 272.413 M150.013 275.913 C 149.980 278.231,152.485 281.509,155.149 282.632 C 158.777 284.160,162.467 282.968,166.405 278.995 C 169.586 275.786,169.245 275.548,165.982 278.700 C 159.782 284.688,153.133 283.996,150.756 277.114 C 150.328 275.874,150.021 275.378,150.013 275.913 " stroke="none" fill="#a4cc5c" fill-rule="evenodd"></path><path id="path4" d="M168.294 253.111 C 158.892 262.522,151.200 270.382,151.200 270.577 C 151.200 270.773,151.245 270.853,151.300 270.756 C 151.355 270.658,159.137 262.798,168.594 253.289 C 178.050 243.780,185.697 236.000,185.587 236.000 C 185.477 236.000,177.695 243.700,168.294 253.111 M200.048 261.700 C 200.148 261.755,204.723 266.210,210.215 271.600 L 220.200 281.400 210.403 271.500 C 205.015 266.055,200.440 261.600,200.236 261.600 C 200.033 261.600,199.948 261.645,200.048 261.700 M232.901 274.600 C 232.905 275.480,232.987 275.793,233.083 275.295 C 233.179 274.798,233.175 274.078,233.075 273.695 C 232.975 273.313,232.896 273.720,232.901 274.600 " stroke="none" fill="#a4cccc" fill-rule="evenodd"></path></g></svg>