<svg id="svg" version="1.1" xmlns="http://www.w3.org/2000/svg" xmlns:xlink="http://www.w3.org/1999/xlink" width="400" height="400" viewBox="0, 0, 400,400"><g id="svgg"><path id="path0" d="M32.542 187.694 C 32.438 187.862,32.003 188.000,31.576 188.000 C 31.149 188.000,30.800 188.180,30.800 188.400 C 30.800 188.620,30.565 188.800,30.278 188.800 C 29.991 188.800,29.069 189.430,28.228 190.200 C 27.387 190.970,26.819 191.600,26.965 191.600 C 27.112 191.600,26.864 191.994,26.416 192.475 C 25.967 192.957,25.600 193.677,25.600 194.075 C 25.600 194.474,25.420 194.800,25.200 194.800 C 24.935 194.800,24.800 217.539,24.800 262.218 L 24.800 329.637 25.714 331.318 C 27.127 333.918,27.757 334.800,28.200 334.800 C 28.424 334.800,28.832 335.160,29.107 335.600 C 29.382 336.040,29.875 336.400,30.203 336.400 C 30.532 336.400,30.800 336.580,30.800 336.800 C 30.800 337.020,31.130 337.200,31.533 337.200 C 31.937 337.200,32.402 337.335,32.567 337.500 C 33.050 337.983,312.721 337.611,314.600 337.124 C 318.871 336.019,321.845 333.656,323.565 330.000 L 324.600 327.800 324.600 262.200 L 324.600 196.600 323.531 194.575 C 321.893 191.471,319.394 189.385,315.948 188.245 C 314.018 187.606,32.934 187.060,32.542 187.694 M113.523 230.022 C 119.939 231.464,123.580 233.285,127.150 236.836 C 131.716 241.379,134.367 248.220,134.393 255.523 C 134.404 258.803,133.134 264.073,131.578 267.200 C 126.778 276.848,119.891 279.962,103.300 279.986 L 93.200 280.000 93.200 286.180 C 93.200 294.994,92.547 297.502,89.811 299.193 C 86.674 301.132,82.094 299.821,80.000 296.385 C 79.362 295.338,78.830 242.095,79.402 236.540 C 79.688 233.758,81.422 231.234,83.746 230.215 C 85.328 229.521,110.568 229.358,113.523 230.022 M180.800 231.010 C 186.906 231.840,187.982 232.048,188.227 232.444 C 188.348 232.640,188.709 232.800,189.028 232.800 C 193.773 232.800,203.451 241.511,206.936 248.918 C 209.840 255.089,210.570 258.410,210.559 265.400 C 210.534 282.396,201.313 295.278,186.480 299.040 C 182.804 299.973,182.253 300.000,166.929 300.000 C 149.534 300.000,149.781 300.033,147.821 297.463 L 146.800 296.124 146.800 265.452 L 146.800 234.779 148.500 233.083 C 149.510 232.075,150.849 231.207,151.800 230.944 C 154.272 230.260,175.644 230.308,180.800 231.010 M268.323 230.861 C 273.959 232.244,275.515 238.079,271.315 242.085 C 269.368 243.942,268.811 244.000,252.765 244.000 L 237.583 244.000 237.691 251.700 L 237.800 259.400 251.400 259.600 C 266.032 259.815,265.917 259.798,268.088 262.043 C 270.387 264.419,270.869 266.857,269.515 269.265 C 267.659 272.568,267.629 272.574,251.800 272.800 L 237.800 273.000 237.694 284.297 C 237.599 294.334,237.507 295.738,236.863 296.897 C 234.270 301.557,226.652 301.034,224.565 296.051 C 223.802 294.230,223.720 237.628,224.476 235.102 C 225.047 233.197,226.916 231.584,229.297 230.939 C 231.685 230.293,265.732 230.225,268.323 230.861 M93.200 254.964 L 93.200 267.200 102.185 267.200 C 110.279 267.200,111.388 267.118,113.373 266.376 C 123.069 262.748,123.635 248.864,114.289 243.910 C 112.700 243.067,112.026 243.006,102.900 242.871 L 93.200 242.727 93.200 254.964 M160.400 265.425 L 160.400 287.649 170.700 287.521 C 182.286 287.377,183.579 287.121,187.970 284.099 C 195.570 278.870,199.206 265.761,195.597 256.600 C 191.444 246.060,185.946 243.239,169.500 243.214 L 160.400 243.200 160.400 265.425 " stroke="none" fill="#74b404" fill-rule="evenodd"></path><path id="path1" d="M92.500 0.289 C 91.785 0.378,91.200 0.619,91.200 0.825 C 91.200 1.031,90.851 1.200,90.424 1.200 C 89.997 1.200,89.536 1.380,89.400 1.600 C 89.264 1.820,88.837 2.000,88.452 2.000 C 88.066 2.000,87.364 2.360,86.892 2.800 C 86.420 3.240,85.867 3.600,85.663 3.600 C 84.161 3.600,77.007 12.291,76.563 14.655 C 76.424 15.395,76.151 16.000,75.955 16.000 C 75.760 16.000,75.600 16.630,75.600 17.400 C 75.600 18.170,75.420 18.800,75.200 18.800 C 74.935 18.800,74.800 47.133,74.800 103.000 L 74.800 187.200 194.900 187.206 C 293.284 187.211,315.274 187.307,316.515 187.740 C 319.669 188.838,324.359 193.293,324.390 195.220 C 324.396 195.561,324.583 196.023,324.806 196.246 C 325.078 196.518,325.177 218.538,325.106 263.026 L 325.000 329.400 324.134 331.000 C 323.658 331.880,322.496 333.374,321.552 334.320 C 319.960 335.915,319.331 336.300,316.281 337.544 C 315.452 337.882,284.053 338.000,194.981 338.000 L 74.800 338.000 74.800 359.600 C 74.800 373.733,74.938 381.200,75.200 381.200 C 75.420 381.200,75.600 381.830,75.600 382.600 C 75.600 383.370,75.795 384.000,76.033 384.000 C 76.272 384.000,76.384 384.225,76.283 384.500 C 75.693 386.106,83.941 396.400,85.817 396.400 C 86.138 396.400,86.400 396.580,86.400 396.800 C 86.400 397.020,86.760 397.200,87.200 397.200 C 87.640 397.200,88.001 397.335,88.003 397.500 C 88.007 397.851,89.937 398.800,90.646 398.800 C 90.914 398.800,91.208 399.025,91.300 399.300 C 91.545 400.036,358.455 400.036,358.700 399.300 C 358.792 399.025,359.201 398.800,359.610 398.800 C 360.018 398.800,360.464 398.620,360.600 398.400 C 360.736 398.180,361.163 398.000,361.548 398.000 C 361.934 398.000,362.636 397.640,363.108 397.200 C 363.580 396.760,364.130 396.400,364.330 396.400 C 366.592 396.400,373.380 387.141,374.759 382.174 C 375.071 381.050,375.196 340.537,375.198 240.400 L 375.200 100.200 336.500 100.200 C 296.274 100.200,296.783 100.219,291.706 98.565 C 286.463 96.858,280.491 91.596,277.899 86.400 C 274.842 80.271,275.000 82.843,275.000 39.100 L 275.000 0.000 184.400 0.064 C 134.570 0.099,93.215 0.201,92.500 0.289 M91.500 230.699 C 95.515 230.765,102.085 230.765,106.100 230.699 C 110.115 230.634,106.830 230.581,98.800 230.581 C 90.770 230.581,87.485 230.634,91.500 230.699 M159.326 231.500 C 163.466 231.565,170.126 231.565,174.126 231.499 C 178.127 231.434,174.740 231.381,166.600 231.381 C 158.460 231.381,155.187 231.434,159.326 231.500 M239.128 231.500 C 244.698 231.563,253.698 231.562,259.128 231.500 C 264.558 231.437,260.000 231.385,249.000 231.386 C 238.000 231.386,233.558 231.437,239.128 231.500 M183.400 232.000 C 183.840 232.189,184.560 232.338,185.000 232.332 C 185.643 232.323,185.604 232.257,184.800 232.000 C 183.432 231.562,182.381 231.562,183.400 232.000 M269.800 231.857 C 271.837 233.664,272.587 234.191,271.802 233.263 C 271.366 232.748,270.647 232.141,270.204 231.914 C 269.762 231.687,269.580 231.662,269.800 231.857 M224.652 236.100 C 224.318 237.345,224.392 294.037,224.728 294.885 C 224.878 295.262,225.000 281.987,225.000 265.385 C 225.000 248.783,224.976 235.200,224.947 235.200 C 224.917 235.200,224.785 235.605,224.652 236.100 M199.983 240.100 C 201.641 241.866,202.000 242.184,202.000 241.883 C 202.000 241.819,201.145 240.964,200.100 239.983 L 198.200 238.200 199.983 240.100 M92.480 242.480 C 91.794 243.166,91.794 266.834,92.480 267.520 C 92.830 267.870,95.395 267.976,101.980 267.911 L 111.000 267.823 101.800 267.611 L 92.600 267.400 92.494 255.248 C 92.419 246.615,92.520 242.938,92.843 242.548 C 93.403 241.873,93.137 241.823,92.480 242.480 M110.033 242.144 C 110.125 242.223,110.740 242.408,111.400 242.556 C 112.276 242.752,112.438 242.715,112.000 242.418 C 111.460 242.053,109.632 241.798,110.033 242.144 M202.794 243.403 C 204.387 245.321,204.521 245.445,204.086 244.596 C 203.859 244.153,203.252 243.434,202.737 242.998 C 201.833 242.234,201.835 242.248,202.794 243.403 M159.467 243.067 C 158.949 243.584,159.157 287.397,159.680 287.920 C 160.198 288.438,178.137 288.562,179.930 288.060 C 180.441 287.917,176.173 287.858,170.445 287.930 L 160.030 288.059 159.801 287.130 C 159.675 286.618,159.623 276.435,159.686 264.500 C 159.749 252.565,159.785 242.800,159.767 242.800 C 159.748 242.800,159.613 242.920,159.467 243.067 M118.588 247.000 C 120.477 249.517,120.721 249.741,119.762 248.076 C 119.343 247.348,118.570 246.358,118.044 245.876 C 117.481 245.360,117.705 245.822,118.588 247.000 M132.244 246.600 C 132.573 248.071,132.802 248.390,132.794 247.367 C 132.791 246.945,132.605 246.330,132.382 246.000 C 132.085 245.562,132.048 245.724,132.244 246.600 M133.328 252.400 C 133.328 253.830,133.401 254.415,133.489 253.700 C 133.578 252.985,133.578 251.815,133.489 251.100 C 133.401 250.385,133.328 250.970,133.328 252.400 M121.383 254.886 C 121.392 256.580,121.522 257.659,121.672 257.283 C 122.018 256.414,122.003 254.096,121.643 252.802 C 121.480 252.216,121.372 253.076,121.383 254.886 M133.324 258.200 C 133.326 259.520,133.401 260.012,133.490 259.293 C 133.579 258.574,133.577 257.494,133.486 256.893 C 133.395 256.292,133.322 256.880,133.324 258.200 M237.545 260.106 C 237.714 260.274,243.600 260.364,250.626 260.305 L 263.400 260.199 250.320 260.000 C 243.125 259.890,237.377 259.938,237.545 260.106 M197.400 265.000 C 197.400 266.854,197.522 268.062,197.672 267.685 C 197.821 267.308,197.944 266.100,197.944 265.000 C 197.944 263.900,197.821 262.692,197.672 262.315 C 197.522 261.938,197.400 263.146,197.400 265.000 M117.523 264.209 C 116.491 265.194,115.779 266.000,115.940 266.000 C 116.101 266.000,117.028 265.190,118.000 264.200 C 120.277 261.880,119.958 261.886,117.523 264.209 M112.400 267.200 C 111.576 267.464,111.541 267.526,112.200 267.554 C 112.640 267.573,113.270 267.413,113.600 267.200 C 114.301 266.747,113.814 266.747,112.400 267.200 M126.981 272.500 L 125.400 274.200 127.100 272.619 C 128.681 271.148,128.984 270.800,128.681 270.800 C 128.616 270.800,127.851 271.565,126.981 272.500 M92.178 280.114 C 92.069 280.397,92.030 283.772,92.091 287.614 L 92.202 294.600 92.401 287.100 C 92.596 279.740,92.575 279.078,92.178 280.114 M189.187 283.713 C 188.630 284.201,187.730 284.920,187.187 285.312 C 186.560 285.763,186.492 285.887,187.000 285.649 C 188.053 285.158,191.012 282.796,190.555 282.813 C 190.360 282.820,189.744 283.225,189.187 283.713 M184.200 286.614 C 183.540 286.917,183.270 287.166,183.600 287.168 C 183.930 287.170,184.650 286.914,185.200 286.600 C 186.465 285.877,185.789 285.887,184.200 286.614 M201.178 289.500 L 199.800 291.000 201.300 289.622 C 202.696 288.338,202.984 288.000,202.678 288.000 C 202.612 288.000,201.937 288.675,201.178 289.500 M236.650 294.850 C 236.509 295.553,236.469 296.202,236.559 296.292 C 236.650 296.383,236.848 295.891,237.000 295.200 C 237.152 294.509,237.193 293.859,237.091 293.758 C 236.989 293.656,236.791 294.147,236.650 294.850 M149.000 298.165 C 149.660 298.732,150.365 299.197,150.567 299.198 C 151.001 299.200,150.996 299.196,149.200 298.037 L 147.800 297.134 149.000 298.165 M187.600 298.000 C 186.776 298.264,186.741 298.326,187.400 298.354 C 187.840 298.373,188.470 298.213,188.800 298.000 C 189.501 297.547,189.014 297.547,187.600 298.000 M226.950 298.432 C 227.532 298.890,228.231 299.174,228.504 299.064 C 228.815 298.938,228.758 298.851,228.349 298.832 C 227.991 298.814,227.474 298.530,227.200 298.200 C 226.926 297.870,226.520 297.600,226.297 297.600 C 226.074 297.600,226.368 297.974,226.950 298.432 M159.325 299.899 C 163.024 299.966,168.964 299.965,172.525 299.899 C 176.086 299.833,173.060 299.779,165.800 299.779 C 158.540 299.779,155.626 299.833,159.325 299.899 " stroke="none" fill="#e2e2ea" fill-rule="evenodd"></path><path id="path2" d="M274.997 1.300 C 274.349 4.816,275.015 78.561,275.716 81.000 C 278.508 90.703,285.366 97.139,295.600 99.658 C 299.209 100.547,374.940 100.451,375.113 99.558 C 375.186 99.179,373.824 97.541,371.787 95.558 C 368.730 92.582,364.824 88.688,355.683 79.504 C 354.207 78.022,350.390 74.211,347.200 71.035 C 344.010 67.860,340.860 64.698,340.200 64.010 C 339.540 63.322,335.850 59.637,332.000 55.822 C 328.150 52.007,323.740 47.608,322.200 46.047 C 320.660 44.485,316.915 40.731,313.877 37.704 C 310.839 34.677,307.149 30.987,305.677 29.504 C 304.205 28.022,300.390 24.212,297.200 21.039 C 294.010 17.865,290.831 14.668,290.135 13.934 C 287.092 10.725,275.887 -0.000,275.578 -0.000 C 275.390 -0.000,275.128 0.585,274.997 1.300 M324.446 328.888 C 324.295 331.139,321.140 334.777,318.005 336.317 L 315.800 337.400 195.200 337.602 L 74.600 337.803 194.881 337.902 C 284.228 337.975,315.450 337.883,316.281 337.544 C 319.331 336.300,319.960 335.915,321.552 334.320 C 323.499 332.369,324.933 329.863,324.670 328.870 C 324.508 328.259,324.489 328.260,324.446 328.888 " stroke="none" fill="#b4bcbb" fill-rule="evenodd"></path><path id="path3" d="M81.402 6.798 C 81.003 7.239,80.807 7.600,80.967 7.600 C 81.388 7.600,82.528 6.395,82.312 6.179 C 82.211 6.078,81.802 6.356,81.402 6.798 M75.102 17.800 C 74.997 18.350,75.066 18.800,75.255 18.800 C 75.445 18.800,75.600 18.350,75.600 17.800 C 75.600 17.250,75.531 16.800,75.447 16.800 C 75.362 16.800,75.207 17.250,75.102 17.800 M82.342 232.091 C 79.904 234.406,80.000 233.057,80.000 265.157 C 80.000 297.372,79.914 296.130,82.279 297.990 C 85.423 300.464,89.847 299.701,91.501 296.400 C 91.840 295.725,92.034 292.868,92.101 287.600 L 92.200 279.800 102.600 279.553 C 112.985 279.306,116.628 279.002,117.033 278.347 C 117.151 278.156,117.571 278.000,117.967 278.000 C 118.364 278.000,119.815 277.418,121.194 276.708 C 137.871 268.106,137.536 241.133,120.652 233.022 C 116.611 231.081,116.194 231.039,99.560 230.908 L 83.720 230.782 82.342 232.091 M150.622 232.124 C 146.989 234.348,147.200 232.288,147.200 265.584 C 147.200 298.389,147.061 296.702,149.919 298.479 C 151.701 299.587,174.257 300.096,181.561 299.192 C 186.154 298.624,193.600 296.342,193.600 295.502 C 193.600 295.336,193.793 295.200,194.028 295.200 C 196.330 295.200,204.177 286.671,206.356 281.800 C 206.652 281.140,207.052 280.287,207.247 279.905 C 207.441 279.523,207.600 278.938,207.600 278.605 C 207.600 278.272,207.780 278.000,208.000 278.000 C 208.220 278.000,208.400 277.471,208.400 276.824 C 208.400 276.177,208.580 275.536,208.800 275.400 C 209.020 275.264,209.200 274.389,209.200 273.456 C 209.200 272.523,209.390 271.570,209.621 271.339 C 210.420 270.540,209.602 255.600,208.760 255.600 C 208.562 255.600,208.400 255.148,208.400 254.595 C 208.400 254.042,208.241 253.277,208.047 252.895 C 207.852 252.513,207.471 251.660,207.200 251.000 C 206.705 249.796,206.558 249.501,205.038 246.666 C 201.721 240.480,194.218 234.745,187.000 232.877 C 186.120 232.650,184.659 232.269,183.754 232.032 C 181.359 231.404,151.663 231.486,150.622 232.124 M227.806 232.124 C 224.626 234.031,224.726 232.816,224.876 267.460 L 225.000 296.320 226.389 297.533 C 229.185 299.974,232.995 300.096,235.272 297.819 C 236.875 296.216,237.200 293.648,237.200 282.569 L 237.200 272.400 250.762 272.400 C 265.617 272.400,266.013 272.341,268.439 269.759 C 269.625 268.496,269.571 265.355,268.329 263.460 C 266.456 260.603,266.567 260.623,251.200 260.400 L 237.400 260.200 237.292 251.900 L 237.184 243.600 252.568 243.600 C 262.393 243.600,268.042 243.455,268.200 243.200 C 268.336 242.980,268.725 242.800,269.064 242.800 C 269.864 242.800,272.400 240.264,272.400 239.464 C 272.400 239.125,272.580 238.736,272.800 238.600 C 274.029 237.840,272.707 234.180,270.631 232.597 L 269.324 231.600 248.962 231.624 C 233.956 231.641,228.391 231.772,227.806 232.124 M113.100 242.586 C 113.815 242.754,114.400 243.050,114.400 243.245 C 114.400 243.440,114.655 243.600,114.966 243.600 C 115.841 243.600,119.407 247.211,120.319 249.022 C 123.690 255.711,121.241 263.072,114.400 266.815 C 112.282 267.974,93.837 268.627,92.585 267.588 C 91.791 266.929,91.705 243.255,92.493 242.467 C 93.042 241.918,110.687 242.020,113.100 242.586 M181.800 243.200 C 181.936 243.420,182.461 243.600,182.967 243.600 C 189.870 243.600,197.782 255.084,197.709 265.000 C 197.686 268.187,197.185 271.962,196.750 272.231 C 196.557 272.350,196.400 272.799,196.400 273.229 C 196.400 273.659,196.240 274.323,196.044 274.705 C 195.848 275.087,195.280 276.255,194.781 277.300 C 194.282 278.345,193.723 279.200,193.537 279.200 C 193.352 279.200,193.200 279.443,193.200 279.739 C 193.200 281.903,186.059 286.691,181.251 287.750 C 177.527 288.571,160.465 288.705,159.680 287.920 C 159.157 287.397,158.949 243.584,159.467 243.067 C 159.911 242.623,181.523 242.752,181.800 243.200 M75.102 382.200 C 75.207 382.750,75.362 383.200,75.447 383.200 C 75.531 383.200,75.600 382.750,75.600 382.200 C 75.600 381.650,75.445 381.200,75.255 381.200 C 75.066 381.200,74.997 381.650,75.102 382.200 M81.402 393.202 C 81.802 393.644,82.211 393.922,82.312 393.821 C 82.528 393.605,81.388 392.400,80.967 392.400 C 80.807 392.400,81.003 392.761,81.402 393.202 M368.060 393.042 C 367.762 393.378,367.599 393.732,367.695 393.829 C 367.792 393.926,368.198 393.644,368.598 393.202 C 368.997 392.761,369.161 392.407,368.962 392.415 C 368.763 392.424,368.357 392.705,368.060 393.042 " stroke="none" fill="#fbfcfb" fill-rule="evenodd"></path><path id="path4" d="M194.800 187.599 C 283.348 187.747,315.328 187.920,316.244 188.256 C 319.394 189.411,321.997 191.668,323.531 194.575 L 324.600 196.600 324.600 262.200 L 324.600 327.800 323.565 330.000 C 322.377 332.526,320.264 334.794,318.178 335.784 C 317.384 336.160,316.832 336.565,316.949 336.683 C 317.324 337.057,320.642 334.886,321.919 333.432 C 323.053 332.139,323.510 331.306,324.744 328.281 C 325.348 326.800,325.403 196.573,324.800 196.200 C 324.580 196.064,324.396 195.648,324.390 195.276 C 324.361 193.299,319.717 188.855,316.515 187.740 C 315.271 187.307,293.462 187.229,194.800 187.305 L 74.600 187.397 194.800 187.599 M83.746 230.215 C 81.422 231.234,79.688 233.758,79.402 236.540 C 78.830 242.095,79.362 295.338,80.000 296.385 C 81.176 298.314,83.558 300.021,85.000 299.967 C 85.582 299.945,85.473 299.821,84.600 299.511 C 79.717 297.780,80.000 299.902,80.000 265.012 L 80.000 234.784 80.966 233.254 C 82.808 230.336,82.898 230.323,100.122 230.484 C 115.368 230.627,115.406 230.629,118.048 231.645 C 123.174 233.616,127.212 236.678,129.609 240.414 C 130.321 241.523,130.983 242.351,131.080 242.253 C 131.449 241.884,129.067 238.660,126.801 236.464 C 123.517 233.280,119.630 231.395,113.523 230.022 C 110.568 229.358,85.328 229.521,83.746 230.215 M151.800 230.944 C 150.849 231.207,149.510 232.075,148.500 233.083 L 146.800 234.779 146.800 265.452 L 146.800 296.124 147.821 297.463 C 148.988 298.993,150.740 300.019,152.080 299.958 C 152.808 299.925,152.707 299.819,151.600 299.454 C 146.862 297.891,147.200 300.498,147.201 265.520 C 147.203 231.350,146.962 233.761,150.547 232.025 C 152.352 231.152,152.548 231.143,167.887 231.292 L 183.400 231.442 186.923 232.526 C 198.713 236.154,206.540 244.636,209.322 256.800 C 209.855 259.133,209.855 271.667,209.322 274.000 C 206.070 288.218,196.220 297.380,182.000 299.413 C 178.933 299.852,178.801 299.904,180.649 299.950 C 183.384 300.017,189.652 298.389,192.831 296.785 C 209.039 288.611,215.421 266.951,206.936 248.918 C 203.451 241.511,193.773 232.800,189.028 232.800 C 188.709 232.800,188.348 232.640,188.227 232.444 C 187.982 232.048,186.906 231.840,180.800 231.010 C 175.644 230.308,154.272 230.260,151.800 230.944 M229.297 230.939 C 226.916 231.584,225.047 233.197,224.476 235.102 C 223.720 237.628,223.802 294.230,224.565 296.051 C 225.517 298.324,227.836 300.032,229.874 299.961 C 230.824 299.928,230.735 299.850,229.299 299.461 C 224.292 298.105,224.400 298.856,224.400 265.313 C 224.400 232.701,224.314 233.441,228.287 231.748 C 230.468 230.819,268.113 230.957,269.992 231.901 C 274.136 233.982,274.203 239.916,270.112 242.460 C 268.608 243.395,268.515 243.401,253.000 243.600 L 237.400 243.800 237.400 251.800 L 237.400 259.800 251.232 260.000 L 265.064 260.200 266.566 261.346 C 270.508 264.355,270.667 268.925,266.910 271.261 C 265.419 272.188,265.226 272.202,251.400 272.400 L 237.400 272.600 237.200 284.200 C 237.067 291.916,236.845 296.068,236.537 296.600 C 235.833 297.816,234.336 299.051,233.000 299.518 C 232.064 299.845,231.985 299.944,232.641 299.968 C 233.834 300.013,236.009 298.430,236.863 296.897 C 237.507 295.738,237.599 294.334,237.694 284.297 L 237.800 273.000 251.800 272.800 C 267.629 272.574,267.659 272.568,269.515 269.265 C 270.869 266.857,270.387 264.419,268.088 262.043 C 265.917 259.798,266.032 259.815,251.400 259.600 L 237.800 259.400 237.691 251.700 L 237.583 244.000 252.765 244.000 C 268.811 244.000,269.368 243.942,271.315 242.085 C 275.515 238.079,273.959 232.244,268.323 230.861 C 265.732 230.225,231.685 230.293,229.297 230.939 M92.843 242.548 C 92.520 242.938,92.419 246.615,92.494 255.248 L 92.600 267.400 102.600 267.400 C 112.298 267.400,112.654 267.372,114.400 266.466 C 125.298 260.810,123.172 245.222,111.123 242.434 C 108.234 241.766,93.416 241.858,92.843 242.548 M114.289 243.910 C 123.635 248.864,123.069 262.748,113.373 266.376 C 111.388 267.118,110.279 267.200,102.185 267.200 L 93.200 267.200 93.200 254.964 L 93.200 242.727 102.900 242.871 C 112.026 243.006,112.700 243.067,114.289 243.910 M131.200 242.871 C 131.200 242.998,131.496 243.799,131.857 244.651 C 132.218 245.503,132.738 247.100,133.012 248.200 C 133.370 249.632,133.524 249.892,133.556 249.115 C 133.601 248.009,132.186 243.709,131.551 243.020 C 131.358 242.811,131.200 242.744,131.200 242.871 M159.848 243.420 C 159.527 244.255,159.523 286.533,159.843 287.367 C 160.056 287.924,161.251 287.989,169.743 287.908 L 179.400 287.815 169.900 287.700 L 160.400 287.586 160.400 265.393 L 160.400 243.200 169.500 243.214 C 185.946 243.239,191.444 246.060,195.597 256.600 C 196.791 259.631,197.290 267.873,196.447 270.640 C 196.252 271.278,195.856 272.610,195.565 273.600 C 193.666 280.074,188.440 285.096,181.600 287.022 C 180.246 287.403,180.059 287.537,180.847 287.564 C 181.422 287.584,182.862 287.206,184.047 286.725 C 202.809 279.103,201.507 248.250,182.221 243.461 C 179.168 242.703,160.136 242.668,159.848 243.420 M133.687 255.200 C 133.683 258.259,133.804 259.812,134.000 259.200 C 134.404 257.938,134.404 252.988,134.000 251.400 C 133.811 250.657,133.692 252.104,133.687 255.200 M133.022 261.822 C 132.872 262.625,132.838 263.372,132.948 263.482 C 133.058 263.592,133.272 263.025,133.422 262.222 C 133.573 261.419,133.606 260.673,133.496 260.563 C 133.386 260.453,133.173 261.019,133.022 261.822 M132.210 264.600 C 130.436 269.620,125.885 274.678,121.135 276.910 C 116.352 279.158,115.424 279.297,103.400 279.562 L 92.600 279.800 92.400 287.863 L 92.200 295.927 90.979 297.435 C 90.308 298.264,89.138 299.167,88.379 299.441 C 87.559 299.737,87.305 299.951,87.753 299.970 C 91.588 300.125,93.200 296.045,93.200 286.180 L 93.200 280.000 103.300 279.986 C 116.081 279.968,118.376 279.482,124.247 275.552 C 128.144 272.944,133.323 266.005,132.669 264.267 C 132.571 264.006,132.369 264.152,132.210 264.600 M314.200 337.200 L 313.400 337.544 314.200 337.544 C 314.640 337.544,315.360 337.389,315.800 337.200 L 316.600 336.856 315.800 336.856 C 315.360 336.856,314.640 337.011,314.200 337.200 " stroke="none" fill="#c3df96" fill-rule="evenodd"></path></g></svg>