<?xml version="1.0"?>
<svg xmlns="http://www.w3.org/2000/svg" xmlns:xlink="http://www.w3.org/1999/xlink" xmlns:svgjs="http://svgjs.com/svgjs" version="1.1" width="512" height="512" x="0" y="0" viewBox="0 0 512 512" style="enable-background:new 0 0 512 512" xml:space="preserve" class=""><g><g xmlns="http://www.w3.org/2000/svg"><g><g><path d="m478.387 321.984h-28.847l-51.232-62.619c-6.409-7.836-15.892-12.33-26.016-12.33h-106.292v-57.02h94.969c18.534 0 33.613-15.079 33.613-33.613v-66.359c0-18.534-15.079-33.613-33.613-33.613h-60.565c-5.522 0-10 4.478-10 10s4.478 10 10 10h60.565c7.507 0 13.613 6.106 13.613 13.613v66.359c0 7.507-6.106 13.613-13.613 13.613h-209.938c-7.507 0-13.613-6.106-13.613-13.613v-66.359c0-7.507 6.106-13.613 13.613-13.613h60.666c5.522 0 10-4.478 10-10s-4.478-10-10-10h-60.666c-18.534 0-33.613 15.079-33.613 33.613v66.359c0 18.534 15.079 33.613 33.613 33.613h94.969v57.02h-106.697c-10.124 0-19.606 4.494-26.015 12.329l-51.233 62.62h-28.442c-18.534 0-33.613 15.079-33.613 33.614v66.359c0 18.534 15.079 33.613 33.613 33.613h66.359c18.534 0 33.613-15.079 33.613-33.613v-66.359c0-18.534-15.079-33.613-33.613-33.613h-12.077l40.873-49.957c2.596-3.173 6.436-4.992 10.535-4.992h106.697v54.949h-23.18c-18.534 0-33.613 15.079-33.613 33.613v66.359c0 18.534 15.079 33.613 33.613 33.613h66.359c18.534 0 33.613-15.079 33.613-33.613v-66.359c0-18.534-15.079-33.613-33.613-33.613h-23.179v-54.949h106.292c4.1 0 7.939 1.819 10.536 4.993l40.872 49.956h-11.673c-18.534 0-33.613 15.079-33.613 33.613v66.359c0 18.534 15.079 33.613 33.613 33.613h66.359c18.534 0 33.613-15.079 33.613-33.613v-66.359c.001-18.535-15.078-33.614-33.612-33.614zm-364.801 33.614v66.359c0 7.507-6.106 13.613-13.613 13.613h-66.36c-7.507 0-13.613-6.106-13.613-13.613v-66.359c0-7.507 6.106-13.613 13.613-13.613h66.359c7.507-.001 13.614 6.106 13.614 13.613zm189.207 0v66.359c0 7.507-6.106 13.613-13.613 13.613h-66.36c-7.507 0-13.613-6.106-13.613-13.613v-66.359c0-7.507 6.106-13.613 13.613-13.613h66.359c7.508-.001 13.614 6.106 13.614 13.613zm189.207 66.359c0 7.507-6.106 13.613-13.613 13.613h-66.359c-7.507 0-13.613-6.106-13.613-13.613v-66.359c0-7.507 6.106-13.613 13.613-13.613h66.359c7.507 0 13.613 6.106 13.613 13.613z" fill="#73b100" data-original="#000000" style="" class=""/><path d="m246.77 70.25c2.067 5.039 8.028 7.494 13.05 5.41 5.03-2.087 7.501-8.014 5.41-13.051-2.091-5.036-8.012-7.509-13.06-5.42-5.024 2.079-7.488 8.045-5.4 13.061z" fill="#73b100" data-original="#000000" style="" class=""/></g></g></g></g></svg>
