<svg height="511pt" viewBox="-24 1 511 511.99925" width="511pt" xmlns="http://www.w3.org/2000/svg"><path d="m233.082031 158.753906c-38.347656 0-69.429687 31.082032-69.429687 69.425782v28.734374c4.640625-4.300781 11.242187-6.636718 17.683594-5.777343v-3.457031c0-2.75 2.347656-4.921876 5.074218-4.71875 26.84375 1.929687 54.160156-6.601563 74.816406-20.09375 1.925782-1.261719 4.480469-.949219 6.046876.738281 17.660156 18.980469 17.550781 18.246093 17.550781 20.722656v6.792969c7.066406-1.058594 13.328125 1.125 17.683593 5.171875v-28.113281c0-38.34375-31.082031-69.425782-69.425781-69.425782zm0 0" fill="#3e4b5a"/><path d="m193.652344 228.183594c0-33.195313 23.296875-60.929688 54.429687-67.785156-4.832031-1.066407-9.847656-1.644532-15-1.644532-38.347656 0-69.429687 31.082032-69.429687 69.429688v28.734375c4.640625-4.300781 11.242187-6.636719 17.683594-5.777344v-3.460937c0-2.75 2.347656-4.921876 5.074218-4.714844 2.410156.171875 4.828125.257812 7.242188.265625zm0 0" fill="#303f49"/><path d="m225.152344 350.433594c2.800781-1.085938 4.644531-3.78125 4.644531-6.785156v-9.820313c-9.558594-.644531-18.027344-3.570313-25.113281-8.097656v21.6875c0 1.9375-.777344 3.742187-2.078125 5.074219zm0 0" fill="#ffbeab"/><path d="m195.277344 366.933594c22.128906 23.515625 53.414062 23.515625 75.542968 0l7.859376-8.347656-11.558594-4.476563c-2.660156-1.03125-4.414063-3.589844-4.414063-6.441406v-22.703125c-8.21875 5.667968-18.167969 9-28.886719 9-11.214843 0-21.074218-3.082032-29.132812-8.230469v21.683594c0 3.003906-1.847656 5.699219-4.648438 6.785156l-12.269531 4.757813zm0 0" fill="#ffbeab"/><path d="m229.796875 333.828125c-9.558594-.644531-18.027344-3.570313-25.113281-8.097656v21.6875c0 3.003906-1.84375 5.699219-4.644532 6.785156l-12.269531 4.753906c8.742188 9.292969 20.503907 23.941407 42.027344 25.484375zm0 0" fill="#f7af9f"/><path d="m283.792969 248.023438v38.03125c0 .414062-.023438.820312-.03125 1.230468 13.460937 2.039063 25.035156-7.683594 25.035156-19.628906 0-11.964844-11.585937-21.644531-25.003906-19.632812zm0 0" fill="#ffbeab"/><path d="m182.371094 248.039062c-11.71875-1.566406-25.003906 7.425782-25.003906 19.617188 0 11.929688 11.550781 21.671875 25.035156 19.628906-.042969-1.785156-.03125 3.941406-.03125-39.246094zm0 0" fill="#ffbeab"/><path d="m299.910156 251.578125c-4.410156-2.980469-10.070312-4.460937-16.117187-3.554687v38.03125c0 .414062-.019531.820312-.03125 1.230468 6.066406.917969 11.734375-.566406 16.148437-3.550781zm0 0" fill="#f7af9f"/><path d="m182.371094 283.738281c-5.382813-3.640625-8.886719-9.523437-8.886719-16.082031 0-6.421875 3.6875-11.953125 8.886719-15.523438v-4.09375c-11.71875-1.566406-25.003906 7.425782-25.003906 19.617188 0 11.929688 11.550781 21.671875 25.035156 19.628906-.035156-1.386718-.03125-.027344-.03125-3.546875zm0 0" fill="#f7af9f"/><path d="m267.273438 220.503906c-1.566407-1.683594-4.121094-1.996094-6.046876-.734375-20.65625 13.492188-47.972656 22.023438-74.816406 20.09375-2.722656-.207031-5.070312 1.964844-5.070312 4.714844v41.476563c0 26.660156 20.886718 51.007812 52.480468 51.007812 28.125 0 51.007813-22.882812 51.007813-51.007812v-44.824219c0-2.476563.105469-1.742188-17.554687-20.726563zm0 0" fill="#ffcdbf"/><path d="m211.339844 286.054688v-47.257813c-8.214844 1.253906-16.59375 1.664063-24.929688 1.066406-2.722656-.207031-5.070312 1.964844-5.070312 4.714844v41.476563c0 26.660156 20.886718 51.007812 52.480468 51.007812 5.042969 0 9.914063-.746094 14.519532-2.117188-22.75-6.457031-37-26.878906-37-48.890624zm0 0" fill="#ffbeab"/><path d="m339.453125 382.121094-62.300781-24.125-8.027344 8.53125c-21.117188 22.4375-50.96875 22.4375-72.085938 0l-7.699218-8.179688-61.324219 23.773438s-28.382813 11.671875-28.382813 44.03125v71.816406c0 3.648438 2.953126 6.601562 6.601563 6.601562h255.058594c3.617187 0 6.546875-2.929687 6.546875-6.542968v-71.875c0-32.359375-28.386719-44.03125-28.386719-44.03125zm0 0" fill="#feca57"/><path d="m129.1875 413.152344c0-21.125 12.09375-33.429688 20.492188-39.425782l-21.660157 8.398438s-28.386719 11.667969-28.386719 44.027344v71.816406c0 3.648438 2.957032 6.605469 6.601563 6.605469h22.953125zm0 0" fill="#f4b537"/><path d="m123.730469 220.808594h-72.375c-1.058594 0-1.917969-.859375-1.917969-1.921875v-9.789063c0-2.085937-1.796875-3.445312-3.324219-2.511718l-36.628906 22.414062c-1.878906 1.148438-1.878906 3.878906 0 5.03125l36.628906 22.414062c1.527344.933594 3.324219-.425781 3.324219-2.515624v-9.785157c0-1.0625.859375-1.921875 1.917969-1.921875h72.730469c5.980468 0 10.816406-4.902344 10.703124-10.910156-.105468-5.894531-5.164062-10.503906-11.058593-10.503906zm0 0" fill="#338def"/><path d="m454.828125 229-36.632813-22.414062c-1.527343-.933594-3.320312.425781-3.320312 2.511718v9.789063c0 1.0625-.859375 1.921875-1.921875 1.921875h-72.371094c-5.898437 0-10.953125 4.609375-11.0625 10.503906-.109375 6.007812 4.726563 10.910156 10.707031 10.910156h72.726563c1.0625 0 1.921875.859375 1.921875 1.917969v9.789063c0 2.089843 1.796875 3.449218 3.320312 2.515624l36.632813-22.417968c1.878906-1.148438 1.878906-3.875 0-5.027344zm0 0" fill="#338def"/><path d="m234.667969 8.839844c-1.148438-1.875-3.878907-1.875-5.027344 0l-22.414063 36.632812c-.9375 1.527344.421876 3.324219 2.511719 3.324219h9.789063c1.0625 0 1.921875.859375 1.921875 1.917969v72.375c0 5.894531 4.609375 10.953125 10.503906 11.058594 6.003906.113281 10.910156-4.722657 10.910156-10.703126v-72.730468c0-1.058594.859375-1.917969 1.917969-1.917969h9.789062c2.089844 0 3.449219-1.796875 2.511719-3.324219zm0 0" fill="#338def"/><path d="m370.285156 111.242188 6.921875 6.921874c1.476563 1.476563 3.707031 1.167969 4.128907-.570312l10.050781-41.753906c.515625-2.140625-1.414063-4.070313-3.554688-3.554688l-41.753906 10.050782c-1.738281.417968-2.050781 2.652343-.570313 4.128906l6.921876 6.921875c.75.75.75 1.964843 0 2.714843l-51.175782 51.175782c-4.167968 4.167968-4.484375 11.003906-.394531 15.25 4.167969 4.324218 11.058594 4.371094 15.285156.144531l51.425781-51.429687c.75-.75 1.964844-.75 2.714844 0zm0 0" fill="#338def"/><path d="m111.882812 96.101562c-.75-.75-.75-1.964843 0-2.714843l6.921876-6.925781c1.476562-1.476563 1.167968-3.707032-.574219-4.125l-41.75-10.050782c-2.140625-.515625-4.070313 1.414063-3.554688 3.554688l10.050781 41.75c.417969 1.742187 2.648438 2.050781 4.125.574218l6.921876-6.921874c.75-.75 1.964843-.75 2.714843 0l51.429688 51.425781c4.226562 4.230469 11.113281 4.179687 15.28125-.144531 4.09375-4.242188 3.777343-11.078126-.390625-15.25zm0 0" fill="#338def"/><g fill="#1c78d3"><path d="m23.285156 234.03125c-1.878906-1.152344-1.878906-3.878906 0-5.03125l26.152344-16v-3.902344c0-2.085937-1.796875-3.445312-3.324219-2.511718l-36.632812 22.414062c-1.875 1.148438-1.875 3.878906 0 5.03125l36.632812 22.414062c1.527344.933594 3.324219-.425781 3.324219-2.515624v-3.894532zm0 0"/><path d="m428.675781 218.886719v-5.886719l-10.480469-6.414062c-1.527343-.933594-3.320312.425781-3.320312 2.515624v9.789063c0 1.058594-.859375 1.917969-1.921875 1.917969h13.804687c1.058594 0 1.917969-.859375 1.917969-1.921875zm0 0"/><path d="m343.320312 231.3125c.109376-5.894531 5.167969-10.503906 11.0625-10.503906h-13.804687c-5.894531 0-10.949219 4.609375-11.058594 10.503906-.109375 6.007812 4.726563 10.910156 10.707031 10.910156h13.800782c-5.980469 0-10.816406-4.902344-10.707032-10.910156zm0 0"/><path d="m428.675781 244.140625c0-1.058594-.859375-1.917969-1.917969-1.917969h-13.804687c1.0625 0 1.921875.859375 1.921875 1.917969v9.789063c0 2.089843 1.796875 3.449218 3.320312 2.515624l10.480469-6.414062zm0 0"/><path d="m235.25 123.089844v-72.375c0-1.058594-.859375-1.917969-1.917969-1.917969h-9.789062c-2.089844 0-3.449219-1.796875-2.515625-3.324219l18.03125-29.460937-4.390625-7.167969c-1.148438-1.878906-3.875-1.878906-5.027344 0l-22.414063 36.628906c-.933593 1.527344.425782 3.324219 2.511719 3.324219h9.792969c1.058594 0 1.917969.859375 1.917969 1.917969v72.375c0 5.894531 4.609375 10.953125 10.503906 11.0625 2.738281.050781 5.238281-.933594 7.160156-2.582032-2.371093-2.054687-3.863281-5.128906-3.863281-8.480468zm0 0"/><path d="m312.804688 153.652344 51.175781-51.179688c.75-.75.75-1.964844 0-2.714844l-6.921875-6.921874c-1.476563-1.476563-1.167969-3.707032.570312-4.125l32.542969-7.835938 1.214844-5.039062c.515625-2.140626-1.414063-4.070313-3.554688-3.554688l-41.753906 10.054688c-1.738281.417968-2.050781 2.648437-.570313 4.125l6.921876 6.921874c.75.75.75 1.964844 0 2.714844l-51.175782 51.175782c-4.167968 4.171874-4.484375 11.007812-.394531 15.25 2.546875 2.640624 6.101563 3.679687 9.449219 3.132812-1.632813-3.980469-.722656-8.785156 2.496094-12.003906zm0 0"/><path d="m91.527344 109.84375-8.671875-36.023438-6.375-1.535156c-2.144531-.515625-4.070313 1.414063-3.558594 3.554688l10.054687 41.753906c.417969 1.738281 2.648438 2.046875 4.125.570312l6.859376-6.859374c-1.105469.1875-2.160157-.324219-2.433594-1.460938zm0 0"/><path d="m156.71875 154.917969-51.425781-51.425781c-.75-.75-1.964844-.75-2.714844 0l-6.921875 6.921874c-.105469.105469-.222656.183594-.339844.273438.515625-.015625 1.03125.164062 1.421875.554688l51.429688 51.429687c4.226562 4.226563 11.113281 4.179687 15.28125-.144531 1.292969-1.339844 2.140625-2.933594 2.574219-4.625-3.289063.535156-6.773438-.449219-9.304688-2.984375zm0 0"/></g><path d="m5.355469 240.355469 36.632812 22.414062c6.554688 4.011719 14.738281-.960937 14.738281-8.910156v-4.207031h67.148438c10.039062 0 18.207031-8.167969 18.207031-18.210938 0-10.039062-8.167969-18.207031-18.207031-18.207031h-67.148438v-4.207031c0-7.972656-8.199218-12.914063-14.738281-8.910156l-36.632812 22.414062c-6.472657 3.960938-6.476563 13.855469 0 17.824219zm36.371093-22.492188v2.871094c0 4.144531 3.355469 7.5 7.5 7.5h74.648438c1.769531 0 3.207031 1.441406 3.207031 3.207031 0 1.769532-1.4375 3.210938-3.207031 3.210938h-74.648438c-4.144531 0-7.5 3.355468-7.5 7.5v2.871094l-22.191406-13.582032zm0 0"/><path d="m421.902344 200.117188c-6.539063-4.003907-14.742188.941406-14.742188 8.910156v4.207031h-67.144531c-10.042969 0-18.210937 8.167969-18.210937 18.207031 0 10.042969 8.167968 18.210938 18.210937 18.210938h67.144531v4.207031c0 7.964844 8.199219 12.914063 14.742188 8.910156l36.632812-22.414062c6.472656-3.964844 6.476563-13.859375-.003906-17.824219zm.261718 44.90625v-2.875c0-4.140626-3.359374-7.5-7.5-7.5h-74.648437c-1.769531 0-3.210937-1.4375-3.210937-3.207032 0-1.769531 1.441406-3.207031 3.210937-3.207031h74.648437c4.140626 0 7.5-3.359375 7.5-7.5v-2.871094l22.191407 13.578125zm0 0"/><path d="m295.484375 167.902344c7.117187 7.113281 18.636719 7.117187 25.753906 0l47.480469-47.480469 2.976562 2.976563c5.632813 5.628906 14.925782 3.328124 16.722657-4.125l10.050781-41.75c1.777344-7.375-5.214844-14.382813-12.601562-12.605469l-41.753907 10.050781c-7.453125 1.796875-9.753906 11.089844-4.121093 16.722656l2.976562 2.976563-47.480469 47.480469c-7.117187 7.117187-7.117187 18.636718-.003906 25.753906zm10.609375-15.144532 52.785156-52.785156c2.925782-2.925781 2.929688-7.675781 0-10.605468l-2.03125-2.03125 25.292969-6.089844-6.085937 25.296875-2.03125-2.03125c-2.929688-2.929688-7.679688-2.929688-10.609376 0l-52.785156 52.78125c-1.25 1.253906-3.28125 1.253906-4.535156 0-1.253906-1.25-1.253906-3.285157 0-4.535157zm0 0"/><path d="m119.777344 74.972656-41.753906-10.054687c-7.375-1.773438-14.378907 5.214843-12.601563 12.605469l10.050781 41.75c1.796875 7.457031 11.089844 9.753906 16.722656 4.121093l2.976563-2.972656 47.480469 47.480469c7.097656 7.097656 18.652344 7.097656 25.753906 0 7.097656-7.101563 7.097656-18.652344 0-25.75l-47.484375-47.480469 2.976563-2.976563c5.632812-5.632812 3.332031-14.929687-4.121094-16.722656zm38.019531 77.785156c1.25 1.25 1.25 3.285157 0 4.535157-1.253906 1.25-3.285156 1.25-4.535156 0l-52.785157-52.785157c-2.929687-2.925781-7.675781-2.925781-10.609374 0l-2.027344 2.03125-6.089844-25.292968 25.292969 6.089844-2.03125 2.03125c-2.929688 2.929687-2.929688 7.679687 0 10.605468zm0 0"/><path d="m185.496094 351.28125c-66.34375 25.722656-61.503906 23.789062-63.273438 24.664062-6.96875 3.453126-31.226562 17.792969-31.226562 50.132813v65.484375c0 11.265625 9.164062 20.4375 20.4375 20.4375h103.664062c4.144532 0 7.503906-3.359375 7.503906-7.5 0-4.144531-3.359374-7.5-7.503906-7.5h-60.789062v-59.796875c0-4.144531-3.359375-7.5-7.5-7.5-4.144532 0-7.5 3.355469-7.5 7.5v59.796875h-27.875c-2.996094 0-5.4375-2.4375-5.4375-5.4375v-65.484375c0-17.285156 11.046875-31.625 23.695312-37.074219 7.3125-2.835937 50.113282-19.425781 56.511719-21.910156l4.234375 4.5c22.8125 24.238281 60.207031 24.230469 83.011719 0l4.566406-4.851562c6.496094 2.511718 52.132813 20.1875 57.492187 22.261718 1.160157.503906 23.691407 10.617188 23.691407 37.074219v65.484375c0 2.996094-2.4375 5.4375-5.433594 5.4375h-27.875v-59.796875c0-4.144531-3.355469-7.5-7.5-7.5s-7.5 3.355469-7.5 7.5v59.796875h-60.789063c-4.144531 0-7.5 3.355469-7.5 7.5 0 4.140625 3.355469 7.5 7.5 7.5h103.667969c11.269531 0 20.433594-9.167969 20.433594-20.4375v-65.484375c0-32.339844-24.257813-46.679687-31.226563-50.132813-1.960937-.96875 4.910157 1.765626-73.90625-28.757812v-15.4375c11.289063-8.996094 19.199219-22.058594 21.457032-36.957031 14.3125-1.578125 24.632812-13.390625 24.632812-27.207031 0-6.425782-2.253906-12.574219-6.289062-17.429688v-22.046875c0-42.417969-34.507813-76.929687-76.925782-76.929687-42.417968 0-76.929687 34.511718-76.929687 76.929687v22.628906c-4.078125 4.796875-6.285156 10.648438-6.285156 16.847657 0 13.742187 10.25 25.648437 24.679687 27.210937 2.285156 14.523437 10.148438 28.484375 22.636719 37.890625v14.503906zm105.695312-71.855469v-23.679687c5.300782 1.554687 8.96875 6.308594 8.96875 11.839844 0 5.445312-3.550781 10.253906-8.96875 11.839843zm-121.175781-51.316406c0-34.148437 27.78125-61.929687 61.929687-61.929687 34.144532 0 61.925782 27.78125 61.925782 61.929687v12.824219c-.882813-.207032-1.777344-.367188-2.6875-.488282-.101563-3.648437-1.574219-5.621093-4.675782-9.125-1.960937-2.226562-8.902343-9.574218-14.878906-15.996093-4.085937-4.394531-10.683594-5.148438-15.640625-1.910157-17.863281 11.667969-39.058593 18.375-59.523437 19.066407-10.382813.351562-14.625-1.773438-19.84375 3.054687-1.515625 1.40625-2.683594 3.3125-3.273438 5.066406-1.054687.152344-2.53125.476563-3.332031.6875zm-6.28125 39.476563c0-5.242188 3.9375-9.585938 8.96875-11.40625v23.246093c-5.472656-1.597656-8.96875-6.449219-8.96875-11.839843zm23.96875 18.398437c0-20.136719 0-18.308594 0-38.539063 25.234375 1.132813 52.105469-6.140624 74.519531-20.210937 7.605469 8.15625 12.230469 13 13.96875 15.03125 0 50.996094.003906 42.789063-.015625 44.273437-.773437 25.472657-21.007812 42.949219-43.492187 42.949219-26.488282 0-44.980469-20.40625-44.980469-43.503906zm66.367187 54.457031v7.152344c0 5.777344 3.546876 11.066406 8.859376 13.289062-17.808594 18.914063-44.972657 18.007813-61.632813.359376 6.292969-2.4375 9.753906-8.09375 9.753906-13.898438v-6.539062c13.0625 4.726562 28.855469 5.210937 43.019531-.363282zm0 0"/><path d="m235.152344 48.726562v22.0625c0 4.144532 3.355468 7.5 7.5 7.5 4.144531 0 7.5-3.355468 7.5-7.5v-14.5625h4.207031c7.972656 0 12.914063-8.203124 8.914063-14.738281l-22.417969-36.628906c-3.957031-6.472656-13.855469-6.484375-17.824219-.003906l-22.414062 36.632812c-4.003907 6.542969.953124 14.738281 8.910156 14.738281h4.207031v67.148438c0 10.039062 8.171875 18.207031 18.210937 18.207031 10.039063 0 18.207032-8.167969 18.207032-18.207031v-17.582031c0-4.140625-3.355469-7.5-7.5-7.5-4.144532 0-7.5 3.359375-7.5 7.5v17.582031c0 1.769531-1.4375 3.207031-3.207032 3.207031-1.769531 0-3.207031-1.4375-3.207031-3.207031v-74.648438c0-4.144531-3.359375-7.5-7.5-7.5h-2.875l13.582031-22.195312 13.578126 22.195312h-2.871094c-4.144532 0-7.5 3.355469-7.5 7.5zm0 0"/></svg>