<svg id="XMLID_30_" xmlns="http://www.w3.org/2000/svg" width="20.92" height="31.799" viewBox="0 0 20.92 31.799">
  <path id="XMLID_31_" d="M83.828,14.226H70.021V7.95a5.439,5.439,0,1,1,10.879,0v2.51a1.255,1.255,0,1,0,2.51,0V7.95a7.95,7.95,0,1,0-15.9,0v6.276h-.418A2.092,2.092,0,0,0,65,16.318V29.707A2.092,2.092,0,0,0,67.092,31.8H83.828a2.092,2.092,0,0,0,2.092-2.092V16.318A2.092,2.092,0,0,0,83.828,14.226ZM72.95,21.339a2.51,2.51,0,1,1,3.766,2.174V27.2H74.2V23.513A2.509,2.509,0,0,1,72.95,21.339Z" transform="translate(-65)" fill="#c1c1c1"/>
</svg>
