<svg id="Calendar" xmlns="http://www.w3.org/2000/svg" width="85.626" height="85.626" viewBox="0 0 85.626 85.626">
  <path id="Trazado_1" data-name="Trazado 1" d="M80.491,10.563H73.355V7.708a5.708,5.708,0,1,0-11.417,0v2.854H50.522V7.708a5.708,5.708,0,0,0-11.417,0v2.854H27.688V7.708a5.708,5.708,0,1,0-11.417,0v2.854H9.136A7.136,7.136,0,0,0,2,17.7V74.782a7.136,7.136,0,0,0,7.136,7.136H49.094a1.427,1.427,0,1,0,0-2.854H9.136a4.294,4.294,0,0,1-4.281-4.281V30.542H84.772V54.8a1.427,1.427,0,0,0,2.854,0V17.7a7.136,7.136,0,0,0-7.136-7.136Zm-15.7-2.854a2.854,2.854,0,1,1,5.708,0v8.563a2.854,2.854,0,1,1-5.708,0Zm-22.834,0a2.854,2.854,0,1,1,5.708,0v8.563a2.854,2.854,0,1,1-5.708,0Zm-22.834,0a2.854,2.854,0,1,1,5.708,0v8.563a2.854,2.854,0,1,1-5.708,0ZM84.772,27.688H4.854V17.7a4.294,4.294,0,0,1,4.281-4.281h7.136v2.854a5.708,5.708,0,1,0,11.417,0V13.417H39.1v2.854a5.708,5.708,0,1,0,11.417,0V13.417H61.938v2.854a5.708,5.708,0,1,0,11.417,0V13.417h7.136A4.294,4.294,0,0,1,84.772,17.7Z" transform="translate(-2 -2)" fill="#73b100"/>
  <path id="Trazado_2" data-name="Trazado 2" d="M33.417,29.854A2.854,2.854,0,0,0,30.563,27H24.854A2.854,2.854,0,0,0,22,29.854v4.281a2.854,2.854,0,0,0,2.854,2.854h5.708a2.854,2.854,0,0,0,2.854-2.854Zm-8.563,4.281V29.854h5.708v4.281Z" transform="translate(6.542 8.678)" fill="#73b100"/>
  <path id="Trazado_3" data-name="Trazado 3" d="M21.417,29.854A2.854,2.854,0,0,0,18.563,27H12.854A2.854,2.854,0,0,0,10,29.854v4.281a2.854,2.854,0,0,0,2.854,2.854h5.708a2.854,2.854,0,0,0,2.854-2.854Zm-8.563,4.281V29.854h5.708v4.281Z" transform="translate(1.417 8.678)" fill="#73b100"/>
  <path id="Trazado_4" data-name="Trazado 4" d="M54.563,36.99a2.854,2.854,0,0,0,2.854-2.854V29.854A2.854,2.854,0,0,0,54.563,27H48.854A2.854,2.854,0,0,0,46,29.854v4.281a2.854,2.854,0,0,0,2.854,2.854Zm-5.708-7.136h5.708v4.281H48.854Z" transform="translate(16.793 8.678)" fill="#73b100"/>
  <path id="Trazado_5" data-name="Trazado 5" d="M33.417,38.854A2.854,2.854,0,0,0,30.563,36H24.854A2.854,2.854,0,0,0,22,38.854v4.281a2.854,2.854,0,0,0,2.854,2.854h5.708a2.854,2.854,0,0,0,2.854-2.854Zm-8.563,4.281V38.854h5.708v4.281Z" transform="translate(6.542 12.522)" fill="#73b100"/>
  <path id="Trazado_6" data-name="Trazado 6" d="M21.417,38.854A2.854,2.854,0,0,0,18.563,36H12.854A2.854,2.854,0,0,0,10,38.854v4.281a2.854,2.854,0,0,0,2.854,2.854h5.708a2.854,2.854,0,0,0,2.854-2.854Zm-8.563,4.281V38.854h5.708v4.281Z" transform="translate(1.417 12.522)" fill="#73b100"/>
  <path id="Trazado_7" data-name="Trazado 7" d="M30.563,45H24.854A2.854,2.854,0,0,0,22,47.854v4.281a2.854,2.854,0,0,0,2.854,2.854h5.708a2.854,2.854,0,0,0,2.854-2.854V47.854A2.854,2.854,0,0,0,30.563,45Zm-5.708,7.136V47.854h5.708v4.281Z" transform="translate(6.542 16.366)" fill="#73b100"/>
  <path id="Trazado_8" data-name="Trazado 8" d="M36.854,36.99h5.708a2.854,2.854,0,0,0,2.854-2.854V29.854A2.854,2.854,0,0,0,42.563,27H36.854A2.854,2.854,0,0,0,34,29.854v4.281A2.854,2.854,0,0,0,36.854,36.99Zm0-7.136h5.708v4.281H36.854Z" transform="translate(11.667 8.678)" fill="#73b100"/>
  <path id="Trazado_9" data-name="Trazado 9" d="M34,43.136a2.854,2.854,0,0,0,2.854,2.854,1.427,1.427,0,1,0,0-2.854V38.854h5.708a1.427,1.427,0,1,0,0-2.854H36.854A2.854,2.854,0,0,0,34,38.854Z" transform="translate(11.667 12.522)" fill="#73b100"/>
  <path id="Trazado_10" data-name="Trazado 10" d="M18.563,45H12.854A2.854,2.854,0,0,0,10,47.854v4.281a2.854,2.854,0,0,0,2.854,2.854h5.708a2.854,2.854,0,0,0,2.854-2.854V47.854A2.854,2.854,0,0,0,18.563,45Zm-5.708,7.136V47.854h5.708v4.281Z" transform="translate(1.417 16.366)" fill="#73b100"/>
  <path id="Trazado_11" data-name="Trazado 11" d="M54.552,36A18.552,18.552,0,1,0,73.1,54.552,18.552,18.552,0,0,0,54.552,36Zm0,34.251a15.7,15.7,0,1,1,15.7-15.7A15.7,15.7,0,0,1,54.552,70.251Z" transform="translate(12.522 12.522)" fill="#73b100"/>
  <path id="Trazado_12" data-name="Trazado 12" d="M60.339,44.933l-11.1,11.1-5.045-5.046a1.427,1.427,0,1,0-2.018,2.018L48.23,59.06a1.427,1.427,0,0,0,2.018,0L62.357,46.951a1.427,1.427,0,1,0-2.018-2.018Z" transform="translate(14.981 16.158)" fill="#73b100"/>
</svg>
