<svg id="Grupo_90" data-name="Grupo 90" xmlns="http://www.w3.org/2000/svg" width="57.868" height="63.292" viewBox="0 0 57.868 63.292">
  <circle id="Elipse_8" data-name="Elipse 8" cx="28.934" cy="28.934" r="28.934" transform="translate(0 5.424)" fill="#e5e5e5"/>
  <g id="video_1_" data-name="video (1)" transform="translate(13.398 0)">
    <path id="Trazado_95" data-name="Trazado 95" d="M43.484,20.4H9.812l32.342-9.369a.987.987,0,0,0,.674-1.222L41.135,3.964A5.525,5.525,0,0,0,35.851,0a5.468,5.468,0,0,0-1.52.216L3.965,9.013a5.505,5.505,0,0,0-3.747,6.8l1.654,5.708V45.039a5.5,5.5,0,0,0,5.492,5.493H19.223a.987.987,0,1,0,0-1.974H7.364a3.522,3.522,0,0,1-3.519-3.519V31.608H42.5V45.039a3.522,3.522,0,0,1-3.519,3.519H27.119a.987.987,0,1,0,0,1.974H38.978a5.5,5.5,0,0,0,5.493-5.493V21.385A.987.987,0,0,0,43.484,20.4Zm-17.4,9.236,4.193-7.262h5.454l-4.193,7.262Zm-7.734,0,4.193-7.262h5.454L23.8,29.634Zm-7.733,0,4.193-7.262h5.454l-4.193,7.262Zm3.669-12.777L7.261,10.113l5.261-1.524a.979.979,0,0,0,.13.152l7.022,6.744L14.413,17.01A.982.982,0,0,0,14.283,16.857ZM27.508,4.438l7.022,6.744-5.261,1.524a.961.961,0,0,0-.13-.152L22.118,5.809l5.261-1.524A.979.979,0,0,0,27.508,4.438ZM20.08,6.59,27.1,13.334l-5.261,1.524a.962.962,0,0,0-.13-.152L14.689,7.961l5.261-1.524A1.043,1.043,0,0,0,20.08,6.59Zm14.8-4.477a3.49,3.49,0,0,1,.971-.138,3.541,3.541,0,0,1,3.388,2.539l1.418,4.894L36.7,10.554a1,1,0,0,0-.13-.152L29.546,3.658ZM2.416,12.594a3.493,3.493,0,0,1,2.1-1.685l.58-.168a1,1,0,0,0,.13.152l7.022,6.744L3.532,20.162,2.114,15.267A3.494,3.494,0,0,1,2.416,12.594Zm1.429,9.778h8.682L8.335,29.634H3.845Zm29.969,7.262,4.193-7.262H42.5v7.262Zm0,0" transform="translate(0)" fill="#717171" fill-rule="evenodd"/>
    <path id="Trazado_96" data-name="Trazado 96" d="M206.711,350.385a.987.987,0,0,0-.493-.855l-8.671-5.006a.987.987,0,0,0-1.48.855V355.39a.986.986,0,0,0,1.48.854l8.671-5.006A.987.987,0,0,0,206.711,350.385Zm-8.671,3.3v-6.593l5.71,3.3Zm0,0" transform="translate(-176.716 -310.402)" fill="#717171" fill-rule="evenodd"/>
    <path id="Trazado_97" data-name="Trazado 97" d="M225.76,492a.987.987,0,1,0,.987.987A.989.989,0,0,0,225.76,492Zm0,0" transform="translate(-202.59 -443.443)" fill="#717171" fill-rule="evenodd"/>
  </g>
</svg>
