<svg height="512" viewBox="0 0 64 64" width="512" xmlns="http://www.w3.org/2000/svg"><path d="m32 25-12-5.143v14.143a37.953 37.953 0 0 0 24 0v-14.143z" fill="#a8dba8"/><path d="m3 57v4l25-2.586v.586a2 2 0 0 0 2 2h2v-8.772a1 1 0 0 0 -1.2-.979z" fill="#79bd9a"/><path d="m32 52.228v8.772h2a2 2 0 0 0 2-2v-.586l25 2.586v-4l-27.8-5.751a1 1 0 0 0 -1.2.979z" fill="#79bd9a"/><path d="m37.04 49.357a4 4 0 0 0 -4.856 2.678l25.791 4.965a3 3 0 0 0 -2.2-2.593z" fill="#cff09e"/><path d="m26.96 49.357-18.74 5.043a3 3 0 0 0 -2.195 2.6l25.791-4.96a4 4 0 0 0 -4.856-2.683z" fill="#cff09e"/><path d="m44.454 14.948a23.994 23.994 0 0 1 -18.908 0l-6.046-2.591-8.5 3.643 21 9 21-9-5.5-2.357z" fill="#cff09e"/><path d="m54 27a1.992 1.992 0 0 1 -1.82-2.82 2 2 0 1 0 2.64 2.64 1.99 1.99 0 0 1 -.82.18z" fill="#cff09e"/><g fill="#3b8686"><path d="m43.316 44.729a1 1 0 0 0 1.413-.045l15-16a1 1 0 1 0 -1.458-1.368l-15 16a1 1 0 0 0 .045 1.413z"/><path d="m19.271 44.684a1 1 0 1 0 1.458-1.368l-15-16a1 1 0 1 0 -1.458 1.368z"/><path d="m55.293 39.293-5 5a1 1 0 1 0 1.414 1.414l5-5a1 1 0 0 0 -1.414-1.414z"/><path d="m7.293 39.293a1 1 0 0 0 0 1.414l5 5a1 1 0 0 0 1.414-1.414l-5-5a1 1 0 0 0 -1.414 0z"/><path d="m10.606 16.919 8.394 3.597v13.484a1 1 0 0 0 .684.948 38.991 38.991 0 0 0 12.316 1.987 38.987 38.987 0 0 0 12.316-1.987 1 1 0 0 0 .684-.948v-13.484l7-3v5.668a3 3 0 1 0 2 0v-7.184a1 1 0 0 0 -.606-.919l-21-9a1.007 1.007 0 0 0 -.788 0l-21 9a1 1 0 0 0 0 1.838zm32.394 16.352a37.185 37.185 0 0 1 -22 0v-11.9l10.606 4.545a1 1 0 0 0 .788 0l10.606-4.543zm10-6.271a1 1 0 1 1 1-1 1 1 0 0 1 -1 1zm-21-18.912 18.461 7.912-18.461 7.912-18.461-7.912z"/><path d="m31 40v2a1 1 0 0 0 2 0v-2a1 1 0 0 0 -2 0z"/><path d="m38.293 39.293-2 2a1 1 0 1 0 1.414 1.414l2-2a1 1 0 0 0 -1.414-1.414z"/><path d="m24.293 39.293a1 1 0 0 0 0 1.414l2 2a1 1 0 0 0 1.414-1.414l-2-2a1 1 0 0 0 -1.414 0z"/><path d="m61.2 56.021-2.2-.456v-1.265a4.005 4.005 0 0 0 -2.96-3.862l-18.74-5.047a4.961 4.961 0 0 0 -4.342.86 5.027 5.027 0 0 0 -.958.976 5.027 5.027 0 0 0 -.958-.976 4.966 4.966 0 0 0 -4.342-.86l-18.74 5.046a4 4 0 0 0 -2.96 3.863v1.266l-2.2.456a1 1 0 0 0 -.8.978v4a1 1 0 0 0 1.1 1l23.942-2.476a3 3 0 0 0 2.958 2.476h4a3 3 0 0 0 2.955-2.481l23.945 2.481c.035 0 .069.005.1.005a1 1 0 0 0 1-1v-4.005a1 1 0 0 0 -.8-.979zm-27.025-8.183a2.978 2.978 0 0 1 2.605-.516l18.741 5.046a2 2 0 0 1 1.479 1.932v.852l-24-4.966a2.975 2.975 0 0 1 1.175-2.348zm-27.175 6.462a2 2 0 0 1 1.48-1.931l18.74-5.046a3 3 0 0 1 3.78 2.863l-24 4.965zm53 5.593-23.9-2.474a1.031 1.031 0 0 0 -.773.253 1 1 0 0 0 -.33.742v.586a1 1 0 0 1 -1 1h-3.997a1 1 0 0 1 -1-1v-.586a1 1 0 0 0 -1-1c-.034 0-.068 0-.1 0l-23.9 2.478v-2.078l27-5.586v3.772a1 1 0 0 0 2 0v-3.772l27 5.586z"/></g></svg>