<svg xmlns="http://www.w3.org/2000/svg" xmlns:xlink="http://www.w3.org/1999/xlink" width="52" height="52" viewBox="0 0 52 52">
  <defs>
    <linearGradient id="linear-gradient" x1="0.5" x2="0" y2="0.604" gradientUnits="objectBoundingBox">
      <stop offset="0" stop-color="#73b100"/>
      <stop offset="1" stop-color="#8dd900"/>
    </linearGradient>
  </defs>
  <g id="Grupo_74" data-name="Grupo 74" transform="translate(-24 -187)">
    <circle id="Elipse_2" data-name="Elipse 2" cx="26" cy="26" r="26" transform="translate(24 187)" fill="url(#linear-gradient)"/>
    <path id="man" d="M102.922,32.632v3.63a.615.615,0,0,1-1.229,0v-3.63a5.111,5.111,0,0,0-5.114-5.114A3.773,3.773,0,0,1,93.332,25.7a.615.615,0,1,1,1.05-.639,2.553,2.553,0,0,0,2.2,1.233,6.339,6.339,0,0,1,6.343,6.343ZM92.2,26.472a.615.615,0,0,1-.47.731,5.882,5.882,0,0,1-4.572-.894,3.727,3.727,0,0,1-2.78,1.209,5.111,5.111,0,0,0-5.114,5.114v3.63a.615.615,0,0,1-1.229,0v-3.63a6.339,6.339,0,0,1,6.343-6.343,2.562,2.562,0,0,0,2.568-2.561v-.162a8.233,8.233,0,0,1-4.68-7.117,2.508,2.508,0,0,1-1.926-2.429V10.835c-.034-1.559.2-5.465,3.046-8.21,3.516-3.39,9.155-3.174,13.3-1.178a.616.616,0,0,1,.13,1.024,8.294,8.294,0,0,1,5.076,3.652.679.679,0,0,1,.141.483.622.622,0,0,1-.176.39,4.012,4.012,0,0,0-1.161,2.834v4.192a.615.615,0,1,1-1.229,0V9.829a5.231,5.231,0,0,1,1.194-3.341,7.1,7.1,0,0,0-5.1-2.991l-1.08-.116A.615.615,0,0,1,94.315,2.2l.491-.2c-6.4-2.23-13.239.248-13.239,8.828v3.192a1.269,1.269,0,0,0,.691,1.124V11.161a4.307,4.307,0,0,1,4.3-4.3h7.835a4.307,4.307,0,0,1,4.3,4.3v5.032A8.231,8.231,0,0,1,88.16,24.032a3.757,3.757,0,0,1-.322,1.255A4.654,4.654,0,0,0,91.466,26,.615.615,0,0,1,92.2,26.472Zm-1.72-3.336a7,7,0,0,0,6.99-6.99V11.161a3.076,3.076,0,0,0-3.073-3.072H86.56a3.076,3.076,0,0,0-3.073,3.073v4.985A7,7,0,0,0,90.477,23.136ZM96.7,33.727H94.856a.615.615,0,0,0,0,1.229H96.7a.615.615,0,1,0,0-1.229Z" transform="translate(-40.668 194.868)" fill="#fff"/>
  </g>
</svg>
