<svg xmlns="http://www.w3.org/2000/svg" width="58.207" height="69.013" viewBox="0 0 58.207 69.013">
  <g id="Grupo_112" data-name="Grupo 112" transform="translate(-24.793 -173)">
    <g id="medal" transform="translate(24.793 173.861)">
      <path id="Trazado_57" data-name="Trazado 57" d="M54.475,221.248,39.592,249.289l13.515-1.249,6.541,11.894,14.883-28.041Z" transform="translate(-39.592 -191.784)" fill="#e95454"/>
      <g id="Grupo_83" data-name="Grupo 83" transform="translate(12.296 29.464)">
        <path id="Trazado_58" data-name="Trazado 58" d="M136.213,281.4a1.9,1.9,0,0,0-.893-2.433l-.857-.456a1.832,1.832,0,0,1,1.762-3.211l2.421,1.285a1.528,1.528,0,0,0,2.071-.644l.06-.115a1.445,1.445,0,0,0-.556-2.037l-7.24-3.842a1.906,1.906,0,0,1-.9-2.435,1.836,1.836,0,0,1,2.523-.844l6.716,3.565a1.545,1.545,0,0,0,2.082-.639l.038-.1.011-.021a1.608,1.608,0,0,0-.663-2.188l-3.767-2a1.906,1.906,0,0,1-.9-2.446,1.844,1.844,0,0,1,2.523-.844l4.161,2.21a1.554,1.554,0,0,0,2.109-.716,8.3,8.3,0,0,1,.021-.043,1.551,1.551,0,0,0-.59-2.148l-4.49-2.382a1.9,1.9,0,0,1-.893-2.429,1.836,1.836,0,0,1,2.523-.844l11.076,5.879-14.883,28.041-4.1-7.456A1.743,1.743,0,0,0,136.213,281.4Z" transform="translate(-131.92 -250.876)" fill="#ed6362"/>
        <path id="Trazado_59" data-name="Trazado 59" d="M229.857,221.248l14.883,28.041-13.515-1.249-6.541,11.894L209.8,231.893Z" transform="translate(-199.429 -221.248)" fill="#ed6362"/>
      </g>
      <path id="Trazado_60" data-name="Trazado 60" d="M228.166,281.411a1.9,1.9,0,0,1,.893-2.433l.857-.456a1.832,1.832,0,0,0-1.762-3.211l-2.421,1.285a1.528,1.528,0,0,1-2.071-.643l-.06-.115a1.445,1.445,0,0,1,.556-2.037l7.243-3.844a1.906,1.906,0,0,0,.9-2.435,1.836,1.836,0,0,0-2.523-.844l-6.716,3.565a1.545,1.545,0,0,1-2.082-.639l-.038-.1-.011-.021a1.608,1.608,0,0,1,.663-2.188l3.767-2a1.906,1.906,0,0,0,.9-2.446,1.844,1.844,0,0,0-2.523-.844l-4.166,2.214a1.554,1.554,0,0,1-2.109-.716.1.1,0,0,1-.011-.021.1.1,0,0,1-.011-.021,1.551,1.551,0,0,1,.59-2.148l4.49-2.382a1.9,1.9,0,0,0,.893-2.429,1.836,1.836,0,0,0-2.523-.844l-11.076,5.879L224.7,289.578l4.1-7.456A1.774,1.774,0,0,1,228.166,281.411Z" transform="translate(-187.147 -221.426)" fill="#e95454"/>
      <path id="Trazado_65" data-name="Trazado 65" d="M24.868,0A24.868,24.868,0,1,1,0,24.868,24.868,24.868,0,0,1,24.868,0Z" transform="translate(3.936 0)" fill="#d9d9d9"/>
      <path id="Trazado_61" data-name="Trazado 61" d="M97.857,34.164H82.1a2.24,2.24,0,0,1-2.231-2.231l.017-.153v-.034a2.329,2.329,0,0,1,2.333-2.35H93.139a2.763,2.763,0,0,0,2.81-2.521,2.671,2.671,0,0,0-2.657-2.793H81.723a2.252,2.252,0,0,1-2.214-2.35v-.068a2.252,2.252,0,0,1,2.214-2.35H93.829a2.757,2.757,0,0,0,2.793-2.5,2.661,2.661,0,0,0-2.657-2.793H85.1a24.865,24.865,0,0,0,0,46H96.359a2.757,2.757,0,0,0,2.793-2.5A2.659,2.659,0,0,0,96.5,54.718l-12.806,0a2.65,2.65,0,0,1-2.646-2.793,2.752,2.752,0,0,1,2.8-2.508H88.8a2.653,2.653,0,0,0-.077-5.306H81.2a2.213,2.213,0,0,1-2.214-2.231V41.69a2.1,2.1,0,0,1,2.095-2.231H97.7a2.761,2.761,0,0,0,2.81-2.5A2.661,2.661,0,0,0,97.857,34.164Z" transform="translate(-65.68 -12.149)" fill="#bfbfbf"/>
      <path id="Trazado_62" data-name="Trazado 62" d="M140.335,88.941a17.75,17.75,0,1,1,17.751-17.749A17.772,17.772,0,0,1,140.335,88.941Z" transform="translate(-111.532 -46.323)" fill="#fdfdfd"/>
      <path id="Trazado_63" data-name="Trazado 63" d="M248.848,71.524a17.76,17.76,0,0,0-16.733-17.7h-1.653a2.1,2.1,0,0,0-2.131,1.909,2.03,2.03,0,0,0,2.026,2.131l9.767,0A2.02,2.02,0,0,1,242.142,60a2.1,2.1,0,0,1-2.133,1.913h-3.786a2.024,2.024,0,0,0,.058,4.046h5.74a1.687,1.687,0,0,1,1.688,1.7V67.8a1.6,1.6,0,0,1-1.6,1.7H229.434a2.107,2.107,0,0,0-2.144,1.909,2.03,2.03,0,0,0,2.026,2.131h12.017a1.706,1.706,0,0,1,1.7,1.7l-.013.117v.026a1.777,1.777,0,0,1-1.779,1.792h-8.331a2.108,2.108,0,0,0-2.144,1.922,2.038,2.038,0,0,0,2.026,2.131h8.823a1.717,1.717,0,0,1,1.688,1.792v.051a1.717,1.717,0,0,1-1.688,1.792h-9.233a2.1,2.1,0,0,0-2.131,1.909,2.029,2.029,0,0,0,2.026,2.131h2.435A17.78,17.78,0,0,0,248.848,71.524Z" transform="translate(-202.293 -46.656)" fill="#d3d3d3" opacity="0.2"/>
      <path id="Trazado_64" data-name="Trazado 64" d="M180.134,98.615H171.5L168.83,90.4a1.146,1.146,0,0,0-2.18,0l-2.668,8.212h-8.634a1.146,1.146,0,0,0-.673,2.073l6.985,5.075-2.668,8.212a1.146,1.146,0,0,0,1.764,1.281l6.985-5.075,6.985,5.075a1.146,1.146,0,0,0,1.764-1.281l-2.668-8.212,6.985-5.075A1.146,1.146,0,0,0,180.134,98.615Z" transform="translate(-138.938 -77.678)" fill="#c9c9c9"/>
    </g>
    <rect id="Rectángulo_14" data-name="Rectángulo 14" width="58" height="69" transform="translate(25 173)" fill="#fff" opacity="0.714"/>
  </g>
</svg>
