<svg xmlns="http://www.w3.org/2000/svg" width="53" height="65" viewBox="0 0 53 65">
  <g id="Grupo_114" data-name="Grupo 114" transform="translate(-27 -561)">
    <g id="trophy_1_" data-name="trophy (1)" transform="translate(27.793 562.903)">
      <path id="Trazado_76" data-name="Trazado 76" d="M81.847,87.1H63.1A15.77,15.77,0,0,1,49.968,62.592a1.939,1.939,0,0,1,1.615-.864H93.36a1.941,1.941,0,0,1,1.615.864A15.77,15.77,0,0,1,81.847,87.1ZM52.67,65.6A11.895,11.895,0,0,0,63.1,83.223H81.847A11.895,11.895,0,0,0,92.273,65.6Z" transform="translate(-47.289 -54.25)" fill="#fdbc4b"/>
      <path id="Trazado_77" data-name="Trazado 77" d="M224.632,307.974h-9.755a8.521,8.521,0,0,0,0-6.774h9.755A8.537,8.537,0,0,0,224.632,307.974Z" transform="translate(-194.575 -264.712)" fill="#ffcc5b"/>
      <path id="Trazado_78" data-name="Trazado 78" d="M185.974,357.12H168.351a1.939,1.939,0,0,0-1.938,1.938v1.5h21.5v-1.5A1.939,1.939,0,0,0,185.974,357.12Z" transform="translate(-151.982 -313.858)" fill="#fdbc4b"/>
      <path id="Trazado_79" data-name="Trazado 79" d="M156.975,385.536h-26.9a1.939,1.939,0,0,0-1.938,1.938v9.873h30.772v-9.873A1.938,1.938,0,0,0,156.975,385.536Z" transform="translate(-118.346 -338.832)" fill="#6f7070"/>
      <path id="Trazado_80" data-name="Trazado 80" d="M140.347,483.04H107.474a1.654,1.654,0,0,0-1.653,1.653h0a1.654,1.654,0,0,0,1.653,1.653h32.873A1.654,1.654,0,0,0,142,484.693h0A1.654,1.654,0,0,0,140.347,483.04Z" transform="translate(-98.73 -424.524)" fill="#636464"/>
      <path id="Trazado_81" data-name="Trazado 81" d="M133.949,61.738H121.077c-6.451-11.383-10.308-19.377-11.16-30.762h35.191C144.255,42.361,140.4,50.355,133.949,61.738Z" transform="translate(-102.33 -27.224)" fill="#ffcc5b"/>
      <g id="Grupo_85" data-name="Grupo 85" transform="translate(5.414)">
        <path id="Trazado_82" data-name="Trazado 82" d="M129.639,0H93.857a1.875,1.875,0,0,0-1.876,1.876h0a1.875,1.875,0,0,0,1.876,1.876h35.782a1.875,1.875,0,0,0,1.876-1.876h0A1.877,1.877,0,0,0,129.639,0Z" transform="translate(-91.981)" fill="#fdbc4b"/>
        <path id="Trazado_83" data-name="Trazado 83" d="M200.716,284.912H187.89a1.973,1.973,0,1,0,0,3.946h12.825a1.973,1.973,0,1,0,0-3.946Z" transform="translate(-174.537 -250.397)" fill="#fdbc4b"/>
      </g>
      <path id="Trazado_84" data-name="Trazado 84" d="M128.947,59.439a2.309,2.309,0,0,0-2.3-2.3h-3.671a1.924,1.924,0,0,1-1.938-1.938v-.18a1.83,1.83,0,0,1,1.826-1.938h7.685a2.414,2.414,0,0,0,2.456-2.163,2.332,2.332,0,0,0-2.322-2.434h-6.941a1.953,1.953,0,0,1-1.938-1.938l.023-.136v-.021a2.025,2.025,0,0,1,2.029-2.051h9.488a2.415,2.415,0,0,0,2.456-2.186,2.33,2.33,0,0,0-2.322-2.433h-10.05a1.966,1.966,0,0,1-1.938-2.051v-.047a1.978,1.978,0,0,1,1.938-2.051h5.836a2.372,2.372,0,0,0,2.411-2.163,2.3,2.3,0,0,0-2.3-2.434h-19.46c.853,11.383,4.71,19.377,11.159,30.762h5.64A2.28,2.28,0,0,0,128.947,59.439Z" transform="translate(-102.33 -27.224)" fill="#ffdb70"/>
      <path id="Trazado_85" data-name="Trazado 85" d="M139.933,396.2a1.246,1.246,0,0,0-1.24-1.3h-3.708a1.042,1.042,0,0,1-1.035-1.035l.012-.072v-.012a1.08,1.08,0,0,1,1.083-1.1h5.069a1.291,1.291,0,0,0,1.312-1.169,1.246,1.246,0,0,0-1.24-1.3h-5.371a1.049,1.049,0,0,1-1.035-1.1V389.1a1.057,1.057,0,0,1,1.035-1.1h3.119a1.268,1.268,0,0,0,1.289-1.155,1.228,1.228,0,0,0-1.229-1.3h-7.914a1.939,1.939,0,0,0-1.938,1.938v9.873h10.48A1.293,1.293,0,0,0,139.933,396.2Z" transform="translate(-118.346 -338.846)" fill="#787878"/>
      <path id="Trazado_86" data-name="Trazado 86" d="M145.005,31.917c.029-.314.079-.607.1-.925H109.917c.023.318.074.611.1.925Z" transform="translate(-102.33 -27.238)" fill="#010101" opacity="0.1"/>
    </g>
    <rect id="Rectángulo_16" data-name="Rectángulo 16" width="53" height="65" transform="translate(27 561)" fill="#fff" opacity="0.714"/>
  </g>
</svg>
