<svg id="trophy_1_" data-name="trophy (1)" xmlns="http://www.w3.org/2000/svg" width="60.086" height="73.754" viewBox="0 0 60.086 73.754">
  <path id="Trazado_76" data-name="Trazado 76" d="M88.516,92H66.147A18.814,18.814,0,0,1,50.485,62.759a2.313,2.313,0,0,1,1.926-1.031h49.84a2.316,2.316,0,0,1,1.926,1.031A18.814,18.814,0,0,1,88.516,92ZM53.709,66.353A14.19,14.19,0,0,0,66.147,87.372h22.37a14.19,14.19,0,0,0,12.438-21.019Z" transform="translate(-47.289 -52.807)" fill="#fdbc4b"/>
  <path id="Trazado_77" data-name="Trazado 77" d="M226.515,309.282H214.877a10.165,10.165,0,0,0,0-8.082h11.638A10.184,10.184,0,0,0,226.515,309.282Z" transform="translate(-190.657 -257.67)" fill="#ffcc5b"/>
  <path id="Trazado_78" data-name="Trazado 78" d="M189.749,357.12H168.725a2.313,2.313,0,0,0-2.312,2.312v1.794h25.648v-1.794A2.313,2.313,0,0,0,189.749,357.12Z" transform="translate(-149.197 -305.509)" fill="#fdbc4b"/>
  <path id="Trazado_79" data-name="Trazado 79" d="M162.539,385.536H130.453a2.313,2.313,0,0,0-2.312,2.312v11.779h36.711V387.848A2.312,2.312,0,0,0,162.539,385.536Z" transform="translate(-116.456 -329.818)" fill="#6f7070"/>
  <path id="Trazado_80" data-name="Trazado 80" d="M147.011,483.04H107.793a1.973,1.973,0,0,0-1.972,1.972h0a1.973,1.973,0,0,0,1.972,1.972h39.217a1.973,1.973,0,0,0,1.972-1.972h0A1.973,1.973,0,0,0,147.011,483.04Z" transform="translate(-97.362 -413.231)" fill="#636464"/>
  <path id="Trazado_81" data-name="Trazado 81" d="M138.588,67.675H123.231c-7.7-13.58-12.3-23.116-13.314-36.7H151.9C150.882,44.559,146.281,54.095,138.588,67.675Z" transform="translate(-100.866 -26.499)" fill="#ffcc5b"/>
  <g id="Grupo_85" data-name="Grupo 85" transform="translate(6.459)">
    <path id="Trazado_82" data-name="Trazado 82" d="M136.907,0H94.219a2.237,2.237,0,0,0-2.238,2.238h0a2.237,2.237,0,0,0,2.238,2.238h42.688a2.237,2.237,0,0,0,2.238-2.238h0A2.239,2.239,0,0,0,136.907,0Z" transform="translate(-91.981)" fill="#fdbc4b"/>
    <path id="Trazado_83" data-name="Trazado 83" d="M203.572,284.912h-15.3a2.354,2.354,0,1,0,0,4.708h15.3a2.354,2.354,0,1,0,0-4.708Z" transform="translate(-172.341 -243.736)" fill="#fdbc4b"/>
  </g>
  <path id="Trazado_84" data-name="Trazado 84" d="M132.619,64.933a2.754,2.754,0,0,0-2.742-2.742H125.5a2.3,2.3,0,0,1-2.312-2.312v-.215a2.183,2.183,0,0,1,2.178-2.312h9.168a2.88,2.88,0,0,0,2.93-2.581,2.782,2.782,0,0,0-2.77-2.9h-8.28a2.33,2.33,0,0,1-2.312-2.312l.028-.162v-.025a2.416,2.416,0,0,1,2.421-2.446h11.319a2.881,2.881,0,0,0,2.93-2.608,2.78,2.78,0,0,0-2.77-2.9H126.036a2.345,2.345,0,0,1-2.312-2.446v-.055a2.36,2.36,0,0,1,2.312-2.446H133a2.83,2.83,0,0,0,2.877-2.581,2.744,2.744,0,0,0-2.742-2.9H109.917c1.017,13.58,5.619,23.116,13.312,36.7h6.729A2.72,2.72,0,0,0,132.619,64.933Z" transform="translate(-100.866 -26.499)" fill="#ffdb70"/>
  <path id="Trazado_85" data-name="Trazado 85" d="M142.209,398.26a1.486,1.486,0,0,0-1.48-1.552h-4.423a1.243,1.243,0,0,1-1.235-1.235l.014-.086v-.014a1.289,1.289,0,0,1,1.293-1.306h6.047a1.54,1.54,0,0,0,1.565-1.394,1.486,1.486,0,0,0-1.48-1.552H136.1a1.251,1.251,0,0,1-1.235-1.306v-.028a1.261,1.261,0,0,1,1.235-1.306h3.721a1.513,1.513,0,0,0,1.538-1.378,1.465,1.465,0,0,0-1.466-1.552h-9.441a2.313,2.313,0,0,0-2.312,2.312v11.779h12.5A1.543,1.543,0,0,0,142.209,398.26Z" transform="translate(-116.456 -329.832)" fill="#787878"/>
  <path id="Trazado_86" data-name="Trazado 86" d="M151.777,32.095c.035-.375.095-.724.123-1.1H109.917c.028.379.088.728.123,1.1Z" transform="translate(-100.866 -26.513)" fill="#010101" opacity="0.1"/>
</svg>
