<svg id="shield" xmlns="http://www.w3.org/2000/svg" width="68.168" height="73.985" viewBox="0 0 68.168 73.985">
  <path id="Trazado_66" data-name="Trazado 66" d="M88.3,11.562V21.773A56.99,56.99,0,0,1,54.212,73.985,56.99,56.99,0,0,1,20.128,21.773V11.562A11.566,11.566,0,0,0,31.69,0H76.734A11.566,11.566,0,0,0,88.3,11.562Z" transform="translate(-20.128)" fill="#fee218"/>
  <path id="Trazado_67" data-name="Trazado 67" d="M186.239,10.416a4.286,4.286,0,0,0,4.359,3.91H208.62a3.575,3.575,0,0,1,3.5,3.707v.083a3.55,3.55,0,0,1-3.5,3.707H183.652a4.211,4.211,0,0,0-4.195,4.4,4.364,4.364,0,0,0,4.44,3.949h23.951a3.658,3.658,0,0,1,3.665,3.707v.042l.042.245a3.527,3.527,0,0,1-3.5,3.5H176.484a4.211,4.211,0,0,0-4.195,4.4,4.365,4.365,0,0,0,4.44,3.91H202.7a3.308,3.308,0,0,1,3.3,3.5V49.8a3.476,3.476,0,0,1-3.5,3.5H184.711a4.171,4.171,0,0,0-4.153,4.153,4.123,4.123,0,0,0,4.033,4.155h8.315a4.358,4.358,0,0,1,4.4,3.949,4.186,4.186,0,0,1-4.195,4.4h-9.131a4.178,4.178,0,0,0-4.153,4.4,4.3,4.3,0,0,0,4.4,3.91h1.959A56.981,56.981,0,0,0,218.464,26.92V16.708A11.53,11.53,0,0,1,206.99,6.016h-16.6A4.158,4.158,0,0,0,186.239,10.416Z" transform="translate(-150.296 -5.147)" fill="#fff" opacity="0.3"/>
  <path id="Trazado_68" data-name="Trazado 68" d="M95.275,107.372A50.082,50.082,0,0,1,68.128,62.836V58.211A18.611,18.611,0,0,0,78.342,48H112.21a18.6,18.6,0,0,0,10.214,10.211v4.625A50.088,50.088,0,0,1,95.275,107.372Z" transform="translate(-61.191 -41.063)" fill="#fdbc4b"/>
  <path id="Trazado_69" data-name="Trazado 69" d="M68.128,58.225V62.85a50.081,50.081,0,0,0,21.717,41.273h6.421a3.336,3.336,0,0,0,3.415-3.036,3.245,3.245,0,0,0-3.226-3.415H84.344a3.251,3.251,0,0,1-3.258-3.415A3.386,3.386,0,0,1,84.5,91.187h16.1a3.2,3.2,0,0,0,3.131-3.226,3.24,3.24,0,0,0-3.226-3.226h-19.2a2.7,2.7,0,0,1-2.719-2.719c0-2.035,1.177-2.974,2.562-2.974h25.561a3.39,3.39,0,0,0,3.448-3.036,3.271,3.271,0,0,0-3.258-3.415H82.384a2.677,2.677,0,0,1-2.689-2.941,2.841,2.841,0,0,1,2.846-2.879h18.6a3.392,3.392,0,0,0,3.448-3.068,3.271,3.271,0,0,0-3.258-3.415H81.94a2.757,2.757,0,0,1-2.719-2.879s0-.062,0-.062a2.776,2.776,0,0,1,2.719-2.879h14a3.33,3.33,0,0,0,3.385-3.036A3.226,3.226,0,0,0,96.1,48.016H78.342A18.614,18.614,0,0,1,68.128,58.225Z" transform="translate(-61.191 -41.077)" fill="#f7b343"/>
  <path id="Trazado_70" data-name="Trazado 70" d="M130.562,77.152l5,15.391h16.184l-13.092,9.515,5,15.391-13.095-9.513-13.095,9.513,5-15.391-13.092-9.515H125.56Z" transform="translate(-96.478 -66.002)" fill="#f3f3f3"/>
  <g id="Grupo_84" data-name="Grupo 84" transform="translate(12.898 11.15)">
    <path id="Trazado_71" data-name="Trazado 71" d="M255.968,77.152V99.121l5-6.579Z" transform="translate(-234.782 -77.152)" fill="#fff"/>
    <path id="Trazado_72" data-name="Trazado 72" d="M255.968,190.227l21.186-6.579-13.092,9.515Z" transform="translate(-234.782 -168.257)" fill="#fff"/>
    <path id="Trazado_73" data-name="Trazado 73" d="M255.968,229.168,269.063,247.5l-13.095-9.513Z" transform="translate(-234.782 -207.199)" fill="#fff"/>
    <path id="Trazado_74" data-name="Trazado 74" d="M178.455,229.168l-8.093,2.937-5,15.391Z" transform="translate(-157.269 -207.199)" fill="#fff"/>
    <path id="Trazado_75" data-name="Trazado 75" d="M109.376,183.648H125.56l5,6.579Z" transform="translate(-109.376 -168.257)" fill="#fff"/>
  </g>
</svg>
