<svg id="outline" xmlns="http://www.w3.org/2000/svg" width="89.757" height="85.27" viewBox="0 0 89.757 85.27">
  <path id="Trazado_50" data-name="Trazado 50" d="M104.261,71.35V69.186a7.059,7.059,0,0,0-2.081-5.024l-3.9-3.9V51.646a4.485,4.485,0,0,0,1.846-7.222,4.48,4.48,0,0,0,0-5.984,4.48,4.48,0,0,0,0-5.984,4.485,4.485,0,0,0-1.846-7.222V17.5a1.5,1.5,0,0,0-1.5-1.5H78.83a1.5,1.5,0,0,0-1.5,1.5v1.5H75.17a7.06,7.06,0,0,0-5.025,2.081l-3.9,3.9H47.158a4.484,4.484,0,0,0-7.222-1.846,4.48,4.48,0,0,0-5.984,0,4.48,4.48,0,0,0-5.984,0,4.485,4.485,0,0,0-7.222,1.846H17.5a1.5,1.5,0,0,0-1.5,1.5V44.423a1.5,1.5,0,0,0,1.5,1.5h2.992v2.992a1.5,1.5,0,0,0,.158.669l5.826,11.652v4.392a4.485,4.485,0,0,0-1.846,7.222,4.48,4.48,0,0,0,0,5.984,4.48,4.48,0,0,0,0,5.984,4.485,4.485,0,0,0,1.846,7.222v7.737a1.5,1.5,0,0,0,1.5,1.5H45.919a1.5,1.5,0,0,0,1.5-1.5v-1.5h2.164A7.06,7.06,0,0,0,54.6,96.2l3.9-3.9h13.1a4.488,4.488,0,0,0,7.224,1.848,4.48,4.48,0,0,0,5.982,0,4.48,4.48,0,0,0,5.984,0,4.485,4.485,0,0,0,7.222-1.846h6.241a1.5,1.5,0,0,0,1.5-1.5V72.846A1.5,1.5,0,0,0,104.261,71.35ZM80.326,18.992h14.96v5.984H80.326ZM66.863,27.968a1.5,1.5,0,0,0,1.058-.438l4.341-4.341a4.088,4.088,0,0,1,2.909-1.2h2.164v4.488a1.5,1.5,0,0,0,1.5,1.5H96.782a1.5,1.5,0,1,1,0,2.992H87.806a1.5,1.5,0,0,0,0,2.992h8.976a1.5,1.5,0,1,1,0,2.992H87.806a1.5,1.5,0,0,0,0,2.992h8.976a1.5,1.5,0,1,1,0,2.992H87.806a1.5,1.5,0,0,0,0,2.992h8.976a1.5,1.5,0,1,1,0,2.992H74.7L63.044,43.085a1.5,1.5,0,0,0-.669-.158H47.415V27.968Zm4.646,39.722a1.5,1.5,0,0,0-.158.669V71.35H62.728L51.076,65.525a1.5,1.5,0,0,0-.669-.158H47.415V57.01l3.9-3.9A7.059,7.059,0,0,0,53.4,48.083V45.919h8.623l11.652,5.826a1.5,1.5,0,0,0,.669.158h2.992v4.135ZM18.992,42.927V27.968h1.5v14.96Zm4.488,5.631V26.472a1.5,1.5,0,0,1,2.992,0v8.976a1.5,1.5,0,1,0,2.992,0V26.472a1.5,1.5,0,0,1,2.992,0v8.976a1.5,1.5,0,1,0,2.992,0V26.472a1.5,1.5,0,0,1,2.992,0v8.976a1.5,1.5,0,1,0,2.992,0V26.472a1.5,1.5,0,0,1,2.992,0V44.423a1.5,1.5,0,0,0,1.5,1.5h4.488v2.164a4.087,4.087,0,0,1-1.2,2.909l-4.341,4.341a1.5,1.5,0,0,0-.438,1.058v8.976H29.464V60.879a1.5,1.5,0,0,0-.158-.669Zm20.943,49.72H29.464V92.294h14.96ZM57.887,89.3a1.5,1.5,0,0,0-1.058.438l-4.341,4.341a4.087,4.087,0,0,1-2.909,1.2H47.415V90.8a1.5,1.5,0,0,0-1.5-1.5H27.968a1.5,1.5,0,1,1,0-2.992h8.976a1.5,1.5,0,1,0,0-2.992H27.968a1.5,1.5,0,0,1,0-2.992h8.976a1.5,1.5,0,1,0,0-2.992H27.968a1.5,1.5,0,0,1,0-2.992h8.976a1.5,1.5,0,1,0,0-2.992H27.968a1.5,1.5,0,0,1,0-2.992H50.054l11.652,5.826a1.5,1.5,0,0,0,.669.158H71.35V89.3Zm35.9,2.992a1.5,1.5,0,0,1-1.5-1.5V81.822a1.5,1.5,0,1,0-2.992,0V90.8a1.5,1.5,0,0,1-2.992,0V81.822a1.5,1.5,0,1,0-2.992,0V90.8a1.5,1.5,0,0,1-2.992,0V81.822a1.5,1.5,0,1,0-2.992,0V90.8a1.5,1.5,0,0,1-2.992,0V68.712L80.168,57.06a1.5,1.5,0,0,0,.158-.669V51.9h14.96v8.976a1.5,1.5,0,0,0,.438,1.058l4.341,4.341a4.087,4.087,0,0,1,1.2,2.909V71.35H96.782a1.5,1.5,0,0,0-1.5,1.5V90.8A1.5,1.5,0,0,1,93.79,92.294Zm8.976-2.992H98.278V74.342h4.488Z" transform="translate(-16 -16)" fill="#73b100"/>
  <path id="Trazado_51" data-name="Trazado 51" d="M224.058,216a4.1,4.1,0,0,0-2.922,1.21l-1.162,1.162-1.162-1.162a4.133,4.133,0,0,0-6.842,1.615,5.576,5.576,0,0,0,1.8,6.1l5.269,4.214a1.5,1.5,0,0,0,1.869,0l5.27-4.216a5.577,5.577,0,0,0,1.8-6.1A4.127,4.127,0,0,0,224.058,216Zm.251,6.584-4.335,3.468-4.335-3.468a2.573,2.573,0,0,1-.83-2.812,1.141,1.141,0,0,1,1.888-.446l2.22,2.22a1.5,1.5,0,0,0,2.116,0l2.22-2.22a1.141,1.141,0,0,1,1.888.446A2.573,2.573,0,0,1,224.309,222.584Z" transform="translate(-175.096 -178.601)" fill="#73b100"/>
</svg>
