<svg id="Layer_5" enable-background="new 0 0 64 64" height="512" viewBox="0 0 64 64" width="512" xmlns="http://www.w3.org/2000/svg"><g><g><path d="m39 40.5c0 1.378 1.122 2.5 2.5 2.5.537 0 1.069-.177 1.5-.5l10.801-8.1c.751-.564 1.199-1.461 1.199-2.4s-.448-1.836-1.2-2.4l-10.801-8.101c-.43-.322-.962-.499-1.499-.499-1.378 0-2.5 1.122-2.5 2.5v1.5h-17v2h19v-3.5c0-.385.494-.629.8-.4l10.8 8.1c.251.188.4.487.4.8s-.149.612-.4.8l-10.799 8.099c-.311.233-.801-.014-.801-.399v-3.5h-19v2h17z"/><path d="m34 29h2v2h-2z"/><path d="m34 33h2v2h-2z"/><path d="m36 31h2v2h-2z"/><path d="m32 31h2v2h-2z"/><path d="m31 20.5c0 1.378 1.122 2.5 2.5 2.5.537 0 1.069-.177 1.5-.5l10.801-8.1c.751-.564 1.199-1.461 1.199-2.4s-.448-1.836-1.2-2.4l-10.801-8.101c-.43-.322-.962-.499-1.499-.499-1.378 0-2.5 1.122-2.5 2.5v1.5h-9v2h11v-3.5c0-.384.493-.63.8-.4l10.8 8.1c.251.188.4.487.4.8s-.149.612-.4.8l-10.799 8.099c-.31.234-.801-.014-.801-.399v-3.5h-11v2h9z"/><path d="m26 9h2v2h-2z"/><path d="m26 13h2v2h-2z"/><path d="m28 11h2v2h-2z"/><path d="m24 11h2v2h-2z"/><path d="m26 29h2v2h-2z"/><path d="m26 33h2v2h-2z"/><path d="m28 31h2v2h-2z"/><path d="m24 31h2v2h-2z"/><path d="m61.8 49.6-10.801-8.101c-.43-.322-.962-.499-1.499-.499-1.378 0-2.5 1.122-2.5 2.5v1.5h-25v2h27v-3.5c0-.385.493-.63.8-.4l10.8 8.1c.251.188.4.487.4.8s-.149.612-.4.8l-10.799 8.099c-.31.234-.801-.014-.801-.399v-3.5h-27v2h25v1.5c0 1.378 1.122 2.5 2.5 2.5.537 0 1.069-.177 1.5-.5l10.801-8.1c.751-.564 1.199-1.461 1.199-2.4s-.448-1.836-1.2-2.4z"/><path d="m42 49h2v2h-2z"/><path d="m42 53h2v2h-2z"/><path d="m44 51h2v2h-2z"/><path d="m40 51h2v2h-2z"/><path d="m34 49h2v2h-2z"/><path d="m34 53h2v2h-2z"/><path d="m36 51h2v2h-2z"/><path d="m32 51h2v2h-2z"/><path d="m26 49h2v2h-2z"/><path d="m26 53h2v2h-2z"/><path d="m28 51h2v2h-2z"/><path d="m24 51h2v2h-2z"/></g><g><path d="m10.486 5 1.475 5.092h5.622l.301.885-4.884 3.212 2.265 5.213-.803.598-4.578-3.763-4.578 3.763-.803-.598 2.266-5.213-4.885-3.212.301-.885h5.622l1.475-5.092z" fill="#f0bc5e"/></g><g><path d="m10.486 25 1.475 5.092h5.622l.301.885-4.884 3.212 2.265 5.213-.803.598-4.578-3.763-4.578 3.763-.803-.598 2.266-5.213-4.885-3.212.301-.885h5.622l1.475-5.092z" fill="#f0bc5e"/></g><g><path d="m10.486 45 1.475 5.092h5.622l.301.885-4.884 3.212 2.265 5.213-.803.598-4.578-3.763-4.578 3.763-.803-.598 2.266-5.213-4.885-3.212.301-.885h5.622l1.475-5.092z" fill="#f0bc5e"/></g></g></svg>