<svg id="network" xmlns="http://www.w3.org/2000/svg" width="85.626" height="85.626" viewBox="0 0 85.626 85.626">
  <g id="Grupo_16" data-name="Grupo 16" transform="translate(74.21 17.125)">
    <g id="Grupo_15" data-name="Grupo 15">
      <path id="Trazado_25" data-name="Trazado 25" d="M449.442,102.4a5.708,5.708,0,1,0,5.708,5.708A5.714,5.714,0,0,0,449.442,102.4Zm0,8.563a2.854,2.854,0,1,1,2.854-2.854A2.857,2.857,0,0,1,449.442,110.963Z" transform="translate(-443.734 -102.4)" fill="#73b100"/>
    </g>
  </g>
  <g id="Grupo_18" data-name="Grupo 18" transform="translate(0 64.22)">
    <g id="Grupo_17" data-name="Grupo 17">
      <path id="Trazado_26" data-name="Trazado 26" d="M5.708,384a5.708,5.708,0,1,0,5.708,5.708A5.714,5.714,0,0,0,5.708,384Zm0,8.563a2.854,2.854,0,1,1,2.854-2.854A2.857,2.857,0,0,1,5.708,392.563Z" transform="translate(0 -384)" fill="#73b100"/>
    </g>
  </g>
  <g id="Grupo_20" data-name="Grupo 20" transform="translate(62.792 12.843)">
    <g id="Grupo_19" data-name="Grupo 19">
      <path id="Trazado_27" data-name="Trazado 27" d="M389.821,82.878,377.51,76.934a1.427,1.427,0,1,0-1.24,2.57l12.312,5.944a1.427,1.427,0,0,0,1.24-2.57Z" transform="translate(-375.463 -76.792)" fill="#73b100"/>
    </g>
  </g>
  <g id="Grupo_22" data-name="Grupo 22" transform="translate(58.511 74.209)">
    <g id="Grupo_21" data-name="Grupo 21">
      <path id="Trazado_28" data-name="Trazado 28" d="M355.575,443.733a5.708,5.708,0,1,0,5.708,5.709A5.714,5.714,0,0,0,355.575,443.733Zm0,8.563a2.854,2.854,0,1,1,2.854-2.854A2.857,2.857,0,0,1,355.575,452.3Z" transform="translate(-349.867 -443.733)" fill="#73b100"/>
    </g>
  </g>
  <g id="Grupo_24" data-name="Grupo 24" transform="translate(47.094 69.927)">
    <g id="Grupo_23" data-name="Grupo 23">
      <path id="Trazado_29" data-name="Trazado 29" d="M295.954,424.211l-12.312-5.944a1.427,1.427,0,1,0-1.24,2.57l12.312,5.944a1.427,1.427,0,1,0,1.24-2.57Z" transform="translate(-281.596 -418.124)" fill="#73b100"/>
    </g>
  </g>
  <g id="Grupo_26" data-name="Grupo 26" transform="translate(37.105 38.532)">
    <g id="Grupo_25" data-name="Grupo 25">
      <path id="Trazado_30" data-name="Trazado 30" d="M227.575,230.4a5.708,5.708,0,1,0,5.708,5.708A5.714,5.714,0,0,0,227.575,230.4Zm0,8.563a2.854,2.854,0,1,1,2.854-2.854A2.857,2.857,0,0,1,227.575,238.963Z" transform="translate(-221.867 -230.4)" fill="#73b100"/>
    </g>
  </g>
  <g id="Grupo_28" data-name="Grupo 28" transform="translate(28.542 32.824)">
    <g id="Grupo_27" data-name="Grupo 27">
      <path id="Trazado_31" data-name="Trazado 31" d="M182.427,203.943l-9.457-7.371a1.428,1.428,0,0,0-1.755,2.252l9.457,7.371a1.428,1.428,0,1,0,1.755-2.252Z" transform="translate(-170.664 -196.272)" fill="#73b100"/>
    </g>
  </g>
  <g id="Grupo_30" data-name="Grupo 30" transform="translate(52.803 37.105)">
    <g id="Grupo_29" data-name="Grupo 29">
      <path id="Trazado_32" data-name="Trazado 32" d="M331.431,221.867a15.7,15.7,0,1,0,15.7,15.7A15.717,15.717,0,0,0,331.431,221.867Zm0,28.542a12.844,12.844,0,1,1,12.844-12.844A12.858,12.858,0,0,1,331.431,250.409Z" transform="translate(-315.733 -221.867)" fill="#73b100"/>
    </g>
  </g>
  <g id="Grupo_32" data-name="Grupo 32" transform="translate(62.793 42.813)">
    <g id="Grupo_31" data-name="Grupo 31">
      <path id="Trazado_33" data-name="Trazado 33" d="M381.175,256a5.708,5.708,0,1,0,5.708,5.708A5.714,5.714,0,0,0,381.175,256Zm0,8.563a2.854,2.854,0,1,1,2.854-2.854A2.857,2.857,0,0,1,381.175,264.563Z" transform="translate(-375.467 -256)" fill="#73b100"/>
    </g>
  </g>
  <g id="Grupo_34" data-name="Grupo 34" transform="translate(59.938 57.084)">
    <g id="Grupo_33" data-name="Grupo 33">
      <path id="Trazado_34" data-name="Trazado 34" d="M371.1,341.333h-8.28a4.369,4.369,0,0,0-4.423,4.3V349.4a1.428,1.428,0,0,0,.712,1.236,15.618,15.618,0,0,0,15.7,0,1.425,1.425,0,0,0,.712-1.234v-3.762A4.369,4.369,0,0,0,371.1,341.333Zm1.568,7.214a12.94,12.94,0,0,1-11.417,0v-2.91a1.515,1.515,0,0,1,1.568-1.45h8.28a1.515,1.515,0,0,1,1.568,1.45v2.91Z" transform="translate(-358.4 -341.333)" fill="#73b100"/>
    </g>
  </g>
  <g id="Grupo_36" data-name="Grupo 36" transform="translate(18.552 54.23)">
    <g id="Grupo_35" data-name="Grupo 35">
      <path id="Trazado_35" data-name="Trazado 35" d="M126.631,324.267a15.7,15.7,0,1,0,15.7,15.7A15.717,15.717,0,0,0,126.631,324.267Zm0,28.542a12.844,12.844,0,1,1,12.844-12.844A12.858,12.858,0,0,1,126.631,352.809Z" transform="translate(-110.933 -324.267)" fill="#73b100"/>
    </g>
  </g>
  <g id="Grupo_38" data-name="Grupo 38" transform="translate(28.542 59.938)">
    <g id="Grupo_37" data-name="Grupo 37">
      <path id="Trazado_36" data-name="Trazado 36" d="M176.375,358.4a5.708,5.708,0,1,0,5.708,5.708A5.714,5.714,0,0,0,176.375,358.4Zm0,8.563a2.854,2.854,0,1,1,2.854-2.854A2.857,2.857,0,0,1,176.375,366.963Z" transform="translate(-170.667 -358.4)" fill="#73b100"/>
    </g>
  </g>
  <g id="Grupo_40" data-name="Grupo 40" transform="translate(25.688 74.209)">
    <g id="Grupo_39" data-name="Grupo 39">
      <path id="Trazado_37" data-name="Trazado 37" d="M166.3,443.733h-8.28a4.369,4.369,0,0,0-4.423,4.3V451.8a1.428,1.428,0,0,0,.712,1.236,15.618,15.618,0,0,0,15.7,0,1.425,1.425,0,0,0,.712-1.234v-3.762A4.369,4.369,0,0,0,166.3,443.733Zm1.568,7.214a12.94,12.94,0,0,1-11.417,0v-2.91a1.515,1.515,0,0,1,1.568-1.45h8.28a1.515,1.515,0,0,1,1.568,1.45v2.91Z" transform="translate(-153.6 -443.733)" fill="#73b100"/>
    </g>
  </g>
  <g id="Grupo_42" data-name="Grupo 42" transform="translate(0 18.552)">
    <g id="Grupo_41" data-name="Grupo 41">
      <path id="Trazado_38" data-name="Trazado 38" d="M15.7,110.933a15.7,15.7,0,1,0,15.7,15.7A15.717,15.717,0,0,0,15.7,110.933Zm0,28.542a12.844,12.844,0,1,1,12.844-12.844A12.858,12.858,0,0,1,15.7,139.475Z" transform="translate(0 -110.933)" fill="#73b100"/>
    </g>
  </g>
  <g id="Grupo_44" data-name="Grupo 44" transform="translate(9.99 24.261)">
    <g id="Grupo_43" data-name="Grupo 43">
      <path id="Trazado_39" data-name="Trazado 39" d="M65.442,145.067a5.708,5.708,0,1,0,5.708,5.708A5.714,5.714,0,0,0,65.442,145.067Zm0,8.563a2.854,2.854,0,1,1,2.854-2.854A2.857,2.857,0,0,1,65.442,153.63Z" transform="translate(-59.734 -145.067)" fill="#73b100"/>
    </g>
  </g>
  <g id="Grupo_46" data-name="Grupo 46" transform="translate(7.136 38.532)">
    <g id="Grupo_45" data-name="Grupo 45">
      <path id="Trazado_40" data-name="Trazado 40" d="M55.37,230.4H47.09a4.369,4.369,0,0,0-4.423,4.3v3.762a1.428,1.428,0,0,0,.712,1.236,15.618,15.618,0,0,0,15.7,0,1.426,1.426,0,0,0,.712-1.234V234.7A4.369,4.369,0,0,0,55.37,230.4Zm1.568,7.214a12.94,12.94,0,0,1-11.417,0V234.7a1.515,1.515,0,0,1,1.568-1.45h8.28a1.515,1.515,0,0,1,1.568,1.45v2.91Z" transform="translate(-42.667 -230.4)" fill="#73b100"/>
    </g>
  </g>
  <g id="Grupo_48" data-name="Grupo 48" transform="translate(34.251)">
    <g id="Grupo_47" data-name="Grupo 47">
      <path id="Trazado_41" data-name="Trazado 41" d="M220.5,0a15.7,15.7,0,1,0,15.7,15.7A15.717,15.717,0,0,0,220.5,0Zm0,28.542A12.844,12.844,0,1,1,233.342,15.7,12.858,12.858,0,0,1,220.5,28.542Z" transform="translate(-204.8)" fill="#73b100"/>
    </g>
  </g>
  <g id="Grupo_50" data-name="Grupo 50" transform="translate(44.24 5.708)">
    <g id="Grupo_49" data-name="Grupo 49">
      <path id="Trazado_42" data-name="Trazado 42" d="M270.242,34.133a5.708,5.708,0,1,0,5.708,5.709A5.714,5.714,0,0,0,270.242,34.133Zm0,8.563a2.854,2.854,0,1,1,2.854-2.854A2.857,2.857,0,0,1,270.242,42.7Z" transform="translate(-264.534 -34.133)" fill="#73b100"/>
    </g>
  </g>
  <g id="Grupo_52" data-name="Grupo 52" transform="translate(41.386 19.98)">
    <g id="Grupo_51" data-name="Grupo 51">
      <path id="Trazado_43" data-name="Trazado 43" d="M260.17,119.467h-8.28a4.369,4.369,0,0,0-4.423,4.3v3.762a1.428,1.428,0,0,0,.712,1.236,15.618,15.618,0,0,0,15.7,0,1.426,1.426,0,0,0,.712-1.234v-3.762A4.369,4.369,0,0,0,260.17,119.467Zm1.568,7.214a12.94,12.94,0,0,1-11.417,0v-2.91a1.515,1.515,0,0,1,1.568-1.45h8.28a1.515,1.515,0,0,1,1.568,1.45v2.91Z" transform="translate(-247.467 -119.467)" fill="#73b100"/>
    </g>
  </g>
  <g id="Grupo_54" data-name="Grupo 54" transform="translate(24.362 14.271)">
    <g id="Grupo_53" data-name="Grupo 53">
      <path id="Trazado_44" data-name="Trazado 44" d="M158.073,85.831a1.429,1.429,0,0,0-2.012-.156l-9.89,8.463a1.427,1.427,0,1,0,1.855,2.168l9.89-8.463A1.427,1.427,0,0,0,158.073,85.831Z" transform="translate(-145.671 -85.333)" fill="#73b100"/>
    </g>
  </g>
  <g id="Grupo_56" data-name="Grupo 56" transform="translate(57.084 25.69)">
    <g id="Grupo_55" data-name="Grupo 55">
      <path id="Trazado_45" data-name="Trazado 45" d="M352.464,165.6,343.9,154.181a1.427,1.427,0,0,0-2.284,1.711l8.563,11.417a1.427,1.427,0,0,0,2.283-1.711Z" transform="translate(-341.333 -153.61)" fill="#73b100"/>
    </g>
  </g>
  <g id="Grupo_58" data-name="Grupo 58" transform="translate(45.963 56.952)">
    <g id="Grupo_57" data-name="Grupo 57">
      <path id="Trazado_46" data-name="Trazado 46" d="M285.374,341.111a1.427,1.427,0,0,0-2-.286L275.4,346.8a1.426,1.426,0,0,0,1.713,2.282l7.972-5.978A1.425,1.425,0,0,0,285.374,341.111Z" transform="translate(-274.833 -340.54)" fill="#73b100"/>
    </g>
  </g>
  <g id="Grupo_60" data-name="Grupo 60" transform="translate(8.563 68.501)">
    <g id="Grupo_59" data-name="Grupo 59">
      <path id="Trazado_47" data-name="Trazado 47" d="M62.617,409.6h-9.99a1.427,1.427,0,0,0,0,2.854h9.99a1.427,1.427,0,0,0,0-2.854Z" transform="translate(-51.2 -409.6)" fill="#73b100"/>
    </g>
  </g>
  <g id="Grupo_62" data-name="Grupo 62" transform="translate(9.99)">
    <g id="Grupo_61" data-name="Grupo 61">
      <path id="Trazado_48" data-name="Trazado 48" d="M65.442,0A5.708,5.708,0,1,0,71.15,5.708,5.714,5.714,0,0,0,65.442,0Zm0,8.563A2.854,2.854,0,1,1,68.3,5.708,2.857,2.857,0,0,1,65.442,8.563Z" transform="translate(-59.733)" fill="#73b100"/>
    </g>
  </g>
  <g id="Grupo_64" data-name="Grupo 64" transform="translate(14.271 8.563)">
    <g id="Grupo_63" data-name="Grupo 63">
      <path id="Trazado_49" data-name="Trazado 49" d="M86.761,51.2a1.427,1.427,0,0,0-1.427,1.427v9.99a1.427,1.427,0,1,0,2.854,0v-9.99A1.427,1.427,0,0,0,86.761,51.2Z" transform="translate(-85.334 -51.2)" fill="#73b100"/>
    </g>
  </g>
</svg>
