<svg id="pie-chart" xmlns="http://www.w3.org/2000/svg" width="81.509" height="86.517" viewBox="0 0 81.509 86.517">
  <path id="Trazado_17" data-name="Trazado 17" d="M73.32,86.517H12.189C6.573,86.517,2,82.472,2,77.5V9.012C2,4.045,6.573,0,12.189,0H73.32c5.616,0,10.189,4.045,10.189,9.012V77.5C83.509,82.472,78.936,86.517,73.32,86.517ZM12.189,3.6c-3.37,0-6.113,2.426-6.113,5.407V77.5c0,2.981,2.743,5.407,6.113,5.407H73.32c3.37,0,6.113-2.426,6.113-5.407V9.012c0-2.981-2.743-5.407-6.113-5.407Z" transform="translate(-2 0)" fill="#73b100"/>
  <path id="Trazado_18" data-name="Trazado 18" d="M26.189,15.075H18.038a2.038,2.038,0,0,1,0-4.075h8.151a2.038,2.038,0,0,1,0,4.075Z" transform="translate(41.056 18.238)" fill="#73b100"/>
  <path id="Trazado_19" data-name="Trazado 19" d="M26.189,12.075H18.038a2.038,2.038,0,0,1,0-4.075h8.151a2.038,2.038,0,0,1,0,4.075Z" transform="translate(41.056 7.937)" fill="#73b100"/>
  <path id="Trazado_20" data-name="Trazado 20" d="M26.189,18.075H18.038a2.038,2.038,0,0,1,0-4.075h8.151a2.038,2.038,0,0,1,0,4.075Z" transform="translate(41.056 28.539)" fill="#73b100"/>
  <path id="Trazado_21" data-name="Trazado 21" d="M26.189,21.075H18.038a2.038,2.038,0,0,1,0-4.075h8.151a2.038,2.038,0,0,1,0,4.075Z" transform="translate(41.056 38.84)" fill="#73b100"/>
  <path id="Trazado_22" data-name="Trazado 22" d="M60.018,24.075H7.038a2.038,2.038,0,1,1,0-4.075H60.018a2.038,2.038,0,0,1,0,4.075Z" transform="translate(7.226 50.215)" fill="#73b100"/>
  <path id="Trazado_23" data-name="Trazado 23" d="M25.377,48.754A20.377,20.377,0,1,1,45.754,28.377,20.4,20.4,0,0,1,25.377,48.754Zm0-36.679a16.3,16.3,0,1,0,16.3,16.3A16.318,16.318,0,0,0,25.377,12.075Z" transform="translate(7.226 9.779)" fill="#73b100"/>
  <path id="Trazado_24" data-name="Trazado 24" d="M8.356,43.383a2.036,2.036,0,0,1-1.443-3.476L19.287,27.534v-17.5a2.038,2.038,0,0,1,4.075,0V28.377a2.052,2.052,0,0,1-.6,1.443L9.8,42.788A2.047,2.047,0,0,1,8.356,43.383Z" transform="translate(11.279 9.374)" fill="#73b100"/>
</svg>
